#N canvas 195 518 1108 684 10;
#X obj 14 18 cnv 15 150 88 empty empty empty 20 12 0 14 -1 -66577 0
;
#X obj 63 337 env~ 8192;
#X obj 62 315 hip~ 5;
#X obj 63 367 - 97;
#X obj 63 278 inlet~;
#X obj 93 444 t f f;
#X obj 110 387 t b;
#X obj 85 466 change;
#X obj 63 390 t f f;
#X obj 68 496 pack 0 -99;
#X msg 135 445 -99;
#X obj 93 414 max -99;
#X obj 37 50 vu 12 80 empty empty 1 172 0 4 -1 -1 1 0;
#X obj 166 336 env~ 8192;
#X obj 165 314 hip~ 5;
#X obj 166 366 - 97;
#X obj 166 277 inlet~;
#X obj 196 443 t f f;
#X obj 213 386 t b;
#X obj 188 465 change;
#X obj 166 389 t f f;
#X obj 171 495 pack 0 -99;
#X msg 238 444 -99;
#X obj 196 413 max -99;
#X obj 154 50 vu 12 80 empty empty 1 172 0 4 -1 -1 1 0;
#X obj 266 335 env~ 8192;
#X obj 265 313 hip~ 5;
#X obj 266 365 - 97;
#X obj 266 276 inlet~;
#X obj 296 442 t f f;
#X obj 313 385 t b;
#X obj 288 464 change;
#X obj 266 388 t f f;
#X obj 271 494 pack 0 -99;
#X msg 338 443 -99;
#X obj 296 412 max -99;
#X obj 272 50 vu 12 80 empty empty 1 172 0 4 -1 -1 1 0;
#X obj 373 336 env~ 8192;
#X obj 372 314 hip~ 5;
#X obj 373 366 - 97;
#X obj 373 277 inlet~;
#X obj 403 443 t f f;
#X obj 420 386 t b;
#X obj 395 465 change;
#X obj 373 389 t f f;
#X obj 378 495 pack 0 -99;
#X msg 445 444 -99;
#X obj 403 413 max -99;
#X obj 389 50 vu 12 80 empty empty 1 172 0 4 -1 -1 1 0;
#X obj 476 335 env~ 8192;
#X obj 475 313 hip~ 5;
#X obj 476 365 - 97;
#X obj 476 276 inlet~;
#X obj 506 442 t f f;
#X obj 523 385 t b;
#X obj 498 464 change;
#X obj 476 388 t f f;
#X obj 481 494 pack 0 -99;
#X msg 548 443 -99;
#X obj 506 412 max -99;
#X obj 506 50 vu 12 80 empty empty 1 172 0 4 -1 -1 1 0;
#X obj 576 334 env~ 8192;
#X obj 575 312 hip~ 5;
#X obj 576 364 - 97;
#X obj 576 275 inlet~;
#X obj 606 441 t f f;
#X obj 623 384 t b;
#X obj 598 463 change;
#X obj 576 387 t f f;
#X obj 581 493 pack 0 -99;
#X msg 648 442 -99;
#X obj 606 411 max -99;
#X obj 623 50 vu 12 80 empty empty 2 90 0 4 -1 -1 1 0;
#X obj 685 332 env~ 8192;
#X obj 684 310 hip~ 5;
#X obj 685 362 - 97;
#X obj 685 273 inlet~;
#X obj 715 439 t f f;
#X obj 732 382 t b;
#X obj 707 461 change;
#X obj 685 385 t f f;
#X obj 690 491 pack 0 -99;
#X msg 757 440 -99;
#X obj 715 409 max -99;
#X obj 741 51 vu 12 80 empty empty 1 172 0 4 -1 -1 1 0;
#X obj 785 331 env~ 8192;
#X obj 784 309 hip~ 5;
#X obj 785 361 - 97;
#X obj 785 272 inlet~;
#X obj 815 438 t f f;
#X obj 832 381 t b;
#X obj 807 460 change;
#X obj 785 384 t f f;
#X obj 790 490 pack 0 -99;
#X msg 857 439 -99;
#X obj 815 408 max -99;
#X obj 859 51 vu 12 80 empty empty 1 172 0 4 -1 -1 1 0;
#X text 98 523 xjimmies lib. z. settel/jm dumas 2003-2007;
#X obj 961 44 bng 8 250 50 0 empty empty empty -6 18 0 8 -3264 -262144
-262144;
#X obj 898 -2 inlet;
#X text 917 11 reset;
#X obj 1008 16 inlet;
#X text 976 -1 meter edit mess;
#X connect 1 0 3 0;
#X connect 2 0 1 0;
#X connect 3 0 8 0;
#X connect 4 0 2 0;
#X connect 5 0 11 1;
#X connect 5 1 7 0;
#X connect 6 0 10 0;
#X connect 7 0 9 1;
#X connect 8 0 9 0;
#X connect 8 1 11 0;
#X connect 9 0 12 0;
#X connect 10 0 7 0;
#X connect 10 0 11 1;
#X connect 11 0 5 0;
#X connect 13 0 15 0;
#X connect 14 0 13 0;
#X connect 15 0 20 0;
#X connect 16 0 14 0;
#X connect 17 0 23 1;
#X connect 17 1 19 0;
#X connect 18 0 22 0;
#X connect 19 0 21 1;
#X connect 20 0 21 0;
#X connect 20 1 23 0;
#X connect 21 0 24 0;
#X connect 22 0 19 0;
#X connect 22 0 23 1;
#X connect 23 0 17 0;
#X connect 25 0 27 0;
#X connect 26 0 25 0;
#X connect 27 0 32 0;
#X connect 28 0 26 0;
#X connect 29 0 35 1;
#X connect 29 1 31 0;
#X connect 30 0 34 0;
#X connect 31 0 33 1;
#X connect 32 0 33 0;
#X connect 32 1 35 0;
#X connect 33 0 36 0;
#X connect 34 0 31 0;
#X connect 34 0 35 1;
#X connect 35 0 29 0;
#X connect 37 0 39 0;
#X connect 38 0 37 0;
#X connect 39 0 44 0;
#X connect 40 0 38 0;
#X connect 41 0 47 1;
#X connect 41 1 43 0;
#X connect 42 0 46 0;
#X connect 43 0 45 1;
#X connect 44 0 45 0;
#X connect 44 1 47 0;
#X connect 45 0 48 0;
#X connect 46 0 43 0;
#X connect 46 0 47 1;
#X connect 47 0 41 0;
#X connect 49 0 51 0;
#X connect 50 0 49 0;
#X connect 51 0 56 0;
#X connect 52 0 50 0;
#X connect 53 0 59 1;
#X connect 53 1 55 0;
#X connect 54 0 58 0;
#X connect 55 0 57 1;
#X connect 56 0 57 0;
#X connect 56 1 59 0;
#X connect 57 0 60 0;
#X connect 58 0 55 0;
#X connect 58 0 59 1;
#X connect 59 0 53 0;
#X connect 61 0 63 0;
#X connect 62 0 61 0;
#X connect 63 0 68 0;
#X connect 64 0 62 0;
#X connect 65 0 71 1;
#X connect 65 1 67 0;
#X connect 66 0 70 0;
#X connect 67 0 69 1;
#X connect 68 0 69 0;
#X connect 68 1 71 0;
#X connect 69 0 72 0;
#X connect 70 0 67 0;
#X connect 70 0 71 1;
#X connect 71 0 65 0;
#X connect 73 0 75 0;
#X connect 74 0 73 0;
#X connect 75 0 80 0;
#X connect 76 0 74 0;
#X connect 77 0 83 1;
#X connect 77 1 79 0;
#X connect 78 0 82 0;
#X connect 79 0 81 1;
#X connect 80 0 81 0;
#X connect 80 1 83 0;
#X connect 81 0 84 0;
#X connect 82 0 79 0;
#X connect 82 0 83 1;
#X connect 83 0 77 0;
#X connect 85 0 87 0;
#X connect 86 0 85 0;
#X connect 87 0 92 0;
#X connect 88 0 86 0;
#X connect 89 0 95 1;
#X connect 89 1 91 0;
#X connect 90 0 94 0;
#X connect 91 0 93 1;
#X connect 92 0 93 0;
#X connect 92 1 95 0;
#X connect 93 0 96 0;
#X connect 94 0 91 0;
#X connect 94 0 95 1;
#X connect 95 0 89 0;
#X connect 98 0 90 0;
#X connect 98 0 78 0;
#X connect 98 0 66 0;
#X connect 98 0 54 0;
#X connect 98 0 42 0;
#X connect 98 0 30 0;
#X connect 98 0 18 0;
#X connect 98 0 6 0;
#X connect 99 0 98 0;
#X connect 101 0 96 0;
#X connect 101 0 84 0;
#X connect 101 0 72 0;
#X connect 101 0 60 0;
#X connect 101 0 48 0;
#X connect 101 0 36 0;
#X connect 101 0 24 0;
#X connect 101 0 12 0;
#X coords 0 0 1 1 150 90 1;
