#N canvas 198 180 590 481 10;
#X obj 113 225 readsf~ 8 1e+06;
#X obj 117 313 outlet~;
#X obj 127 323 outlet~;
#X obj 137 333 outlet~;
#X obj 147 343 outlet~;
#X obj 157 353 outlet~;
#X obj 167 363 outlet~;
#X obj 177 373 outlet~;
#X obj 187 383 outlet~;
#X msg 113 203 open \$1;
#X obj 354 60 u_dispatch \$0 file;
#X obj 354 81 u_dispatch \$0 start;
#X obj 354 102 u_dispatch \$0 stop;
#X obj 354 123 u_dispatch \$0 loop;
#X obj 20 12 inlet;
#X obj 354 28 inlet;
#X text 379 41 control;
#X obj 113 161 r \$0-file;
#X obj 113 182 symbol;
#X obj 264 258 r \$0-loop;
#X obj 269 302 t b b;
#X msg 269 336 1;
#X text 62 20 bang retriggers playback;
#X obj 395 303 r \$0-stop;
#X msg 395 327 0;
#X obj 219 280 spigot 0;
#X obj 172 201 r \$0-read_msg;
#X obj 268 358 s \$0-read_msg;
#X obj 97 137 r \$0-file_msg;
#X obj 296 325 s \$0-file_msg;
#X obj 354 145 u_dispatch \$0 startagain;
#X obj 328 277 r \$0-startagain;
#X obj 462 305 r \$0-start;
#X msg 462 328 1;
#X obj 21 67 s \$0-read_msg;
#X msg 21 43 startagain;
#X text 354 165 dispatch incoming messages;
#X text 189 140 file control;
#X text 276 241 loop control;
#X text 434 285 playback control;
#X connect 0 0 1 0;
#X connect 0 1 2 0;
#X connect 0 2 3 0;
#X connect 0 3 4 0;
#X connect 0 4 5 0;
#X connect 0 5 6 0;
#X connect 0 6 7 0;
#X connect 0 7 8 0;
#X connect 0 8 25 0;
#X connect 9 0 0 0;
#X connect 10 0 11 0;
#X connect 11 0 12 0;
#X connect 12 0 13 0;
#X connect 13 0 30 0;
#X connect 14 0 35 0;
#X connect 15 0 10 0;
#X connect 17 0 18 0;
#X connect 18 0 9 0;
#X connect 19 0 25 1;
#X connect 20 0 21 0;
#X connect 20 1 29 0;
#X connect 21 0 27 0;
#X connect 23 0 24 0;
#X connect 24 0 27 0;
#X connect 25 0 20 0;
#X connect 26 0 0 0;
#X connect 28 0 18 0;
#X connect 31 0 20 0;
#X connect 32 0 33 0;
#X connect 33 0 27 0;
#X connect 35 0 34 0;
