#N canvas 80 58 861 508 10;
#X declare -path ../rj;
#X obj 47 286 *~ 0.3;
#X obj 60 333 biquad~;
#X obj 6 333 biquad~;
#X obj 197 250 u_lowpass 1000 100;
#X obj 187 333 biquad~;
#X obj 312 251 u_bandpass1 500 100;
#X obj 176 105 hsl 90 10 0 500 0 0 \$0-lp-freq empty lowpass 50 5 1
10 -262144 -1 -1 3799 1;
#X obj 176 117 hsl 90 10 0 200 0 0 \$0-lp-bw empty bandwidth 40 5 1
10 -262144 -1 -1 3100 1;
#X obj 176 64 hsl 90 10 500 2000 0 0 \$0-bp-freq empty bandpass 50
5 1 10 -262144 -1 -1 5198 1;
#X obj 176 76 hsl 90 10 0 200 0 0 \$0-bp-bw empty bandwidth 40 5 1
10 -262144 -1 -1 5896 1;
#X obj 176 22 hsl 90 12 2000 20000 0 0 \$0-hp-freq empty highpass 30
5 0 12 -262144 -1 -1 6900 1;
#X obj 176 34 hsl 90 10 0 200 0 0 \$0-hp-bw empty bandwidth 40 5 1
10 -262144 -1 -1 3800 1;
#X obj 272 19 nbx 5 12 -1e+37 1e+37 0 0 empty empty empty 0 -8 1 10
-262144 -1 -1 15955.1 256;
#X obj 179 133 hsl 90 12 0 100 0 0 \$0-lp-gain empty gain 20 4 1 8
-262144 -1 -1 2670 1;
#X obj 179 93 hsl 90 12 0 100 0 0 \$0-bp-gain empty gain 20 4 1 8 -262144
-1 -1 2670 1;
#X obj 181 48 hsl 90 12 0 100 0 0 \$0-hp-gain empty gain 20 4 1 8 -262144
-1 -1 2670 1;
#X obj 2 286 *~ 0.3;
#X obj 90 279 *~ 0.3;
#X obj 95 135 r \$0-bp-gain;
#X obj 95 155 r \$0-lp-gain;
#X obj 95 115 r \$0-hp-gain;
#X obj 433 252 u_highpass 2000 100;
#X obj 433 229 r \$0-hp-freq;
#X obj 544 227 r \$0-hp-bw;
#X obj 364 229 r \$0-bp-bw;
#X obj 313 209 r \$0-bp-freq;
#X obj 243 231 r \$0-lp-bw;
#X obj 214 214 r \$0-lp-freq;
#X obj 377 69 unpack f f f f f f f f f;
#X obj 377 26 loadbang;
#X obj 33 170 inlet~;
#X obj 37 453 outlet~;
#X obj 99 220 * 0.01;
#X obj 109 230 * 0.01;
#X obj 119 241 * 0.01;
#X text 553 68 some arbitrary defaults;
#X text 432 341 this is a "EQ". It has the capacity of dividing an
audio stream into 3 filtered signals. Lowpass \, bandpass and highpass.
;
#X obj 690 27 declare -path ../rj;
#X obj 272 33 nbx 5 12 -1e+37 1e+37 0 0 empty empty empty 0 -8 1 10
-262144 -1 -1 0 256;
#X obj 272 62 nbx 5 12 -1e+37 1e+37 0 0 empty empty empty 0 -8 1 10
-262144 -1 -1 0 256;
#X obj 272 76 nbx 5 12 -1e+37 1e+37 0 0 empty empty empty 0 -8 1 10
-262144 -1 -1 0 256;
#X obj 272 102 nbx 5 12 -1e+37 1e+37 0 0 empty empty empty 0 -8 1 10
-262144 -1 -1 0 256;
#X obj 272 116 nbx 5 12 -1e+37 1e+37 0 0 empty empty empty 0 -8 1 10
-262144 -1 -1 0 256;
#X msg 377 47 15955 85.39 30 1376 132.5 30 213.4 69.66 30;
#X connect 0 0 1 0;
#X connect 1 0 31 0;
#X connect 2 0 31 0;
#X connect 3 0 2 0;
#X connect 4 0 31 0;
#X connect 5 0 1 0;
#X connect 10 0 12 0;
#X connect 16 0 2 0;
#X connect 17 0 4 0;
#X connect 18 0 33 0;
#X connect 19 0 34 0;
#X connect 20 0 32 0;
#X connect 21 0 4 0;
#X connect 22 0 21 0;
#X connect 23 0 21 1;
#X connect 24 0 5 1;
#X connect 25 0 5 0;
#X connect 26 0 3 1;
#X connect 27 0 3 0;
#X connect 28 0 10 0;
#X connect 28 1 11 0;
#X connect 28 2 15 0;
#X connect 28 3 8 0;
#X connect 28 4 9 0;
#X connect 28 5 14 0;
#X connect 28 6 6 0;
#X connect 28 7 7 0;
#X connect 28 8 13 0;
#X connect 29 0 43 0;
#X connect 30 0 0 0;
#X connect 30 0 16 0;
#X connect 30 0 17 0;
#X connect 32 0 17 1;
#X connect 33 0 0 1;
#X connect 34 0 16 1;
#X connect 43 0 28 0;
#X coords 0 -1 1 1 160 140 1 170 10;
