#N canvas 8 41 962 508 10;
#X declare -path ../rj;
#X declare -path ../rj;
#X declare -path ../rj;
#X declare -path ../rj;
#X declare -path ../rj;
#X declare -path ../rj;
#X declare -path ../rj;
#X declare -path ../rj;
#X declare -path ../rj;
#X declare -path ../rj;
#X obj 47 286 *~ 0.3;
#X obj 60 333 biquad~;
#X obj 6 333 biquad~;
#X obj 197 250 u_lowpass 1000 100;
#X obj 187 333 biquad~;
#X obj 352 251 u_bandpass1 500 100;
#X obj 179 111 hsl 90 10 0 500 0 0 \$1-lp-freq \$1-g_lp-freq lowpass
50 5 1 10 -262144 -1 -1 5600 1;
#X obj 179 123 hsl 90 10 0 200 0 0 \$1-lp-bw \$1-g_lp-bw bandwidth
40 5 1 10 -262144 -1 -1 5200 1;
#X obj 179 75 hsl 90 10 500 2000 0 0 \$1-bp-freq \$1-g_bp-freq bandpass
50 5 1 10 -262144 -1 -1 4400 1;
#X obj 179 87 hsl 90 10 0 200 0 0 \$1-bp-bw \$1-g_bp-bw bandwidth 40
5 1 10 -262144 -1 -1 7700 1;
#X obj 180 30 hsl 90 15 2000 20000 0 0 \$1-hp-freq \$1-g_hp-freq highpass
30 5 0 12 -262144 -1 -1 6600 1;
#X obj 179 49 hsl 90 10 0 200 0 0 \$1-hp-bw \$1-g_hp-bw bandwidth 40
5 1 10 -262144 -1 -1 2800 1;
#X obj 277 31 nbx 5 12 -1e+37 1e+37 0 0 empty \$1-hp-freq empty 0 -8
1 10 -262144 -1 -1 15348.3 256;
#X obj 179 135 hsl 90 12 0 100 0 0 \$1-lp-gain \$1-g_lp-gain gain 20
4 1 8 -262144 -1 -1 7100 1;
#X obj 179 99 hsl 90 12 0 100 0 0 \$1-bp-gain \$1-g_bp-gain gain 20
4 1 8 -262144 -1 -1 5400 1;
#X obj 179 60 hsl 90 12 0 100 0 0 \$1-hp-gain \$1-g_hp-gain gain 20
4 1 8 -262144 -1 -1 6300 1;
#X obj 2 286 *~ 0.3;
#X obj 90 279 *~ 0.3;
#X obj 483 282 u_highpass 2000 100;
#X obj 33 170 inlet~;
#X obj 37 453 outlet~;
#X obj 99 220 * 0.01;
#X obj 109 230 * 0.01;
#X obj 119 241 * 0.01;
#X text 433 357 this is a "EQ". It has the capacity of dividing an
audio stream into 3 filtered signals. Lowpass \, bandpass and highpass.
;
#X obj 690 27 declare -path ../rj;
#X obj 276 48 nbx 5 12 -1e+37 1e+37 0 0 empty \$1-hp-bw empty 0 -8
1 10 -262144 -1 -1 62.9213 256;
#X obj 274 73 nbx 5 12 -1e+37 1e+37 0 0 empty \$1-bp-freq empty 0 -8
1 10 -262144 -1 -1 1241.57 256;
#X obj 274 87 nbx 5 12 -1e+37 1e+37 0 0 empty \$1-bp-bw empty 0 -8
1 10 -262144 -1 -1 173.034 256;
#X obj 275 108 nbx 5 12 -1e+37 1e+37 0 0 empty \$1-lp-freq empty 0
-8 1 10 -262144 -1 -1 314.607 256;
#X obj 275 122 nbx 5 12 -1e+37 1e+37 0 0 empty \$1-lp-bw empty 0 -8
1 10 -262144 -1 -1 116.854 256;
#X obj 734 63 inlet;
#X text 431 395 Args: unique ID (important for state saving);
#X text 432 413 inlets:;
#X text 469 430 1 - audio signal to be sculpted;
#X text 469 440 2 - control messages;
#X obj 119 157 recEvesdrop \$1 hp-gain;
#X obj 119 177 recEvesdrop \$1 bp-gain;
#X obj 119 197 recEvesdrop \$1 lp-gain;
#X obj 214 214 recEvesdrop \$1 lp-freq;
#X obj 243 231 recEvesdrop \$1 lp-bw;
#X obj 353 209 recEvesdrop \$1 bp-freq;
#X obj 404 229 recEvesdrop \$1 bp-bw;
#X obj 483 259 recEvesdrop \$1 hp-freq;
#X obj 594 239 recEvesdrop \$1 hp-bw;
#X obj 734 85 u_dispatch \$1 g_hp-gain;
#X obj 734 104 u_dispatch \$1 g_bp-gain;
#X obj 734 124 u_dispatch \$1 g_lp-gain;
#X obj 734 144 u_dispatch \$1 g_lp-freq;
#X obj 734 164 u_dispatch \$1 g_bp-freq;
#X obj 734 184 u_dispatch \$1 g_lp-bw;
#X obj 734 204 u_dispatch \$1 g_bp-bw;
#X obj 734 225 u_dispatch \$1 g_hp-bw;
#X obj 734 246 u_dispatch \$1 g_hp-freq;
#X obj 782 64 r /\$1-forward;
#X connect 0 0 1 0;
#X connect 1 0 20 0;
#X connect 2 0 20 0;
#X connect 3 0 2 0;
#X connect 4 0 20 0;
#X connect 5 0 1 0;
#X connect 10 0 12 0;
#X connect 16 0 2 0;
#X connect 17 0 4 0;
#X connect 18 0 4 0;
#X connect 19 0 0 0;
#X connect 19 0 16 0;
#X connect 19 0 17 0;
#X connect 21 0 17 1;
#X connect 22 0 0 1;
#X connect 23 0 16 1;
#X connect 31 0 45 0;
#X connect 36 0 21 0;
#X connect 37 0 22 0;
#X connect 38 0 23 0;
#X connect 39 0 3 0;
#X connect 40 0 3 1;
#X connect 41 0 5 0;
#X connect 42 0 5 1;
#X connect 43 0 18 0;
#X connect 44 0 18 1;
#X connect 45 0 46 0;
#X connect 46 0 47 0;
#X connect 47 0 48 0;
#X connect 48 0 49 0;
#X connect 49 0 50 0;
#X connect 50 0 51 0;
#X connect 51 0 52 0;
#X connect 52 0 53 0;
#X connect 54 0 45 0;
#X coords 0 -1 1 1 160 140 1 170 10;
