#N canvas 8 41 962 508 10;
#X declare -path ../rj;
#X declare -path ../rj;
#X declare -path ../rj;
#X declare -path ../rj;
#X declare -path ../rj;
#X declare -path ../rj;
#X declare -path ../rj;
#X declare -path ../rj;
#X declare -path ../rj;
#X declare -path ../rj;
#X obj 47 286 *~ 0.3;
#X obj 60 333 biquad~;
#X obj 6 333 biquad~;
#X obj 197 250 u_lowpass 1000 100;
#X obj 187 333 biquad~;
#X obj 352 251 u_bandpass1 500 100;
#X obj 2 286 *~ 0.3;
#X obj 90 279 *~ 0.3;
#X obj 483 282 u_highpass 2000 100;
#X obj 33 170 inlet~;
#X obj 37 453 outlet~;
#X obj 99 220 * 0.01;
#X obj 109 230 * 0.01;
#X obj 119 241 * 0.01;
#X text 433 357 this is a "EQ". It has the capacity of dividing an
audio stream into 3 filtered signals. Lowpass \, bandpass and highpass.
;
#X obj 690 27 declare -path ../rj;
#X obj 734 63 inlet;
#X text 431 395 Args: unique ID (important for state saving);
#X text 432 413 inlets:;
#X text 469 430 1 - audio signal to be sculpted;
#X text 469 440 2 - control messages;
#X obj 119 157 recEvesdrop \$1 hp-gain;
#X obj 119 177 recEvesdrop \$1 bp-gain;
#X obj 119 197 recEvesdrop \$1 lp-gain;
#X obj 214 214 recEvesdrop \$1 lp-freq;
#X obj 243 231 recEvesdrop \$1 lp-bw;
#X obj 353 209 recEvesdrop \$1 bp-freq;
#X obj 404 229 recEvesdrop \$1 bp-bw;
#X obj 483 259 recEvesdrop \$1 hp-freq;
#X obj 594 239 recEvesdrop \$1 hp-bw;
#X obj 734 85 u_dispatch \$1 g_hp-gain;
#X obj 734 104 u_dispatch \$1 g_bp-gain;
#X obj 734 124 u_dispatch \$1 g_lp-gain;
#X obj 734 144 u_dispatch \$1 g_lp-freq;
#X obj 734 164 u_dispatch \$1 g_bp-freq;
#X obj 734 184 u_dispatch \$1 g_lp-bw;
#X obj 734 204 u_dispatch \$1 g_bp-bw;
#X obj 734 225 u_dispatch \$1 g_hp-bw;
#X obj 734 246 u_dispatch \$1 g_hp-freq;
#X obj 782 64 r /\$1-forward;
#X obj 364 22 labelNum \$1 hp freq;
#X obj 364 41 labelNum \$1 hp bw;
#X obj 364 61 labelNum \$1 hp gain;
#X obj 364 85 labelNum \$1 bp freq;
#X obj 363 104 labelNum \$1 bp bw;
#X obj 364 123 labelNum \$1 bp gain;
#X obj 494 22 labelNum \$1 lp freq;
#X obj 494 41 labelNum \$1 lp bw;
#X obj 494 61 labelNum \$1 lp gain;
#X obj 171 21 cnv 15 102 45 empty empty empty 20 12 0 14 -233017 -66577
0;
#X obj 178 25 hsl 90 14 2000 20000 0 0 \$1-hp-freq \$1-g_hp-freq freq_10973
0 8 1 11 -262144 -1 -1 0 1;
#X obj 178 41 hsl 90 10 0 200 0 0 \$1-hp-bw \$1-g_hp-bw bw_33 0 5 1
10 -262144 -1 -1 0 1;
#X obj 178 52 hsl 90 12 0 100 0 0 \$1-hp-gain \$1-g_hp-gain gain_30
0 4 1 8 -262144 -1 -1 0 1;
#X obj 171 68 cnv 15 102 39 empty empty empty 20 12 0 14 -233017 -66577
0;
#X obj 171 109 cnv 15 102 40 empty empty empty 20 12 0 14 -233017 -66577
0;
#X obj 179 111 hsl 90 10 0 500 0 0 \$1-lp-freq \$1-g_lp-freq freq_16
0 5 1 10 -262144 -1 -1 0 1;
#X obj 179 123 hsl 90 10 0 200 0 0 \$1-lp-bw \$1-g_lp-bw bw_13 0 5
1 10 -262144 -1 -1 0 1;
#X obj 179 70 hsl 90 10 500 2000 0 0 \$1-bp-freq \$1-g_bp-freq freq_719
0 5 1 10 -262144 -1 -1 0 1;
#X obj 179 82 hsl 90 10 0 200 0 0 \$1-bp-bw \$1-g_bp-bw bw_0 0 5 1
10 -262144 -1 -1 0 1;
#X obj 179 135 hsl 90 12 0 100 0 0 \$1-lp-gain \$1-g_lp-gain gain_13
0 4 1 8 -262144 -1 -1 0 1;
#X obj 179 94 hsl 90 12 0 100 0 0 \$1-bp-gain \$1-g_bp-gain gain_17
0 4 1 8 -262144 -1 -1 0 1;
#X connect 0 0 1 0;
#X connect 1 0 10 0;
#X connect 2 0 10 0;
#X connect 3 0 2 0;
#X connect 4 0 10 0;
#X connect 5 0 1 0;
#X connect 6 0 2 0;
#X connect 7 0 4 0;
#X connect 8 0 4 0;
#X connect 9 0 0 0;
#X connect 9 0 6 0;
#X connect 9 0 7 0;
#X connect 11 0 7 1;
#X connect 12 0 0 1;
#X connect 13 0 6 1;
#X connect 16 0 30 0;
#X connect 21 0 11 0;
#X connect 22 0 12 0;
#X connect 23 0 13 0;
#X connect 24 0 3 0;
#X connect 25 0 3 1;
#X connect 26 0 5 0;
#X connect 27 0 5 1;
#X connect 28 0 8 0;
#X connect 29 0 8 1;
#X connect 30 0 31 0;
#X connect 31 0 32 0;
#X connect 32 0 33 0;
#X connect 33 0 34 0;
#X connect 34 0 35 0;
#X connect 35 0 36 0;
#X connect 36 0 37 0;
#X connect 37 0 38 0;
#X connect 39 0 30 0;
#X coords 0 -1 1 1 104 140 1 170 10;
