#N canvas 325 49 669 633 10;
#X obj 143 353 l2s /;
#X obj 143 375 s2l /;
#X obj 143 397 list split 1;
#X obj 143 516 t b a;
#X obj 147 608 s;
#X msg 143 493 symbol /\$1-forward;
#X obj 271 423 list split 1;
#X obj 271 467 list append;
#X obj 140 551 list;
#X obj 140 573 list trim;
#X msg 271 445 g_\$1;
#X obj 143 423 l2s;
#X obj 143 444 s2l .;
#X obj 143 331 textfile;
#X obj 103 198 route persist;
#X obj 363 209 symbol;
#X text 119 215 dump SSAD data;
#X text 195 356 comment;
#X text 174 427 some addresses;
#X text 183 440 contain a '.';
#X text 228 382 separate the first part of the address (which identifies
the layer) so that we can reuse it to build appropriate send message
;
#X text 353 419 isolate the controler address;
#X text 352 445 prepare the right control's gui address;
#X text 207 550 piece it back togeter;
#X text 206 571 remove the 'list' selector form the list;
#X text 200 607 name the destination and send the message (to the message
dispatcher);
#X text 224 509 send to the layer's message forwarder (message dispatcher)
;
#X obj 103 176 r SSSAD_ADMIN;
#X obj 251 203 symbol;
#X msg 251 227 write \$1;
#X obj 336 164 t a b a;
#X obj 101 86 bng 15 250 50 0 empty empty SAVE 17 7 0 10 -262144 -1
-1;
#X obj 100 67 hradio 15 1 0 8 empty empty empty 0 -8 0 10 -262144 -1
-1 0;
#X obj 103 230 list prepend add;
#X obj 103 252 list trim;
#X msg 390 258 read \$1 \, rewind;
#X msg 45 254 print;
#X msg 44 285 rewind;
#X msg 335 118 symbol testpreset\$1;
#X obj 336 142 makefilename ../data/%s.txt;
#X obj 363 231 t b a;
#X msg 363 253 100;
#X obj 362 275 until;
#X msg 241 152 save;
#X obj 241 171 s SSSAD_ADMIN;
#X obj 29 546 list append;
#X obj 29 566 list trim;
#X obj 29 588 print DBG_STATE;
#X obj 214 121 t b b b;
#X msg 299 134 clear;
#X connect 0 0 1 0;
#X connect 1 0 2 0;
#X connect 2 0 11 0;
#X connect 2 1 6 0;
#X connect 3 0 8 0;
#X connect 3 1 4 1;
#X connect 3 1 45 1;
#X connect 5 0 3 0;
#X connect 6 0 10 0;
#X connect 6 1 7 1;
#X connect 7 0 8 1;
#X connect 8 0 9 0;
#X connect 9 0 4 0;
#X connect 9 0 45 0;
#X connect 10 0 7 0;
#X connect 11 0 12 0;
#X connect 12 0 5 0;
#X connect 13 0 0 0;
#X connect 13 1 42 1;
#X connect 14 0 33 0;
#X connect 15 0 40 0;
#X connect 27 0 14 0;
#X connect 28 0 29 0;
#X connect 29 0 13 0;
#X connect 30 0 28 1;
#X connect 30 1 15 0;
#X connect 30 2 15 1;
#X connect 31 0 48 0;
#X connect 32 0 38 0;
#X connect 33 0 34 0;
#X connect 34 0 13 0;
#X connect 35 0 13 0;
#X connect 36 0 13 0;
#X connect 37 0 13 0;
#X connect 38 0 39 0;
#X connect 39 0 30 0;
#X connect 40 0 41 0;
#X connect 40 1 35 0;
#X connect 41 0 42 0;
#X connect 42 0 13 0;
#X connect 43 0 44 0;
#X connect 45 0 46 0;
#X connect 46 0 47 0;
#X connect 48 0 28 0;
#X connect 48 1 43 0;
#X connect 48 2 49 0;
#X connect 49 0 13 0;
#X coords 0 -1 1 1 121 60 1 100 50;
