#N canvas 1034 450 450 300 10;
#X text 174 15 Arguments: \$1: oktaN;
#X obj 59 88 inlet;
#X obj 59 182 outlet;
#X obj 59 160 pack f s;
#X obj 104 111 loadbang;
#X obj 104 133 symbol \$1;
#X connect 1 0 3 0;
#X connect 3 0 2 0;
#X connect 4 0 5 0;
#X connect 5 0 3 1;
