#N canvas 1023 373 548 375 10;
#X obj 37 324 outlet;
#X obj 37 25 inlet;
#X obj 37 280 list append;
#X obj 37 302 list trim;
#X text 111 275 pass entering data without change and append 3 generated
random numbers;
#X obj 64 81 f \$1;
#X obj 122 80 f \$2;
#X obj 64 103 t f f f;
#X obj 64 254 pack f f f;
#X obj 37 47 t a b b;
#X text 231 20 arguments: x1 \, x2 - (int) range for a random number
;
#X obj 64 231 * 0.01;
#X text 323 35 the random number will be value/100;
#X obj 107 231 * 0.01;
#X obj 150 231 * 0.01;
#X obj 64 128 expr random($f1 \, $f2) - ($f1+$f2)/2;
#X obj 107 148 expr random($f1 \, $f2) - ($f1+$f2)/2;
#X obj 150 168 expr random($f1 \, $f2) - ($f1+$f2)/2;
#X connect 1 0 9 0;
#X connect 2 0 3 0;
#X connect 3 0 0 0;
#X connect 5 0 7 0;
#X connect 6 0 15 1;
#X connect 6 0 16 1;
#X connect 6 0 17 1;
#X connect 7 0 15 0;
#X connect 7 1 16 0;
#X connect 7 2 17 0;
#X connect 8 0 2 1;
#X connect 9 0 2 0;
#X connect 9 1 5 0;
#X connect 9 2 6 0;
#X connect 11 0 8 0;
#X connect 13 0 8 1;
#X connect 14 0 8 2;
#X connect 15 0 11 0;
#X connect 16 0 13 0;
#X connect 17 0 14 0;
