#N canvas 447 350 450 300 10;
#X declare -path ../rj;
#X obj 119 26 r \$1-\$2;
#X obj 289 13 declare -path ../rj;
#X obj 119 48 t a a;
#X obj 146 70 outlet;
#X obj 44 71 u_sssad \$1/\$2;
#X connect 0 0 2 0;
#X connect 2 0 4 1;
#X connect 2 1 3 0;
