#N canvas 660 535 432 463 10;
#X declare -path abs;
#X declare -path rj;
#X obj 6 30 widget-spinConnect \$0;
#X obj 592 -13 widget-nodeEditor \$0;
#X obj 6 -29 loadbang;
#X obj 719 569 nbx 5 14 -1e+37 1e+37 0 0 empty count_media num_of_soundfiles
0 -8 0 10 -4034 -1 -1 50 256;
#X obj 18 108 s __init;
#X obj 376 -15 declare -path abs;
#X obj 376 4 declare -path rj;
#X obj 999 613 cnv 15 160 155 empty empty SoundNodes_initializers 20
12 0 10 -233017 -66577 0;
#X obj 1018 680 bng 15 250 50 0 empty __init empty 17 7 0 10 -262144
-1 -1;
#N canvas 840 176 1009 665 audio_ctl+spin 0;
#X msg 57 67 createNode listener0 Listener;
#X obj 550 131 playlist all 400 300 {Helvetica 10 bold} #457782 yellow
black red;
#X obj 550 40 thisdir;
#X obj 550 62 makefilename %s/snd;
#X obj 552 20 bng 15 250 50 0 empty empty empty 17 7 0 10 -262144 -1
-1;
#X msg 550 84 location \$1;
#X obj 112 112 until;
#X obj 112 200 t a f;
#X obj 112 414 pack f s;
#X obj 276 542 print;
#X obj 550 435 print playlist;
#X msg 381 181 seek \$1;
#X obj 262 12 inlet;
#X obj 262 34 t b b b;
#X msg 233 294 createNode snd\$1 SoundNode;
#X obj 221 203 sel 1;
#X obj 112 178 t f b;
#X obj 269 267 bng 15 250 50 0 empty empty empty 17 7 0 10 -262144
-1 -1;
#X floatatom 411 130 5 0 0 0 - - -;
#X obj 322 152 random 14;
#X obj 235 13 bng 15 250 50 0 empty empty empty 17 7 0 10 -262144 -1
-1;
#X obj 372 110 r count_media;
#X msg 176 97 0;
#X obj 108 240 t a a;
#X msg 450 497 createNode constrained\$1 ConstraintsNode \, /constrained\$1
setTarget box \, /constrained\$1 setConstraintMode 3 \, /constrained\$1
setComputationMode 1 \,;
#X msg 162 369 /snd\$1 setParent constrained\$1 \, /snd\$1 setTranslation
0 0 0;
#X obj 108 282 t a a;
#X msg 314 608 createNode sin SoundNode \, /sin setDirectivityFlag
1 \, /sin setParam setMediaURI plugin://SimpleSin \, /sin setParam
play 1;
#X msg 112 446 /snd\$1 setDirectivityFlag 1 \, /snd\$1 setParam setMediaURI
file://\$2 \, /snd\$1 setParam loop 0 \, /snd\$1 setParam play 1;
#X obj 57 496 s \$0-to-SPIN;
#X obj 233 317 s \$0-to-SPIN;
#X obj 450 546 s \$0-to-SPIN;
#X obj 162 391 s \$0-to-SPIN;
#X obj 112 135 counter 8;
#X msg 112 91 8;
#X connect 0 0 29 0;
#X connect 1 0 10 0;
#X connect 1 0 8 1;
#X connect 2 0 3 0;
#X connect 3 0 5 0;
#X connect 4 0 2 0;
#X connect 5 0 1 0;
#X connect 6 0 33 0;
#X connect 7 0 23 0;
#X connect 7 1 14 0;
#X connect 8 0 28 0;
#X connect 11 0 1 0;
#X connect 12 0 13 0;
#X connect 13 0 34 0;
#X connect 13 1 0 0;
#X connect 13 2 4 0;
#X connect 13 2 22 0;
#X connect 14 0 30 0;
#X connect 15 0 17 0;
#X connect 16 0 7 0;
#X connect 16 1 19 0;
#X connect 18 0 11 0;
#X connect 19 0 11 0;
#X connect 20 0 13 0;
#X connect 21 0 19 1;
#X connect 22 0 33 2;
#X connect 23 0 26 0;
#X connect 23 1 24 0;
#X connect 24 0 31 0;
#X connect 25 0 32 0;
#X connect 26 0 8 0;
#X connect 26 1 25 0;
#X connect 27 0 29 0;
#X connect 28 0 9 0;
#X connect 28 0 29 0;
#X connect 33 0 16 0;
#X connect 33 2 15 0;
#X connect 34 0 6 0;
#X restore 1035 680 pd audio_ctl+spin;
#X obj 1018 652 del 2000;
#X obj 1018 631 r __init;
#X obj 1000 507 cnv 15 160 100 empty empty SoundNodes_controllers 20
12 0 10 -233017 -66577 0;
#N canvas 670 547 738 487 instrument_controls 0;
#X obj 109 -2 sel 0 1 2 3 4;
#X floatatom 96 195 5 0 0 0 - - -;
#X obj 97 151 r cluster;
#X obj 161 148 bng 15 250 50 0 empty manual_trig empty 17 7 0 10 -262144
-1 -1;
#X obj 96 217 s ml_ctrl;
#X obj 186 197 sel 0 1 2 3 4;
#X obj 306 306 pack 0 0;
#X obj 306 225 bng 15 250 50 0 empty empty empty 17 7 0 10 -262144
-1 -1;
#X obj 306 245 t b b;
#X obj 351 287 expr random(1 \, 11)*0.1;
#X obj 410 346 prepend set;
#X msg 306 326 /snd\$1 setParam speed \$2 \, /snd\$1 setParam play
1;
#X obj 96 171 expr random(0 \, 5);
#X floatatom 272 170 5 0 0 0 - - -;
#X obj 31 238 s blitTrig;
#X msg 30 217 0;
#X obj 306 267 expr random(25 \, 30);
#X obj 185 220 monitor_and_delay;
#X obj 186 240 monitor_and_delay;
#X obj 185 260 monitor_and_delay;
#X obj 185 280 monitor_and_delay;
#X obj 185 299 monitor_and_delay;
#X obj 86 18 bng 15 250 50 0 empty empty empty 17 7 0 10 -262144 -1
-1;
#X obj 86 38 bng 15 250 50 0 empty empty empty 17 7 0 10 -262144 -1
-1;
#X obj 85 58 bng 15 250 50 0 empty empty empty 17 7 0 10 -262144 -1
-1;
#X obj 87 79 bng 15 250 50 0 empty empty empty 17 7 0 10 -262144 -1
-1;
#X obj 87 100 bng 15 250 50 0 empty empty empty 17 7 0 10 -262144 -1
-1;
#X msg 410 368 /snd25 setParam play 1;
#X obj 306 353 s \$0-to-SPIN;
#X obj 108 78 sfplayer_control \$0 3;
#X obj 108 38 sfplayer_control \$0 1;
#X obj 109 18 sfplayer_control \$0 0;
#X obj 107 100 sfplayer_control \$0 4;
#X obj 106 57 sfplayer_control \$0 2;
#X connect 0 0 31 0;
#X connect 0 1 30 0;
#X connect 0 2 33 0;
#X connect 0 3 29 0;
#X connect 0 4 32 0;
#X connect 1 0 4 0;
#X connect 2 0 12 0;
#X connect 2 0 15 0;
#X connect 3 0 12 0;
#X connect 5 0 17 0;
#X connect 5 1 7 0;
#X connect 5 1 18 0;
#X connect 5 2 19 0;
#X connect 5 3 7 0;
#X connect 5 3 20 0;
#X connect 5 4 21 0;
#X connect 6 0 11 0;
#X connect 7 0 8 0;
#X connect 8 0 16 0;
#X connect 8 1 9 0;
#X connect 9 0 6 1;
#X connect 10 0 27 0;
#X connect 11 0 10 0;
#X connect 11 0 28 0;
#X connect 12 0 1 0;
#X connect 12 0 5 0;
#X connect 12 0 13 0;
#X connect 15 0 14 0;
#X connect 16 0 6 0;
#X connect 22 0 31 0;
#X connect 23 0 30 0;
#X connect 24 0 33 0;
#X connect 25 0 29 0;
#X connect 26 0 32 0;
#X connect 27 0 28 0;
#X restore 1010 575 pd instrument_controls;
#N canvas 499 594 765 429 base_conf 0;
#X obj 34 207 shell;
#X obj 34 148 bng 15 250 50 0 empty __init init_media_count 17 7 0
10 -262144 -1 -1;
#X obj 34 167 thisdir;
#X msg 34 187 ls -l \$1/snd | wc -l;
#X obj 161 233 s count_media;
#X msg 50 69 createNode box ShapeNode;
#X obj 25 19 r __init;
#X obj 25 41 t b b;
#X text 111 27 create the box that contains the sound nodes;
#N canvas 676 443 981 531 setCamerViewOnLuoda 0;
#X obj 78 144 bng 15 250 50 0 empty empty empty 17 7 0 10 -262144 -1
-1;
#X text 97 139 set view for this example;
#X obj 95 290 spin.toCamera \$0;
#X msg 80 319 createNode grid GridNode;
#X obj 69 84 inlet;
#X obj 85 108 t b b;
#X obj 547 24 subwidget-ViewCtl \$0;
#X obj 297 100 r side_view;
#X obj 306 123 r top_view;
#X msg 140 204 setTranslation -0.7 0.15 55 \, setOrientation -90 0
0;
#X msg 122 170 setTranslation -31.9 -27.99 -18.649 \, setOrientation
-385 -178 -46;
#X obj 400 73 hostname;
#X obj 395 47 bng 15 250 50 0 empty empty empty 17 7 0 10 -262144 -1
-1;
#X obj 405 104 prepend set;
#X msg 405 126 luoda;
#X obj 420 44 loadbang;
#X obj 80 339 s \$0-to-SPIN;
#X connect 0 0 9 0;
#X connect 3 0 16 0;
#X connect 4 0 5 0;
#X connect 5 0 0 0;
#X connect 5 1 14 0;
#X connect 7 0 10 0;
#X connect 8 0 9 0;
#X connect 9 0 2 0;
#X connect 10 0 2 0;
#X connect 11 0 13 0;
#X connect 12 0 11 0;
#X connect 13 0 14 0;
#X connect 14 0 2 1;
#X connect 15 0 11 0;
#X restore 203 133 pd setCamerViewOnLuoda;
#X obj 186 134 bng 15 250 50 0 empty __init empty 17 7 0 10 -262144
-1 -1;
#X msg 161 212 50;
#X obj 26 114 s \$0-to-SPIN;
#X msg 27 85 /box setScale 25 25 20 \, /box setColor 0.58 0.66 0.79
0.3 \, /box setRenderBin 200;
#X connect 1 0 2 0;
#X connect 1 0 11 0;
#X connect 2 0 3 0;
#X connect 3 0 0 0;
#X connect 5 0 12 0;
#X connect 6 0 7 0;
#X connect 7 0 13 0;
#X connect 7 1 5 0;
#X connect 10 0 9 0;
#X connect 11 0 4 0;
#X connect 13 0 12 0;
#X restore 257 77 pd base_conf;
#X symbolatom 592 -32 10 0 0 0 - - -;
#X obj 709 239 cnv 15 280 255 empty empty Show_control 20 12 0 10 -233017
-66577 0;
#N canvas 1162 121 714 629 physics 0;
#X obj 264 104 until;
#N canvas 571 157 450 300 velocities 0;
#X obj 124 53 inlet;
#X obj 124 75 t a b b b;
#X obj 140 99 random 10;
#X obj 140 121 - 5;
#X obj 140 143 * 0.1;
#X obj 207 100 random 10;
#X obj 207 122 - 5;
#X obj 207 144 * 0.1;
#X obj 272 99 random 10;
#X obj 272 121 - 5;
#X obj 272 143 * 0.1;
#X obj 125 181 pack f f f f;
#X obj 125 203 outlet;
#X floatatom 225 20 5 0 0 0 - - -;
#X obj 225 41 / 2;
#X connect 0 0 1 0;
#X connect 1 0 11 0;
#X connect 1 1 2 0;
#X connect 1 2 5 0;
#X connect 1 3 8 0;
#X connect 2 0 3 0;
#X connect 3 0 4 0;
#X connect 4 0 11 1;
#X connect 5 0 6 0;
#X connect 6 0 7 0;
#X connect 7 0 11 2;
#X connect 8 0 9 0;
#X connect 9 0 10 0;
#X connect 10 0 11 3;
#X connect 11 0 12 0;
#X connect 13 0 14 0;
#X connect 13 0 2 1;
#X connect 13 0 5 1;
#X connect 13 0 8 1;
#X connect 14 0 3 1;
#X connect 14 0 6 1;
#X connect 14 0 9 1;
#X restore 264 148 pd velocities;
#X msg 124 142 /ml* setParam play 1;
#X obj 302 56 r ml_ctrl;
#X msg 133 166 /gr* setParam play 1;
#X msg 430 33 0 0 0 0;
#X msg 437 56 0 1 0 0;
#X msg 436 80 0 -1 0 0;
#X msg 436 104 0 0 1 0;
#X msg 434 125 0 0 -1 0;
#X msg -6 206 /constrained0 setVelocity 1 0.7 0;
#X msg -44 100 /snd0 setParam play 1 \, /snd0 setParam loop 1 \, /snd0
setParam mul 5;
#X msg 292 226 /constrained* setVelocity \$2 \$3 0;
#X msg 435 147 0 0.5 -1 0;
#X msg -47 238 /snd* setParam play 1 \, /snd* setParam loop 1 \, /snd*
setParam mul 5;
#X msg 264 82 15;
#X obj 264 126 counter 0 15;
#X msg 264 168 /constrained\$1 setVelocity \$2 \$3 0;
#X obj 263 9 r tick;
#X obj 263 31 % 20;
#X obj 263 53 sel 0;
#X msg 293 249 /constrained* translateTo -10 -10 0 3 LinearMotion;
#X msg 26 508 /constrained* translateTo \$2 \$3 0 \$4 LinearMotion
;
#X obj 26 470 bng 15 250 50 0 empty empty empty 17 7 0 10 -262144 -1
-1;
#N canvas 571 147 450 300 linearTranslations 0;
#X obj 124 53 inlet;
#X obj 140 99 random 10;
#X obj 140 121 - 5;
#X obj 207 100 random 10;
#X obj 207 122 - 5;
#X obj 125 181 pack f f f f;
#X obj 125 203 outlet;
#X floatatom 225 20 5 0 0 0 - - -;
#X obj 225 41 / 2;
#X obj 124 75 t b b b b;
#X obj 272 99 random 3;
#X obj 271 120 + 0.5;
#X connect 0 0 9 0;
#X connect 1 0 2 0;
#X connect 2 0 5 1;
#X connect 3 0 4 0;
#X connect 4 0 5 2;
#X connect 5 0 6 0;
#X connect 7 0 8 0;
#X connect 7 0 1 1;
#X connect 7 0 3 1;
#X connect 7 0 10 1;
#X connect 8 0 2 1;
#X connect 8 0 4 1;
#X connect 8 0 11 1;
#X connect 9 0 5 0;
#X connect 9 1 1 0;
#X connect 9 2 3 0;
#X connect 9 3 10 0;
#X connect 10 0 11 0;
#X connect 11 0 5 3;
#X restore 26 489 pd linearTranslations;
#X obj 123 311 r Trigger1;
#X obj 193 311 r Trigger2;
#X obj 263 311 r Trigger3;
#X obj 333 311 r Trigger4;
#X obj 403 311 r Trigger5;
#X obj 26 529 s \$0-to-SPIN;
#X obj 264 189 s \$0-to-SPIN;
#X msg 297 267 /constrained* translateTo 0 0 0 3 LinearMotion;
#X msg 337 394 /constrained* translateTo 7 9 0 5 LinearMotion;
#X msg 339 451 /constrained* translateTo 7 -9 0 5 LinearMotion;
#X msg 342 479 /constrained* translateTo -7 -9 0 5 LinearMotion;
#X msg 340 422 /constrained* translateTo -7 9 0 5 LinearMotion;
#X connect 0 0 16 0;
#X connect 1 0 17 0;
#X connect 2 0 31 0;
#X connect 3 0 15 0;
#X connect 4 0 31 0;
#X connect 5 0 12 0;
#X connect 6 0 12 0;
#X connect 7 0 12 0;
#X connect 8 0 12 0;
#X connect 9 0 12 0;
#X connect 10 0 31 0;
#X connect 11 0 31 0;
#X connect 12 0 31 0;
#X connect 13 0 12 0;
#X connect 14 0 31 0;
#X connect 15 0 0 0;
#X connect 16 0 1 0;
#X connect 17 0 31 0;
#X connect 18 0 19 0;
#X connect 19 0 20 0;
#X connect 20 0 15 0;
#X connect 21 0 31 0;
#X connect 22 0 30 0;
#X connect 23 0 24 0;
#X connect 24 0 22 0;
#X connect 25 0 23 0;
#X connect 26 0 23 0;
#X connect 27 0 23 0;
#X connect 28 0 23 0;
#X connect 29 0 23 0;
#X connect 32 0 31 0;
#X connect 33 0 30 0;
#X connect 34 0 30 0;
#X connect 35 0 30 0;
#X connect 36 0 30 0;
#X restore 1078 182 pd physics;
#X obj 1000 352 cnv 15 160 150 empty empty Visualization 20 12 0 10
-233017 -66577 0;
#N canvas 469 509 1427 472 speakers 0;
#X obj 51 16 inlet;
#X obj 51 117 until;
#X obj 51 139 f;
#X obj 79 138 + 1;
#X obj 51 45 t b b;
#X msg 99 94 0;
#X obj 33 404 s \$0-to-SPIN;
#X obj 92 18 bng 15 250 50 0 empty empty empty 17 7 0 10 -262144 -1
-1;
#X msg 51 95 6;
#X msg 50 183 4;
#X obj 50 205 t a b;
#X obj 50 227 until;
#X obj 50 249 f;
#X obj 75 249 + 1;
#X obj 50 161 t b a;
#X obj 50 271 pack f f;
#X obj 50 293 t a a;
#N canvas 258 577 637 366 coords 0;
#X obj 73 40 inlet;
#X obj 73 62 unpack;
#X obj 74 171 f;
#X obj 101 126 sel 0;
#X obj 73 84 mod 4;
#X obj 74 106 t b f;
#X obj 227 84 mod 6;
#X obj 227 106 sel 0 1 2 3 4 5;
#X obj 228 195 f;
#X obj 113 215 pack;
#X obj 113 237 outlet;
#X obj 102 171 + 4;
#X msg 213 136 10;
#X msg 244 136 6;
#X msg 277 137 2;
#X msg 313 137 -2;
#X msg 347 139 -6;
#X msg 383 136 -10;
#X msg 101 148 -6;
#X connect 0 0 1 0;
#X connect 1 0 4 0;
#X connect 1 1 6 0;
#X connect 2 0 9 0;
#X connect 2 0 11 0;
#X connect 3 0 18 0;
#X connect 4 0 5 0;
#X connect 5 0 2 0;
#X connect 5 1 3 0;
#X connect 6 0 7 0;
#X connect 7 0 12 0;
#X connect 7 1 13 0;
#X connect 7 2 14 0;
#X connect 7 3 15 0;
#X connect 7 4 16 0;
#X connect 7 5 17 0;
#X connect 8 0 9 1;
#X connect 9 0 10 0;
#X connect 11 0 2 1;
#X connect 12 0 8 0;
#X connect 13 0 8 0;
#X connect 14 0 8 0;
#X connect 15 0 8 0;
#X connect 16 0 8 0;
#X connect 17 0 8 0;
#X connect 18 0 2 1;
#X restore 77 317 pd coords;
#X obj 50 340 list append;
#X msg 50 315 \$1;
#X msg 33 367 createNode speaker\$1 ShapeNode \, /speaker\$1 setTranslation
\$2 \$3 0;
#X obj 136 337 print;
#X msg 720 61 createNode speakerC1 ShapeNode \, /speakerC1 setTranslation
-12.5 2.5 0;
#X msg 720 91 createNode speakerC2 ShapeNode \, /speakerC2 setTranslation
-7.5 2.5 0;
#X msg 722 121 createNode speakerC3 ShapeNode \, /speakerC3 setTranslation
-2.5 2.5 0;
#X msg 721 152 createNode speakerC4 ShapeNode \, /speakerC4 setTranslation
2.5 2.5 0;
#X msg 721 182 createNode speakerC5 ShapeNode \, /speakerC5 setTranslation
7.5 2.5 0;
#X obj 319 314 s \$0-to-SPIN;
#X obj 707 251 s \$0-to-SPIN;
#X obj 1097 251 s \$0-to-SPIN;
#X msg 1109 61 createNode speakerD1 ShapeNode \, /speakerD1 setTranslation
-12.5 -2.5 0;
#X msg 1110 91 createNode speakerD2 ShapeNode \, /speakerD2 setTranslation
-7.5 -2.5 0;
#X msg 1112 121 createNode speakerD3 ShapeNode \, /speakerD3 setTranslation
-2.5 -2.5 0;
#X msg 1111 152 createNode speakerD4 ShapeNode \, /speakerD4 setTranslation
2.5 -2.5 0;
#X msg 1111 182 createNode speakerD5 ShapeNode \, /speakerD5 setTranslation
7.5 -2.5 0;
#X msg 341 168 createNode speakerB1 ShapeNode \, /speakerB1 setTranslation
-10 7.5 0;
#X msg 340 203 createNode speakerB2 ShapeNode \, /speakerB2 setTranslation
-5 7.5 0;
#X msg 339 238 createNode speakerB3 ShapeNode \, /speakerB3 setTranslation
0 7.5 0;
#X msg 340 273 createNode speakerB4 ShapeNode \, /speakerB4 setTranslation
5 7.5 0;
#X msg 341 95 createNode speakerA2 ShapeNode \, /speakerA2 setTranslation
2.5 12.5 0;
#X msg 341 128 createNode speakerA3 ShapeNode \, /speakerA3 setTranslation
7.5 12.5 0;
#X obj 695 448 s \$0-to-SPIN;
#X msg 709 321 createNode speakerE1 ShapeNode \, /speakerE1 setTranslation
-12.5 -7.5 0;
#X msg 710 350 createNode speakerE2 ShapeNode \, /speakerE2 setTranslation
-7.5 -7.5 0;
#X msg 711 381 createNode speakerE3 ShapeNode \, /speakerE3 setTranslation
-2.5 -7.5 0;
#X msg 711 412 createNode speakerE4 ShapeNode \, /speakerE4 setTranslation
2.5 -7.5 0;
#X obj 1079 384 s \$0-to-SPIN;
#X msg 1089 311 createNode speakerF1 ShapeNode \, /speakerF1 setTranslation
-12.5 -12.5 0;
#X msg 1090 340 createNode speakerF2 ShapeNode \, /speakerF2 setTranslation
-7.5 -12.5 0;
#X obj 1090 28 r \$0-speakers;
#X obj 712 38 r \$0-speakers;
#X obj 330 36 r \$0-speakers;
#X obj 77 66 s \$0-speakers;
#X obj 706 296 r \$0-speakers;
#X obj 1079 288 r \$0-speakers;
#X msg 341 61 createNode speakerA1 ShapeNode \, /speakerA1 setTranslation
-2.5 12.5 0;
#X msg 721 212 createNode speakerC6 ShapeNode \, /speakerC6 setTranslation
12.5 2.5 0;
#X text 459 5 place virtual speakers;
#X connect 0 0 4 0;
#X connect 1 0 2 0;
#X connect 2 0 3 0;
#X connect 2 0 14 0;
#X connect 3 0 2 1;
#X connect 4 1 52 0;
#X connect 5 0 2 1;
#X connect 5 0 12 1;
#X connect 7 0 4 0;
#X connect 8 0 1 0;
#X connect 9 0 10 0;
#X connect 10 0 11 0;
#X connect 11 0 12 0;
#X connect 12 0 13 0;
#X connect 12 0 15 0;
#X connect 13 0 12 1;
#X connect 14 0 9 0;
#X connect 14 1 15 1;
#X connect 15 0 16 0;
#X connect 16 0 19 0;
#X connect 16 1 17 0;
#X connect 17 0 18 1;
#X connect 17 0 21 0;
#X connect 19 0 18 0;
#X connect 20 0 6 0;
#X connect 22 0 28 0;
#X connect 23 0 28 0;
#X connect 24 0 28 0;
#X connect 25 0 28 0;
#X connect 26 0 28 0;
#X connect 30 0 29 0;
#X connect 31 0 29 0;
#X connect 32 0 29 0;
#X connect 33 0 29 0;
#X connect 34 0 29 0;
#X connect 35 0 27 0;
#X connect 36 0 27 0;
#X connect 37 0 27 0;
#X connect 38 0 27 0;
#X connect 39 0 27 0;
#X connect 40 0 27 0;
#X connect 42 0 41 0;
#X connect 43 0 41 0;
#X connect 44 0 41 0;
#X connect 45 0 41 0;
#X connect 47 0 46 0;
#X connect 48 0 46 0;
#X connect 49 0 30 0;
#X connect 49 0 31 0;
#X connect 49 0 32 0;
#X connect 49 0 33 0;
#X connect 49 0 34 0;
#X connect 50 0 22 0;
#X connect 50 0 23 0;
#X connect 50 0 24 0;
#X connect 50 0 25 0;
#X connect 50 0 26 0;
#X connect 50 0 56 0;
#X connect 51 0 55 0;
#X connect 51 0 39 0;
#X connect 51 0 40 0;
#X connect 51 0 35 0;
#X connect 51 0 36 0;
#X connect 51 0 37 0;
#X connect 51 0 38 0;
#X connect 53 0 42 0;
#X connect 53 0 43 0;
#X connect 53 0 44 0;
#X connect 53 0 45 0;
#X connect 54 0 47 0;
#X connect 54 0 48 0;
#X connect 55 0 27 0;
#X connect 56 0 28 0;
#X restore 1024 376 pd speakers;
#X obj 1008 376 bng 15 250 50 0 empty __init empty 17 7 0 10 -262144
-1 -1;
#X obj 105 81 bng 15 250 50 0 empty empty INIT 17 7 0 10 -260097 -258113
-258113;
#X obj 6 131 cnv 15 345 280 empty empty Snd_list 20 12 0 10 -233017
-66577 0;
#X obj 1079 235 bng 15 250 50 0 manual_trig empty trigger_random 17
7 0 10 -262144 -1 -1;
#N canvas 569 207 450 300 reporters 0;
#X obj -170 16 LEDfromReporter \$0 0;
#X obj -170 35 LEDfromReporter \$0 1;
#X obj -170 56 LEDfromReporter \$0 2;
#X obj -171 76 LEDfromReporter \$0 3;
#X obj -170 96 LEDfromReporter \$0 4;
#X obj -170 117 LEDfromReporter \$0 5;
#X obj -40 35 LEDfromReporter \$0 7;
#X obj -40 56 LEDfromReporter \$0 8;
#X obj -41 76 LEDfromReporter \$0 9;
#X obj -40 96 LEDfromReporter \$0 10;
#X obj -39 117 LEDfromReporter \$0 11;
#X obj 90 35 LEDfromReporter \$0 13;
#X obj 90 56 LEDfromReporter \$0 14;
#X obj 89 76 LEDfromReporter \$0 15;
#X obj 90 96 LEDfromReporter \$0 16;
#X obj 90 117 LEDfromReporter \$0 17;
#X obj -166 161 LEDfromReporter \$0 19;
#X obj -166 182 LEDfromReporter \$0 20;
#X obj -168 203 LEDfromReporter \$0 21;
#X obj -166 222 LEDfromReporter \$0 22;
#X obj -166 243 LEDfromReporter \$0 23;
#X obj -36 161 LEDfromReporter \$0 25;
#X restore 1078 207 pd reporters;
#X msg 6 10 okta;
#X obj 1076 142 r toSpin;
#N canvas 381 100 1009 665 single_loop 0;
#X msg 57 67 createNode listener0 Listener;
#X obj 550 131 playlist all 400 300 {Helvetica 10 bold} #457782 yellow
black red;
#X obj 550 40 thisdir;
#X obj 550 62 makefilename %s/snd;
#X obj 552 20 bng 15 250 50 0 empty empty empty 17 7 0 10 -262144 -1
-1;
#X msg 550 84 location \$1;
#X obj 233 317 s \$0-to-SPIN-TCP;
#X obj 112 200 t a f;
#X obj 112 414 pack f s;
#X obj 276 542 print;
#X obj 550 435 print playlist;
#X msg 381 181 seek \$1;
#X obj 262 12 inlet;
#X obj 262 34 t b b b;
#X msg 233 294 createNode snd\$1 SoundNode;
#X obj 112 178 t f b;
#X floatatom 411 130 5 0 0 0 - - -;
#X obj 322 152 random 14;
#X obj 235 13 bng 15 250 50 0 empty empty empty 17 7 0 10 -262144 -1
-1;
#X obj 372 110 r count_media;
#X msg 176 97 0;
#X obj 108 240 t a a;
#X obj 108 282 t a a;
#X msg 112 445 /snd\$1 setDirectivityFlag 1 \, /snd\$1 setParam setMediaURI
file://\$2 \, /snd\$1 setParam play 1 \, /snd\$1 setParam loop 1;
#X obj 57 496 s \$0-to-SPIN;
#X connect 0 0 24 0;
#X connect 1 0 10 0;
#X connect 1 0 8 1;
#X connect 2 0 3 0;
#X connect 3 0 5 0;
#X connect 4 0 2 0;
#X connect 5 0 1 0;
#X connect 7 0 21 0;
#X connect 7 1 14 0;
#X connect 8 0 23 0;
#X connect 11 0 1 0;
#X connect 12 0 13 0;
#X connect 13 1 0 0;
#X connect 13 2 4 0;
#X connect 13 2 20 0;
#X connect 14 0 6 0;
#X connect 15 0 7 0;
#X connect 15 1 17 0;
#X connect 16 0 11 0;
#X connect 17 0 11 0;
#X connect 18 0 13 0;
#X connect 19 0 17 1;
#X connect 20 0 15 0;
#X connect 21 0 22 0;
#X connect 22 0 8 0;
#X connect 23 0 9 0;
#X connect 23 0 24 0;
#X restore 1020 717 pd single_loop;
#X obj 1008 404 bng 15 250 50 0 side_view empty side_view 17 7 0 10
-262144 -1 -1;
#X obj 1008 424 bng 15 250 50 0 top_view empty top_view 17 7 0 10 -262144
-1 -1;
#X obj 1021 699 bng 15 250 50 0 empty empty empty 17 7 0 10 -262144
-1 -1;
#N canvas 658 524 1243 542 manual 0;
#X obj 171 69 r \$0-popup;
#X obj 854 136 s \$0-popup;
#X obj 367 147 s \$0-id;
#X obj 1051 86 r \$0-to-nodeList;
#X obj 1103 164 s \$1-nodeType;
#X obj 1036 142 unpack s s;
#X obj 276 49 r \$0-popup-set;
#X obj 105 128 popup 150 20 #e0e0e0 CHOOSE constrained0 constrained1
constrained2 constrained3 constrained4 constrained5 constrained6 constrained7
;
#X obj 854 96 r \$0-from-SPIN;
#X obj 101 417 prepend;
#X obj 248 360 sprintf /%s;
#X obj 104 153 grid grid1 144 0 1 144 0 1 0 0.001 0.001 10 10 216 198
;
#X obj 101 311 expr ($f1*24)-12;
#X obj 205 310 expr ($f1*24)-12;
#X obj 101 379 prepend setTranslation;
#X obj 101 444 s \$0-to-SPIN;
#X obj 102 357 gate 2;
#X obj 347 428 prepend;
#X obj 494 371 sprintf /%s;
#X obj 306 484 s \$0-to-SPIN;
#X obj 347 364 prepend translateTo;
#X obj 625 376 list append;
#X floatatom 252 190 5 0 0 1 time_(sec) - -;
#X obj 622 409 list append LinearMotion;
#X obj 253 154 vradio 15 1 1 2 empty empty empty 0 -8 0 10 -262144
-1 -1 0;
#X obj 287 285 + 1;
#X text 278 152 Manual;
#X obj 398 457 prepend set;
#X msg 398 479 /constrained0 translateTo -1.17387 7.65707 0 LinearMotion
;
#X obj 854 116 popupCtrl-nodeList \$0 ConstraintsNode \$4 \$5 \$6 \$7
\$8;
#X text 275 169 physics;
#X obj 101 331 pack f f 5;
#X floatatom 256 280 5 0 0 0 z - -;
#X connect 0 0 7 0;
#X connect 3 0 29 1;
#X connect 5 1 4 0;
#X connect 6 0 7 1;
#X connect 7 1 2 0;
#X connect 7 1 10 0;
#X connect 7 1 18 0;
#X connect 8 0 29 0;
#X connect 9 0 15 0;
#X connect 10 0 9 1;
#X connect 11 0 12 0;
#X connect 11 1 13 0;
#X connect 12 0 31 0;
#X connect 13 0 31 1;
#X connect 14 0 9 0;
#X connect 16 0 14 0;
#X connect 16 1 20 0;
#X connect 17 0 19 0;
#X connect 17 0 27 0;
#X connect 18 0 17 1;
#X connect 20 0 21 0;
#X connect 21 0 23 0;
#X connect 22 0 21 1;
#X connect 23 0 17 0;
#X connect 24 0 25 0;
#X connect 25 0 16 0;
#X connect 27 0 28 0;
#X connect 29 0 1 0;
#X connect 29 2 5 0;
#X connect 31 0 16 1;
#X connect 32 0 31 2;
#X coords 0 -1 1 1 250 200 1 100 100;
#X restore 926 -61 pd manual control;
#N canvas 234 424 900 573 trigger 0;
#X obj 413 83 thisdir;
#X msg 413 127 location \$1;
#X obj 413 62 loadbang;
#X obj 104 176 vradio 15 1 0 8 \$0-snd \$0-snd-set Trigger 0 -8 0 10
-262144 -1 -1 0;
#X obj 354 111 bng 15 250 50 0 empty empty refresh 17 7 0 10 -262144
-1 -1;
#X obj 415 104 makefilename %s/snd;
#X obj 112 388 r \$0-snd;
#X obj 149 416 r \$0-loop;
#X obj 114 509 s \$0-to-SPIN;
#X obj 102 142 tgl 15 0 \$0-loop empty loop? 17 7 0 10 -262144 -1 -1
0 1;
#X obj 143 148 playlist wav 250 150 {Helvetica 10 bold} #457782 yellow
black red;
#X obj 269 326 s nowPlaying;
#X msg 269 304 label np:\$1;
#X text 119 173 0;
#X text 120 189 1;
#X text 120 206 2;
#X text 120 220 3;
#X text 121 234 4;
#X text 121 248 5;
#X text 121 264 6;
#X text 121 278 7;
#X obj 36 102 r trigger;
#X msg 148 75 seek \$1;
#X obj 194 32 r soundfile;
#X obj 123 448 pack f 0 s;
#X msg 327 382 /snd\$1 setParam path \$3 \, /snd\$1 setParam play 1
\, /snd\$1 setParam loop \$2 \, /snd\$1 setParam mul 4;
#X msg 123 470 /snd\$1 setParam path \$3 \, /snd\$1 setParam play 1
\, /snd\$1 setParam loop \$2 \, /snd\$1 setParam mul 1;
#X text 466 485 <-- mul param is for vlolume scaling. Rolled down to
1;
#X obj 440 215 thisdir;
#X msg 440 259 location \$1;
#X obj 442 236 makefilename %s/snd;
#X obj 438 178 bng 15 250 50 0 empty empty empty 17 7 0 10 -262144
-1 -1;
#X msg 657 28 3 okta1;
#X obj 657 50 unpack f s;
#X obj 714 74 t b s;
#X obj 714 105 thisdir;
#X msg 715 193 location \$1;
#X obj 716 126 makefilename %s/snd;
#X obj 716 146 sprintf %s/%s;
#X obj 716 168 symbol;
#X msg 659 221 seek \$1;
#X obj 148 312 t b a a;
#X obj 185 337 s toSoundfiler;
#X msg 670 332 /constrained* setVelocity 0 0 0;
#X obj 670 264 r sndFileLength_ms;
#X obj 670 286 t b f;
#X obj 670 308 del;
#X obj 670 354 s \$0-to-SPIN;
#X text 670 245 stop movement after sound playback;
#X obj 229 380 print sndfile-->;
#X connect 0 0 5 0;
#X connect 1 0 10 0;
#X connect 2 0 0 0;
#X connect 4 0 0 0;
#X connect 5 0 1 0;
#X connect 6 0 24 0;
#X connect 7 0 24 1;
#X connect 10 0 41 0;
#X connect 10 1 12 0;
#X connect 10 1 49 0;
#X connect 12 0 11 0;
#X connect 21 0 3 0;
#X connect 22 0 10 0;
#X connect 23 0 33 0;
#X connect 24 0 26 0;
#X connect 26 0 8 0;
#X connect 28 0 30 0;
#X connect 30 0 29 0;
#X connect 31 0 28 0;
#X connect 32 0 33 0;
#X connect 33 0 40 0;
#X connect 33 1 34 0;
#X connect 34 0 35 0;
#X connect 34 1 38 1;
#X connect 35 0 37 0;
#X connect 36 0 10 0;
#X connect 37 0 38 0;
#X connect 38 0 39 0;
#X connect 39 0 36 0;
#X connect 40 0 10 0;
#X connect 41 0 24 0;
#X connect 41 1 24 2;
#X connect 41 2 42 0;
#X connect 43 0 47 0;
#X connect 44 0 45 0;
#X connect 45 0 46 0;
#X connect 45 1 46 1;
#X connect 46 0 43 0;
#X coords 0 -1 1 1 300 200 1 100 100;
#X restore 27 202 pd trigger sounds;
#X obj 1076 161 s \$0-to-SPIN;
#N canvas 1136 187 779 373 constants 0;
#X obj 25 159 anyreg speakerB1 -10 7.5 0;
#X obj 23 82 anyreg speakerA1 -2.5 12.5 0;
#X obj 24 108 anyreg speakerA2 2.5 12.5 0;
#X obj 24 132 anyreg speakerA3 7.5 12.5 0;
#X obj 25 182 anyreg speakerB2 -5 7.5 0;
#X obj 25 208 anyreg speakerB3 0 7.5 0;
#X obj 25 233 anyreg speakerB4 5 7.5 0;
#X obj 248 84 anyreg speakerC1 -12.5 2.5 0;
#X obj 248 108 anyreg speakerC2 -7.5 2.5 0;
#X obj 248 131 anyreg speakerC3 -2.5 2.5 0;
#X obj 248 154 anyreg speakerC4 2.5 2.5 0;
#X obj 248 177 anyreg speakerC5 7.5 2.5 0;
#X obj 246 201 anyreg speakerC6 12.5 2.5 0;
#X obj 245 229 anyreg speakerD1 -12.5 -2.5 0;
#X obj 245 255 anyreg speakerD2 -7.5 -2.5 0;
#X obj 244 276 anyreg speakerD3 -2.5 -2.5 0;
#X obj 244 298 anyreg speakerD4 2.5 -2.5 0;
#X obj 243 318 anyreg speakerD5 7.5 -2.5 0;
#X obj 457 83 anyreg speakerE1 -12.5 -7.5 0;
#X obj 457 109 anyreg speakerE2 -7.5 -7.5 0;
#X obj 455 134 anyreg speakerE3 -2.5 -7.5 0;
#X obj 454 159 anyreg speakerE4 2.5 -7.5 0;
#X obj 455 187 anyreg speakerF1 -12.5 -12.5 0;
#X obj 456 217 anyreg speakerF2 -7.5 -12.5 0;
#X text 30 14 These are speaker placement coordinates (radians) stored
as global variables;
#X restore 404 -39 pd constants;
#X obj 26 153 cnv 15 100 30 empty nowPlaying np:20131129-10-30-27.wav
20 12 0 14 -233017 -66577 0;
#N canvas 636 195 1174 865 okta1 0;
#X obj 129 26 inlet;
#X obj 129 48 t b b;
#X obj 211 466 list-nth;
#X obj 257 378 random 24;
#X obj 118 509 anyreg speakerA1;
#X obj 101 28 bng 15 250 50 0 empty empty empty 17 7 0 10 -262144 -1
-1;
#X obj 57 630 s \$0-to-SPIN;
#X msg 211 405 speakerA1 speakerA2 speakerA3 speakerB1 speakerB2 speakerB3
speakerB4 speakerC1 speakerC2 speakerC3 speakerC4 speakerC5 speakerC6
speakerD1 speakerD2 speakerD3 speakerD4 speakerD5 speakerE1 speakerE2
speakerE3 speakerE4 speakerF1 speakerF2;
#X obj 211 488 symbol;
#X obj 55 531 list append;
#X obj 55 553 list trim;
#X obj 129 125 t a b b b;
#X msg 55 592 /constrained\$1 setTranslation \$2 \$3 \$4 \, /constrained\$1
setVelocity 0 0 0;
#X obj 256 187 t b b;
#X obj 285 257 s soundfile;
#X obj 23 221 s trigger;
#X floatatom 357 213 5 0 0 0 - - -;
#X obj 314 175 bng 15 250 50 0 empty empty empty 17 7 0 10 -262144
-1 -1;
#X obj 285 235 oktaDispatch okta1;
#X msg 129 100 0;
#X obj 647 51 r sndFileLength_ms;
#X obj 827 68 prepend set;
#X msg 827 90 35108.6;
#X obj 129 77 t b;
#X obj 285 212 random 200;
#X text 278 468 choose some speaker symbol;
#X text 223 508 get the speaker location;
#X text 128 531 append the speaker location coordinates as list to
the sound object number;
#X text 413 593 set the location of sound immediately. Do not let the
sound move.;
#X text 829 30 this side takes care of updating the sound location
;
#X obj 681 247 metro;
#X obj 647 142 spigot;
#X obj 696 96 anyreg oktanumber;
#X obj 647 73 t a b;
#X obj 696 118 == 0;
#X obj 647 193 del;
#X msg 647 215 0;
#X obj 780 381 list-nth;
#X obj 826 293 random 24;
#X obj 687 424 anyreg speakerA1;
#X msg 780 320 speakerA1 speakerA2 speakerA3 speakerB1 speakerB2 speakerB3
speakerB4 speakerC1 speakerC2 speakerC3 speakerC4 speakerC5 speakerC6
speakerD1 speakerD2 speakerD3 speakerD4 speakerD5 speakerE1 speakerE2
speakerE3 speakerE4 speakerF1 speakerF2;
#X obj 780 403 symbol;
#X obj 624 446 list append;
#X obj 623 467 list trim;
#X text 847 383 choose some speaker symbol;
#X text 792 423 get the speaker location;
#X text 697 446 append the speaker location coordinates as list to
the sound object number;
#X obj 625 531 s \$0-to-SPIN;
#X obj 680 270 t a b b b;
#X text 729 191 divide the sound length;
#X text 736 240 drive the metro at SoundLength/8 miliseconds;
#X obj 647 168 t b f b f;
#X msg 686 215 1;
#X msg 623 493 /constrained0 setTranslation \$1 \$2 \$3;
#X obj 698 192 / 4;
#X connect 0 0 1 0;
#X connect 1 0 23 0;
#X connect 2 0 8 0;
#X connect 3 0 2 1;
#X connect 4 0 9 1;
#X connect 5 0 1 0;
#X connect 7 0 2 0;
#X connect 8 0 4 1;
#X connect 9 0 10 0;
#X connect 10 0 12 0;
#X connect 11 0 9 0;
#X connect 11 0 15 0;
#X connect 11 1 4 0;
#X connect 11 2 7 0;
#X connect 11 3 3 0;
#X connect 11 3 13 0;
#X connect 12 0 6 0;
#X connect 13 1 24 0;
#X connect 16 0 18 0;
#X connect 17 0 24 0;
#X connect 18 0 14 0;
#X connect 19 0 11 0;
#X connect 20 0 21 0;
#X connect 20 0 33 0;
#X connect 21 0 22 0;
#X connect 23 0 19 0;
#X connect 24 0 18 0;
#X connect 30 0 48 0;
#X connect 31 0 51 0;
#X connect 32 0 34 0;
#X connect 33 0 31 0;
#X connect 33 1 32 0;
#X connect 34 0 31 1;
#X connect 35 0 36 0;
#X connect 36 0 30 0;
#X connect 37 0 41 0;
#X connect 38 0 37 1;
#X connect 39 0 42 1;
#X connect 40 0 37 0;
#X connect 41 0 39 1;
#X connect 42 0 43 0;
#X connect 43 0 53 0;
#X connect 48 0 42 0;
#X connect 48 1 39 0;
#X connect 48 2 40 0;
#X connect 48 3 38 0;
#X connect 51 0 35 0;
#X connect 51 1 35 1;
#X connect 51 2 52 0;
#X connect 51 3 54 0;
#X connect 52 0 30 0;
#X connect 53 0 47 0;
#X connect 54 0 30 1;
#X restore 724 277 pd okta1;
#X obj 723 259 bng 15 250 50 0 empty trigOkta1 empty 17 7 0 10 -262144
-1 -1;
#N canvas 643 196 1161 865 okta2 0;
#X obj 108 22 inlet;
#X obj 108 44 t b b;
#X obj 192 45 r count_media;
#X obj 135 66 random 167;
#X obj 80 24 bng 15 250 50 0 empty empty empty 17 7 0 10 -262144 -1
-1;
#X obj 77 132 bng 15 250 50 0 empty empty empty 17 7 0 10 -262144 -1
-1;
#X obj 221 476 list-nth;
#X obj 281 476 random 24;
#X obj 128 519 anyreg speakerA1;
#X obj 65 774 s \$0-to-SPIN;
#X msg 221 415 speakerA1 speakerA2 speakerA3 speakerB1 speakerB2 speakerB3
speakerB4 speakerC1 speakerC2 speakerC3 speakerC4 speakerC5 speakerC6
speakerD1 speakerD2 speakerD3 speakerD4 speakerD5 speakerE1 speakerE2
speakerE3 speakerE4 speakerF1 speakerF2;
#X obj 221 498 symbol;
#X obj 65 541 list append;
#X obj 65 563 list trim;
#X obj 98 404 t a b b b;
#X obj 204 731 f;
#X msg 232 713 \$1;
#X msg 204 753 /constrained\$1 setVelocity 0 0 0;
#X obj 204 691 del 79000;
#X obj 204 667 t b a;
#X obj 65 585 t a a;
#X msg 65 629 /constrained\$1 setTranslation \$2 \$3 \$4 \, /constrained\$1
setVelocity \$5 \$6 0;
#X obj 380 529 t b b;
#X obj 466 532 r count_media;
#X obj 409 554 random 167;
#X obj 25 439 s trigger;
#X obj 409 599 s soundfile;
#X obj 409 577 oktaDispatch okta2;
#X msg 106 219 1;
#X text 142 220 okta2;
#X obj 276 147 r sndFileLength_ms;
#X obj 456 164 prepend set;
#X msg 456 186 35108.6;
#X obj 276 244 spigot;
#X obj 325 192 anyreg oktanumber;
#X obj 276 169 t a b;
#X obj 108 191 t b b;
#X obj 255 301 f;
#X obj 325 214 == 1;
#X text 304 304 set the delay to stop movement based on the sound file
length;
#X obj 202 349 p;
#X obj 65 607 random3 80 120;
#X connect 0 0 1 0;
#X connect 1 0 36 0;
#X connect 1 1 3 0;
#X connect 2 0 3 1;
#X connect 4 0 1 0;
#X connect 5 0 36 0;
#X connect 6 0 11 0;
#X connect 7 0 6 1;
#X connect 8 0 12 1;
#X connect 10 0 6 0;
#X connect 11 0 8 1;
#X connect 12 0 13 0;
#X connect 13 0 20 0;
#X connect 14 0 12 0;
#X connect 14 0 25 0;
#X connect 14 1 8 0;
#X connect 14 2 10 0;
#X connect 14 3 7 0;
#X connect 14 3 22 0;
#X connect 15 0 17 0;
#X connect 16 0 15 1;
#X connect 17 0 9 0;
#X connect 18 0 15 0;
#X connect 19 0 18 0;
#X connect 19 1 16 0;
#X connect 20 0 41 0;
#X connect 20 1 19 0;
#X connect 21 0 9 0;
#X connect 22 1 24 0;
#X connect 23 0 24 1;
#X connect 24 0 27 0;
#X connect 27 0 26 0;
#X connect 28 0 14 0;
#X connect 30 0 31 0;
#X connect 30 0 35 0;
#X connect 31 0 32 0;
#X connect 33 0 37 0;
#X connect 34 0 38 0;
#X connect 35 0 33 0;
#X connect 35 1 34 0;
#X connect 36 0 28 0;
#X connect 37 0 18 1;
#X connect 37 0 40 0;
#X connect 38 0 33 1;
#X connect 41 0 21 0;
#X restore 725 314 pd okta2;
#X obj 724 296 bng 15 250 50 0 empty trigOkta2 empty 17 7 0 10 -262144
-1 -1;
#X obj 723 337 bng 15 250 50 0 empty trigOkta3 empty 17 7 0 10 -262144
-1 -1;
#N canvas 600 164 1161 865 okta3 0;
#X obj 118 32 inlet;
#X obj 118 54 t b b;
#X obj 202 55 r count_media;
#X obj 145 76 random 167;
#X obj 90 34 bng 15 250 50 0 empty empty empty 17 7 0 10 -262144 -1
-1;
#X obj 87 142 bng 15 250 50 0 empty empty empty 17 7 0 10 -262144 -1
-1;
#X obj 231 486 list-nth;
#X obj 291 486 random 24;
#X obj 138 529 anyreg speakerA1;
#X obj 75 784 s \$0-to-SPIN;
#X msg 231 425 speakerA1 speakerA2 speakerA3 speakerB1 speakerB2 speakerB3
speakerB4 speakerC1 speakerC2 speakerC3 speakerC4 speakerC5 speakerC6
speakerD1 speakerD2 speakerD3 speakerD4 speakerD5 speakerE1 speakerE2
speakerE3 speakerE4 speakerF1 speakerF2;
#X obj 231 508 symbol;
#X obj 75 551 list append;
#X obj 75 573 list trim;
#X obj 108 414 t a b b b;
#X obj 214 741 f;
#X msg 242 723 \$1;
#X msg 214 763 /constrained\$1 setVelocity 0 0 0;
#X obj 214 701 del 79000;
#X obj 214 677 t b a;
#X obj 75 595 t a a;
#X msg 75 639 /constrained\$1 setTranslation \$2 \$3 \$4 \, /constrained\$1
setVelocity \$5 \$6 0;
#X obj 390 539 t b b;
#X obj 476 542 r count_media;
#X obj 419 564 random 167;
#X obj 352 596 s trigger;
#X obj 419 609 s soundfile;
#X obj 419 587 oktaDispatch okta2;
#X obj 286 157 r sndFileLength_ms;
#X obj 466 174 prepend set;
#X msg 466 196 35108.6;
#X obj 286 248 spigot;
#X obj 335 202 anyreg oktanumber;
#X obj 286 179 t a b;
#X obj 118 201 t b b;
#X obj 265 311 f;
#X text 314 314 set the delay to stop movement based on the sound file
length;
#X msg 116 229 2;
#X obj 75 617 random3 80 160;
#X text 152 230 okta3;
#X obj 335 224 == 2;
#X connect 0 0 1 0;
#X connect 1 0 34 0;
#X connect 1 1 3 0;
#X connect 2 0 3 1;
#X connect 4 0 1 0;
#X connect 5 0 34 0;
#X connect 6 0 11 0;
#X connect 7 0 6 1;
#X connect 8 0 12 1;
#X connect 10 0 6 0;
#X connect 11 0 8 1;
#X connect 12 0 13 0;
#X connect 13 0 20 0;
#X connect 14 0 12 0;
#X connect 14 0 25 0;
#X connect 14 1 8 0;
#X connect 14 2 10 0;
#X connect 14 3 7 0;
#X connect 14 3 22 0;
#X connect 15 0 17 0;
#X connect 16 0 15 1;
#X connect 17 0 9 0;
#X connect 18 0 15 0;
#X connect 19 0 18 0;
#X connect 19 1 16 0;
#X connect 20 0 38 0;
#X connect 20 1 19 0;
#X connect 21 0 9 0;
#X connect 22 1 24 0;
#X connect 23 0 24 1;
#X connect 24 0 27 0;
#X connect 27 0 26 0;
#X connect 28 0 29 0;
#X connect 28 0 33 0;
#X connect 29 0 30 0;
#X connect 31 0 35 0;
#X connect 32 0 40 0;
#X connect 33 0 31 0;
#X connect 33 1 32 0;
#X connect 34 0 37 0;
#X connect 35 0 18 1;
#X connect 37 0 14 0;
#X connect 38 0 21 0;
#X connect 40 0 31 1;
#X restore 724 355 pd okta3;
#X obj 723 377 bng 15 250 50 0 empty trigOkta4 empty 17 7 0 10 -262144
-1 -1;
#N canvas 96 155 1161 865 okta4 0;
#X obj 128 42 inlet;
#X obj 128 64 t b b;
#X obj 212 65 r count_media;
#X obj 155 86 random 167;
#X obj 100 44 bng 15 250 50 0 empty empty empty 17 7 0 10 -262144 -1
-1;
#X obj 97 152 bng 15 250 50 0 empty empty empty 17 7 0 10 -262144 -1
-1;
#X obj 241 496 list-nth;
#X obj 301 496 random 24;
#X obj 148 539 anyreg speakerA1;
#X obj 85 794 s \$0-to-SPIN;
#X msg 241 435 speakerA1 speakerA2 speakerA3 speakerB1 speakerB2 speakerB3
speakerB4 speakerC1 speakerC2 speakerC3 speakerC4 speakerC5 speakerC6
speakerD1 speakerD2 speakerD3 speakerD4 speakerD5 speakerE1 speakerE2
speakerE3 speakerE4 speakerF1 speakerF2;
#X obj 241 518 symbol;
#X obj 85 561 list append;
#X obj 85 583 list trim;
#X obj 118 424 t a b b b;
#X obj 224 751 f;
#X msg 252 733 \$1;
#X msg 224 773 /constrained\$1 setVelocity 0 0 0;
#X obj 224 711 del 79000;
#X obj 224 687 t b a;
#X obj 85 605 t a a;
#X msg 85 649 /constrained\$1 setTranslation \$2 \$3 \$4 \, /constrained\$1
setVelocity \$5 \$6 0;
#X obj 400 549 t b b;
#X obj 486 552 r count_media;
#X obj 429 574 random 167;
#X obj 362 606 s trigger;
#X obj 429 619 s soundfile;
#X obj 429 597 oktaDispatch okta2;
#X obj 296 167 r sndFileLength_ms;
#X obj 476 184 prepend set;
#X msg 476 206 35108.6;
#X obj 296 258 spigot;
#X obj 345 212 anyreg oktanumber;
#X obj 296 189 t a b;
#X obj 128 211 t b b;
#X obj 275 321 f;
#X text 324 324 set the delay to stop movement based on the sound file
length;
#X msg 126 239 3;
#X obj 85 627 random3 220 350;
#X obj 345 234 == 3;
#X text 162 240 okta4;
#X connect 0 0 1 0;
#X connect 1 0 34 0;
#X connect 1 1 3 0;
#X connect 2 0 3 1;
#X connect 4 0 1 0;
#X connect 5 0 34 0;
#X connect 6 0 11 0;
#X connect 7 0 6 1;
#X connect 8 0 12 1;
#X connect 10 0 6 0;
#X connect 11 0 8 1;
#X connect 12 0 13 0;
#X connect 13 0 20 0;
#X connect 14 0 12 0;
#X connect 14 0 25 0;
#X connect 14 1 8 0;
#X connect 14 2 10 0;
#X connect 14 3 7 0;
#X connect 14 3 22 0;
#X connect 15 0 17 0;
#X connect 16 0 15 1;
#X connect 17 0 9 0;
#X connect 18 0 15 0;
#X connect 19 0 18 0;
#X connect 19 1 16 0;
#X connect 20 0 38 0;
#X connect 20 1 19 0;
#X connect 21 0 9 0;
#X connect 22 1 24 0;
#X connect 23 0 24 1;
#X connect 24 0 27 0;
#X connect 27 0 26 0;
#X connect 28 0 29 0;
#X connect 28 0 33 0;
#X connect 29 0 30 0;
#X connect 31 0 35 0;
#X connect 32 0 39 0;
#X connect 33 0 31 0;
#X connect 33 1 32 0;
#X connect 34 0 37 0;
#X connect 35 0 18 1;
#X connect 37 0 14 0;
#X connect 38 0 21 0;
#X connect 39 0 31 1;
#X restore 724 395 pd okta4;
#X obj 723 417 bng 15 250 50 0 empty trigOkta5 empty 17 7 0 10 -262144
-1 -1;
#N canvas 566 207 1161 865 okta5 0;
#X obj 138 52 inlet;
#X obj 138 74 t b b;
#X obj 222 75 r count_media;
#X obj 165 96 random 167;
#X obj 110 54 bng 15 250 50 0 empty empty empty 17 7 0 10 -262144 -1
-1;
#X obj 107 162 bng 15 250 50 0 empty empty empty 17 7 0 10 -262144
-1 -1;
#X obj 251 506 list-nth;
#X obj 311 506 random 24;
#X obj 158 549 anyreg speakerA1;
#X obj 95 804 s \$0-to-SPIN;
#X msg 251 445 speakerA1 speakerA2 speakerA3 speakerB1 speakerB2 speakerB3
speakerB4 speakerC1 speakerC2 speakerC3 speakerC4 speakerC5 speakerC6
speakerD1 speakerD2 speakerD3 speakerD4 speakerD5 speakerE1 speakerE2
speakerE3 speakerE4 speakerF1 speakerF2;
#X obj 251 528 symbol;
#X obj 95 571 list append;
#X obj 95 593 list trim;
#X obj 128 434 t a b b b;
#X obj 234 761 f;
#X msg 262 743 \$1;
#X msg 234 783 /constrained\$1 setVelocity 0 0 0;
#X obj 234 721 del 79000;
#X obj 234 697 t b a;
#X obj 95 615 t a a;
#X msg 95 659 /constrained\$1 setTranslation \$2 \$3 \$4 \, /constrained\$1
setVelocity \$5 \$6 0;
#X obj 410 559 t b b;
#X obj 496 562 r count_media;
#X obj 439 584 random 167;
#X obj 372 616 s trigger;
#X obj 439 629 s soundfile;
#X obj 439 607 oktaDispatch okta2;
#X obj 306 177 r sndFileLength_ms;
#X obj 486 194 prepend set;
#X msg 486 216 35108.6;
#X obj 306 268 spigot;
#X obj 355 222 anyreg oktanumber;
#X obj 306 199 t a b;
#X obj 138 221 t b b;
#X obj 285 331 f;
#X text 334 334 set the delay to stop movement based on the sound file
length;
#X obj 95 637 random3 90 210;
#X msg 136 249 4;
#X text 172 250 okta5;
#X obj 355 244 == 4;
#X connect 0 0 1 0;
#X connect 1 0 34 0;
#X connect 1 1 3 0;
#X connect 2 0 3 1;
#X connect 4 0 1 0;
#X connect 5 0 34 0;
#X connect 6 0 11 0;
#X connect 7 0 6 1;
#X connect 8 0 12 1;
#X connect 10 0 6 0;
#X connect 11 0 8 1;
#X connect 12 0 13 0;
#X connect 13 0 20 0;
#X connect 14 0 12 0;
#X connect 14 0 25 0;
#X connect 14 1 8 0;
#X connect 14 2 10 0;
#X connect 14 3 7 0;
#X connect 14 3 22 0;
#X connect 15 0 17 0;
#X connect 16 0 15 1;
#X connect 17 0 9 0;
#X connect 18 0 15 0;
#X connect 19 0 18 0;
#X connect 19 1 16 0;
#X connect 20 0 37 0;
#X connect 20 1 19 0;
#X connect 21 0 9 0;
#X connect 22 1 24 0;
#X connect 23 0 24 1;
#X connect 24 0 27 0;
#X connect 27 0 26 0;
#X connect 28 0 29 0;
#X connect 28 0 33 0;
#X connect 29 0 30 0;
#X connect 31 0 35 0;
#X connect 32 0 40 0;
#X connect 33 0 31 0;
#X connect 33 1 32 0;
#X connect 34 0 38 0;
#X connect 35 0 18 1;
#X connect 37 0 21 0;
#X connect 38 0 14 0;
#X connect 40 0 31 1;
#X restore 724 435 pd okta5;
#X obj 821 254 bng 15 250 50 0 empty trigOkta6 empty 17 7 0 10 -262144
-1 -1;
#X obj 719 508 bng 15 250 50 0 empty empty empty 17 7 0 10 -262144
-1 -1;
#X obj 719 528 s stopDelays;
#X obj 400 291 tgl 15 0 empty empty empty 17 7 0 10 -262144 -1 -1 1
1;
#X obj 400 313 metro 300000;
#X obj 821 294 bng 15 250 50 0 empty trigOkta7 empty 17 7 0 10 -262144
-1 -1;
#X obj 823 334 bng 15 250 50 0 empty trigOkta8 empty 17 7 0 10 -262144
-1 -1;
#X obj 401 458 s trigOkta1;
#X obj 415 438 s trigOkta2;
#X obj 430 418 s trigOkta3;
#X obj 445 398 s trigOkta4;
#X obj 460 378 s trigOkta5;
#X obj 400 245 r __init;
#X msg 400 267 1;
#X obj 6 77 sel okta;
#X obj 6 -9 del 1000;
#X text 39 176 v-- volume set in trigger patcher;
#X obj 558 316 bng 15 250 50 0 empty empty empty 17 7 0 10 -262144
-1 -1;
#N canvas 866 236 450 444 okta-readings 0;
#X obj -1634 111 outlet;
#X obj -1697 8 inlet;
#X msg -1698 32 current;
#X obj -1733 75 src/oktadb localhost 7778;
#X connect 1 0 2 0;
#X connect 2 0 3 0;
#X connect 3 1 0 0;
#X restore 399 336 pd okta-readings;
#X obj 400 357 sel 0 1 2 3 4 5 6 7;
#X obj 522 399 s trigOkta6;
#X obj 512 419 s trigOkta7;
#X obj 501 440 s trigOkta8;
#X obj 366 253 vradio 15 1 0 8 empty empty OKTA 0 -8 0 10 -262144 -1
-1 0;
#X text 352 251 0;
#X text 353 267 1;
#X text 353 284 2;
#X text 353 298 3;
#X text 354 312 4;
#X text 354 326 5;
#X text 354 342 6;
#X text 355 356 7;
#X msg 491 249 3000;
#X msg 490 274 30000;
#X msg 489 298 300000;
#N canvas 27 146 1147 829 okta6 0;
#X obj 48 540 bng 15 250 50 0 empty empty empty 17 7 0 10 -262144 -1
-1;
#X obj 48 563 t b b;
#X obj 63 700 unpack f f f;
#X msg 39 749 /constrained\$1 setTranslation \$2 \$3 \$4;
#X obj 39 729 pack 0 f f f;
#X msg 70 588 -12.5 12.5 0;
#X msg 81 617 -12.5 0 0;
#X text 129 776 Y : starting 12.5 \, -5 subsquent;
#X obj 63 678 anyreg speakerD1;
#X text 130 791 X : starting -12.5 \, +5 subsquent;
#X obj 407 260 until;
#X obj 407 282 f;
#X msg 452 259 0;
#X obj 434 281 + 1;
#X obj 407 304 t f f b;
#X obj 523 332 - 5;
#X obj 373 523 s \$0-to-SPIN;
#X msg 407 188 6;
#X msg 406 398 /constrained\$1 setTranslation \$2 \$3 0 \, /constrained\$1
setVelocity \$4 0 0;
#X floatatom 520 183 5 0 0 0 - - -;
#X msg 562 264 12.5;
#X obj 407 210 t f b b b;
#X obj 473 332 f 12.5;
#X msg 484 260 12.5;
#X obj 527 219 gate 2;
#X msg 520 265 -12;
#X obj 581 236 t b b;
#X obj 531 239 t b b;
#X obj 409 374 pack f f f f;
#X text 288 166 horizontal movement;
#X obj 752 258 until;
#X obj 752 280 f;
#X msg 797 257 0;
#X obj 779 279 + 1;
#X obj 752 302 t f f b;
#X obj 868 330 - 5;
#X obj 750 483 s \$0-to-SPIN;
#X msg 752 186 6;
#X floatatom 865 181 5 0 0 0 - - -;
#X msg 907 262 12.5;
#X obj 752 208 t f b b b;
#X obj 818 330 f 12.5;
#X msg 829 258 12.5;
#X obj 872 217 gate 2;
#X msg 865 263 -12;
#X obj 926 234 t b b;
#X obj 876 237 t b b;
#X obj 754 372 pack f f f f;
#X msg 751 396 /constrained\$1 setTranslation \$3 \$2 0 \, /constrained\$1
setVelocity 0 \$4 0;
#X obj 614 571 t b b;
#X obj 700 574 r count_media;
#X obj 627 628 i;
#X obj 628 671 s soundfile;
#X obj 629 647 oktaDispatch okta6;
#X obj 421 458 t a b;
#X obj 643 596 random 167;
#X text 911 136 vertical movement;
#X obj 794 441 t a b;
#X obj 449 26 inlet;
#X obj 449 48 random 2;
#X obj 449 70 sel 0 1;
#X obj 449 92 t b b;
#X obj 479 115 random 2;
#X obj 479 137 + 1;
#X obj 603 95 t b b;
#X obj 697 111 random 2;
#X obj 697 133 + 1;
#X msg 956 270 0.2;
#X msg 991 269 -0.2;
#X msg 611 272 0.2;
#X msg 646 271 -0.2;
#X connect 0 0 1 0;
#X connect 1 0 4 0;
#X connect 2 0 4 1;
#X connect 2 1 4 2;
#X connect 2 2 4 3;
#X connect 4 0 3 0;
#X connect 5 0 2 0;
#X connect 6 0 2 0;
#X connect 8 0 2 0;
#X connect 10 0 11 0;
#X connect 11 0 13 0;
#X connect 11 0 14 0;
#X connect 12 0 11 1;
#X connect 13 0 11 1;
#X connect 14 0 28 0;
#X connect 14 2 22 0;
#X connect 15 0 22 1;
#X connect 17 0 21 0;
#X connect 18 0 54 0;
#X connect 19 0 24 0;
#X connect 20 0 28 1;
#X connect 21 0 10 0;
#X connect 21 1 12 0;
#X connect 21 2 23 0;
#X connect 21 3 24 1;
#X connect 21 3 49 0;
#X connect 22 0 15 0;
#X connect 22 0 28 2;
#X connect 23 0 22 1;
#X connect 24 0 27 0;
#X connect 24 1 26 0;
#X connect 25 0 28 1;
#X connect 26 0 20 0;
#X connect 26 1 70 0;
#X connect 27 0 25 0;
#X connect 27 1 69 0;
#X connect 28 0 18 0;
#X connect 30 0 31 0;
#X connect 31 0 33 0;
#X connect 31 0 34 0;
#X connect 32 0 31 1;
#X connect 33 0 31 1;
#X connect 34 0 47 0;
#X connect 34 2 41 0;
#X connect 35 0 41 1;
#X connect 37 0 40 0;
#X connect 38 0 43 0;
#X connect 39 0 47 1;
#X connect 40 0 30 0;
#X connect 40 1 32 0;
#X connect 40 2 42 0;
#X connect 40 3 43 1;
#X connect 40 3 49 0;
#X connect 41 0 35 0;
#X connect 41 0 47 2;
#X connect 42 0 41 1;
#X connect 43 0 46 0;
#X connect 43 1 45 0;
#X connect 44 0 47 1;
#X connect 45 0 39 0;
#X connect 45 1 68 0;
#X connect 46 0 44 0;
#X connect 46 1 67 0;
#X connect 47 0 48 0;
#X connect 48 0 57 0;
#X connect 49 1 55 0;
#X connect 50 0 55 1;
#X connect 51 0 53 0;
#X connect 53 0 52 0;
#X connect 54 0 16 0;
#X connect 54 1 51 0;
#X connect 55 0 51 1;
#X connect 57 0 36 0;
#X connect 57 1 51 0;
#X connect 58 0 59 0;
#X connect 59 0 60 0;
#X connect 60 0 61 0;
#X connect 60 1 64 0;
#X connect 61 0 17 0;
#X connect 61 1 62 0;
#X connect 62 0 63 0;
#X connect 63 0 19 0;
#X connect 64 0 37 0;
#X connect 64 1 65 0;
#X connect 65 0 66 0;
#X connect 66 0 38 0;
#X connect 67 0 47 3;
#X connect 68 0 47 3;
#X connect 69 0 28 3;
#X connect 70 0 28 3;
#X restore 821 273 pd okta6;
#X obj 257 157 cnv 15 90 30 empty oktaNo okta:0 10 12 0 14 -233017
-258113 0;
#X obj 534 340 makefilename %s;
#X msg 534 363 \; oktaNo label okta:\$1;
#X obj 469 222 r sndFileLength_ms;
#N canvas 4 597 591 304 handleSoundLengths 0;
#X obj 102 88 soundfiler;
#X obj 103 110 / 44.1;
#X obj 102 39 r toSoundfiler;
#N canvas 0 0 450 300 (subpatch) 0;
#X array currentAudio 1.54829e+06 float 2;
#X coords 0 1 1.54829e+06 -1 200 140 1;
#X restore 354 59 graph;
#X msg 102 65 read -resize \$1 currentAudio;
#X obj 103 132 s sndFileLength_ms;
#X connect 0 0 1 0;
#X connect 1 0 5 0;
#X connect 2 0 4 0;
#X connect 4 0 0 0;
#X restore 440 79 pd handleSoundLengths;
#X obj 381 477 prepend float;
#X obj 381 499 anyreg oktanumber;
#N canvas 27 146 1147 829 okta7 0;
#X obj 48 540 bng 15 250 50 0 empty empty empty 17 7 0 10 -262144 -1
-1;
#X obj 48 563 t b b;
#X obj 63 700 unpack f f f;
#X msg 39 749 /constrained\$1 setTranslation \$2 \$3 \$4;
#X obj 39 729 pack 0 f f f;
#X msg 70 588 -12.5 12.5 0;
#X msg 81 617 -12.5 0 0;
#X text 129 776 Y : starting 12.5 \, -5 subsquent;
#X obj 63 678 anyreg speakerD1;
#X text 130 791 X : starting -12.5 \, +5 subsquent;
#X obj 407 260 until;
#X obj 407 282 f;
#X msg 452 259 0;
#X obj 434 281 + 1;
#X obj 407 304 t f f b;
#X obj 523 332 - 5;
#X obj 373 523 s \$0-to-SPIN;
#X msg 407 188 6;
#X msg 406 398 /constrained\$1 setTranslation \$2 \$3 0 \, /constrained\$1
setVelocity \$4 0 0;
#X floatatom 520 183 5 0 0 0 - - -;
#X msg 562 264 12.5;
#X obj 407 210 t f b b b;
#X obj 473 332 f 12.5;
#X msg 484 260 12.5;
#X obj 527 219 gate 2;
#X msg 520 265 -12;
#X obj 581 236 t b b;
#X obj 531 239 t b b;
#X obj 409 374 pack f f f f;
#X text 288 166 horizontal movement;
#X obj 752 258 until;
#X obj 752 280 f;
#X msg 797 257 0;
#X obj 779 279 + 1;
#X obj 752 302 t f f b;
#X obj 868 330 - 5;
#X obj 750 483 s \$0-to-SPIN;
#X msg 752 186 6;
#X floatatom 865 181 5 0 0 0 - - -;
#X msg 907 262 12.5;
#X obj 752 208 t f b b b;
#X obj 818 330 f 12.5;
#X msg 829 258 12.5;
#X obj 872 217 gate 2;
#X msg 865 263 -12;
#X obj 926 234 t b b;
#X obj 876 237 t b b;
#X obj 754 372 pack f f f f;
#X msg 751 396 /constrained\$1 setTranslation \$3 \$2 0 \, /constrained\$1
setVelocity 0 \$4 0;
#X obj 614 571 t b b;
#X obj 700 574 r count_media;
#X obj 627 628 i;
#X obj 628 671 s soundfile;
#X obj 629 647 oktaDispatch okta6;
#X obj 421 458 t a b;
#X obj 643 596 random 167;
#X text 911 136 vertical movement;
#X obj 794 441 t a b;
#X obj 449 26 inlet;
#X obj 449 48 random 2;
#X obj 449 70 sel 0 1;
#X obj 449 92 t b b;
#X obj 479 115 random 2;
#X obj 479 137 + 1;
#X obj 603 95 t b b;
#X obj 697 111 random 2;
#X obj 697 133 + 1;
#X msg 991 269 -0.6;
#X msg 646 271 -0.6;
#X msg 956 270 0.6;
#X msg 611 272 0.6;
#X connect 0 0 1 0;
#X connect 1 0 4 0;
#X connect 2 0 4 1;
#X connect 2 1 4 2;
#X connect 2 2 4 3;
#X connect 4 0 3 0;
#X connect 5 0 2 0;
#X connect 6 0 2 0;
#X connect 8 0 2 0;
#X connect 10 0 11 0;
#X connect 11 0 13 0;
#X connect 11 0 14 0;
#X connect 12 0 11 1;
#X connect 13 0 11 1;
#X connect 14 0 28 0;
#X connect 14 2 22 0;
#X connect 15 0 22 1;
#X connect 17 0 21 0;
#X connect 18 0 54 0;
#X connect 19 0 24 0;
#X connect 20 0 28 1;
#X connect 21 0 10 0;
#X connect 21 1 12 0;
#X connect 21 2 23 0;
#X connect 21 3 24 1;
#X connect 21 3 49 0;
#X connect 22 0 15 0;
#X connect 22 0 28 2;
#X connect 23 0 22 1;
#X connect 24 0 27 0;
#X connect 24 1 26 0;
#X connect 25 0 28 1;
#X connect 26 0 20 0;
#X connect 26 1 68 0;
#X connect 27 0 25 0;
#X connect 27 1 70 0;
#X connect 28 0 18 0;
#X connect 30 0 31 0;
#X connect 31 0 33 0;
#X connect 31 0 34 0;
#X connect 32 0 31 1;
#X connect 33 0 31 1;
#X connect 34 0 47 0;
#X connect 34 2 41 0;
#X connect 35 0 41 1;
#X connect 37 0 40 0;
#X connect 38 0 43 0;
#X connect 39 0 47 1;
#X connect 40 0 30 0;
#X connect 40 1 32 0;
#X connect 40 2 42 0;
#X connect 40 3 43 1;
#X connect 40 3 49 0;
#X connect 41 0 35 0;
#X connect 41 0 47 2;
#X connect 42 0 41 1;
#X connect 43 0 46 0;
#X connect 43 1 45 0;
#X connect 44 0 47 1;
#X connect 45 0 39 0;
#X connect 45 1 67 0;
#X connect 46 0 44 0;
#X connect 46 1 69 0;
#X connect 47 0 48 0;
#X connect 48 0 57 0;
#X connect 49 1 55 0;
#X connect 50 0 55 1;
#X connect 51 0 53 0;
#X connect 53 0 52 0;
#X connect 54 0 16 0;
#X connect 54 1 51 0;
#X connect 55 0 51 1;
#X connect 57 0 36 0;
#X connect 57 1 51 0;
#X connect 58 0 59 0;
#X connect 59 0 60 0;
#X connect 60 0 61 0;
#X connect 60 1 64 0;
#X connect 61 0 17 0;
#X connect 61 1 62 0;
#X connect 62 0 63 0;
#X connect 63 0 19 0;
#X connect 64 0 37 0;
#X connect 64 1 65 0;
#X connect 65 0 66 0;
#X connect 66 0 38 0;
#X connect 67 0 47 3;
#X connect 68 0 28 3;
#X connect 69 0 47 3;
#X connect 70 0 28 3;
#X restore 823 313 pd okta7;
#N canvas 25 150 1147 829 okta8 0;
#X obj 48 540 bng 15 250 50 0 empty empty empty 17 7 0 10 -262144 -1
-1;
#X obj 48 563 t b b;
#X obj 63 700 unpack f f f;
#X msg 39 749 /constrained\$1 setTranslation \$2 \$3 \$4;
#X obj 39 729 pack 0 f f f;
#X msg 70 588 -12.5 12.5 0;
#X msg 81 617 -12.5 0 0;
#X text 129 776 Y : starting 12.5 \, -5 subsquent;
#X obj 63 678 anyreg speakerD1;
#X text 130 791 X : starting -12.5 \, +5 subsquent;
#X obj 407 260 until;
#X obj 407 282 f;
#X msg 452 259 0;
#X obj 434 281 + 1;
#X obj 407 304 t f f b;
#X obj 523 332 - 5;
#X obj 373 523 s \$0-to-SPIN;
#X msg 407 188 6;
#X msg 646 271 -1;
#X msg 611 272 1;
#X msg 406 398 /constrained\$1 setTranslation \$2 \$3 0 \, /constrained\$1
setVelocity \$4 0 0;
#X floatatom 520 183 5 0 0 0 - - -;
#X msg 562 264 12.5;
#X obj 407 210 t f b b b;
#X obj 473 332 f 12.5;
#X msg 484 260 12.5;
#X obj 527 219 gate 2;
#X msg 520 265 -12;
#X obj 581 236 t b b;
#X obj 531 239 t b b;
#X obj 409 374 pack f f f f;
#X text 288 166 horizontal movement;
#X obj 752 258 until;
#X obj 752 280 f;
#X msg 797 257 0;
#X obj 779 279 + 1;
#X obj 752 302 t f f b;
#X obj 868 330 - 5;
#X obj 750 483 s \$0-to-SPIN;
#X msg 752 186 6;
#X msg 991 269 -1;
#X msg 956 270 1;
#X floatatom 865 181 5 0 0 0 - - -;
#X msg 907 262 12.5;
#X obj 752 208 t f b b b;
#X obj 818 330 f 12.5;
#X msg 829 258 12.5;
#X obj 872 217 gate 2;
#X msg 865 263 -12;
#X obj 926 234 t b b;
#X obj 876 237 t b b;
#X obj 754 372 pack f f f f;
#X msg 751 396 /constrained\$1 setTranslation \$3 \$2 0 \, /constrained\$1
setVelocity 0 \$4 0;
#X obj 614 571 t b b;
#X obj 700 574 r count_media;
#X obj 627 628 i;
#X obj 628 671 s soundfile;
#X obj 629 647 oktaDispatch okta6;
#X obj 421 458 t a b;
#X obj 643 596 random 167;
#X text 911 136 vertical movement;
#X obj 794 441 t a b;
#X obj 449 26 inlet;
#X obj 449 48 random 2;
#X obj 449 70 sel 0 1;
#X obj 449 92 t b b;
#X obj 479 115 random 2;
#X obj 479 137 + 1;
#X obj 603 95 t b b;
#X obj 697 111 random 2;
#X obj 697 133 + 1;
#X connect 0 0 1 0;
#X connect 1 0 4 0;
#X connect 2 0 4 1;
#X connect 2 1 4 2;
#X connect 2 2 4 3;
#X connect 4 0 3 0;
#X connect 5 0 2 0;
#X connect 6 0 2 0;
#X connect 8 0 2 0;
#X connect 10 0 11 0;
#X connect 11 0 13 0;
#X connect 11 0 14 0;
#X connect 12 0 11 1;
#X connect 13 0 11 1;
#X connect 14 0 30 0;
#X connect 14 2 24 0;
#X connect 15 0 24 1;
#X connect 17 0 23 0;
#X connect 18 0 30 3;
#X connect 19 0 30 3;
#X connect 20 0 58 0;
#X connect 21 0 26 0;
#X connect 22 0 30 1;
#X connect 23 0 10 0;
#X connect 23 1 12 0;
#X connect 23 2 25 0;
#X connect 23 3 26 1;
#X connect 23 3 53 0;
#X connect 24 0 15 0;
#X connect 24 0 30 2;
#X connect 25 0 24 1;
#X connect 26 0 29 0;
#X connect 26 1 28 0;
#X connect 27 0 30 1;
#X connect 28 0 22 0;
#X connect 28 1 18 0;
#X connect 29 0 27 0;
#X connect 29 1 19 0;
#X connect 30 0 20 0;
#X connect 32 0 33 0;
#X connect 33 0 35 0;
#X connect 33 0 36 0;
#X connect 34 0 33 1;
#X connect 35 0 33 1;
#X connect 36 0 51 0;
#X connect 36 2 45 0;
#X connect 37 0 45 1;
#X connect 39 0 44 0;
#X connect 40 0 51 3;
#X connect 41 0 51 3;
#X connect 42 0 47 0;
#X connect 43 0 51 1;
#X connect 44 0 32 0;
#X connect 44 1 34 0;
#X connect 44 2 46 0;
#X connect 44 3 47 1;
#X connect 44 3 53 0;
#X connect 45 0 37 0;
#X connect 45 0 51 2;
#X connect 46 0 45 1;
#X connect 47 0 50 0;
#X connect 47 1 49 0;
#X connect 48 0 51 1;
#X connect 49 0 43 0;
#X connect 49 1 40 0;
#X connect 50 0 48 0;
#X connect 50 1 41 0;
#X connect 51 0 52 0;
#X connect 52 0 61 0;
#X connect 53 1 59 0;
#X connect 54 0 59 1;
#X connect 55 0 57 0;
#X connect 57 0 56 0;
#X connect 58 0 16 0;
#X connect 58 1 55 0;
#X connect 59 0 55 1;
#X connect 61 0 38 0;
#X connect 61 1 55 0;
#X connect 62 0 63 0;
#X connect 63 0 64 0;
#X connect 64 0 65 0;
#X connect 64 1 68 0;
#X connect 65 0 17 0;
#X connect 65 1 66 0;
#X connect 66 0 67 0;
#X connect 67 0 21 0;
#X connect 68 0 39 0;
#X connect 68 1 69 0;
#X connect 69 0 70 0;
#X connect 70 0 42 0;
#X restore 823 355 pd okta8;
#X obj 625 401 print okta-->;
#X connect 0 0 60 0;
#X connect 2 0 61 0;
#X connect 8 0 9 0;
#X connect 10 0 8 0;
#X connect 11 0 10 0;
#X connect 15 0 1 0;
#X connect 20 0 19 0;
#X connect 21 0 4 0;
#X connect 25 0 0 0;
#X connect 26 0 33 0;
#X connect 30 0 27 0;
#X connect 37 0 36 0;
#X connect 39 0 38 0;
#X connect 40 0 41 0;
#X connect 42 0 43 0;
#X connect 44 0 45 0;
#X connect 46 0 81 0;
#X connect 47 0 48 0;
#X connect 49 0 50 0;
#X connect 50 0 64 0;
#X connect 51 0 89 0;
#X connect 52 0 90 0;
#X connect 58 0 59 0;
#X connect 59 0 49 0;
#X connect 60 0 4 0;
#X connect 61 0 25 0;
#X connect 63 0 64 0;
#X connect 64 0 65 0;
#X connect 64 0 83 0;
#X connect 64 0 87 0;
#X connect 65 0 53 0;
#X connect 65 1 54 0;
#X connect 65 2 55 0;
#X connect 65 3 56 0;
#X connect 65 4 57 0;
#X connect 65 5 66 0;
#X connect 65 6 67 0;
#X connect 65 7 68 0;
#X connect 69 0 65 0;
#X connect 69 0 83 0;
#X connect 69 0 87 0;
#X connect 78 0 50 1;
#X connect 79 0 50 1;
#X connect 80 0 50 1;
#X connect 83 0 84 0;
#X connect 83 0 91 0;
#X connect 85 0 50 1;
#X connect 87 0 88 0;
