#N canvas 806 346 965 661 10;
#X declare -lib mrpeach;
#X declare -lib mrpeach;
#X declare -lib mrpeach;
#X declare -lib mrpeach;
#X declare -lib mrpeach;
#X declare -lib mrpeach;
#X declare -lib mrpeach;
#X declare -lib mrpeach;
#X declare -lib mrpeach;
#X declare -lib mrpeach;
#X declare -lib mrpeach;
#X declare -lib mrpeach;
#X declare -lib mrpeach;
#X declare -lib mrpeach;
#X declare -lib mrpeach;
#X declare -lib mrpeach;
#X declare -lib mrpeach;
#X declare -lib mrpeach;
#X declare -lib mrpeach;
#X declare -lib mrpeach;
#X declare -lib mrpeach;
#X declare -lib mrpeach;
#X declare -lib mrpeach;
#X declare -lib mrpeach;
#X declare -lib mrpeach;
#X declare -lib mrpeach;
#X declare -path abs;
#X declare -path rj;
#X obj 6 -263 widget-spinConnect \$0;
#X obj 478 -291 widget-nodeEditor \$0;
#N canvas 353 126 548 276 spinners 0;
#X obj 17 -16 abs/spinzone \$0 5 5;
#X obj 17 4 abs/spinzone \$0 6 1;
#X obj 137 4 abs/spinzone \$0 12 2;
#X obj 257 4 abs/spinzone \$0 18 3;
#X obj 377 4 abs/spinzone \$0 24 4;
#X obj 16 124 abs/spinzone \$0 30 5;
#X obj 17 24 abs/spinzone \$0 7 7;
#X obj 17 44 abs/spinzone \$0 8 8;
#X obj 17 64 abs/spinzone \$0 9 9;
#X obj 17 84 abs/spinzone \$0 10 10;
#X obj 16 105 abs/spinzone \$0 29 29;
#X obj 137 -15 abs/spinzone \$0 11 11;
#X obj 136 24 abs/spinzone \$0 13 13;
#X obj 137 43 abs/spinzone \$0 14 14;
#X obj 136 64 abs/spinzone \$0 15 15;
#X obj 137 83 abs/spinzone \$0 16 16;
#X obj 257 -16 abs/spinzone \$0 17 17;
#X obj 256 24 abs/spinzone \$0 19 19;
#X obj 257 43 abs/spinzone \$0 20 20;
#X obj 257 64 abs/spinzone \$0 21 21;
#X obj 257 83 abs/spinzone \$0 22 22;
#X obj 378 -16 abs/spinzone \$0 23 23;
#X obj 376 24 abs/spinzone \$0 25 25;
#X obj 377 42 abs/spinzone \$0 26 26;
#X obj 377 64 abs/spinzone \$0 27 27;
#X obj 377 83 abs/spinzone \$0 28 28;
#X restore 858 -185 pd spinners;
#X obj 6 -303 loadbang;
#N canvas 12 79 1009 665 pulsars 0;
#X msg 57 67 createNode listener0 Listener;
#X obj 550 131 playlist all 400 300 {Helvetica 10 bold} #457782 yellow
black red;
#X obj 550 40 thisdir;
#X obj 550 62 makefilename %s/snd;
#X obj 552 20 bng 15 250 50 0 empty empty empty 17 7 0 10 -262144 -1
-1;
#X msg 550 84 location \$1;
#X obj 112 112 until;
#X obj 57 496 s \$0-to-SPIN-TCP;
#X obj 151 224 s \$0-to-SPIN-TCP;
#X obj 112 414 pack f s;
#X obj 276 542 print;
#X obj 550 435 print playlist;
#X msg 381 181 seek \$1;
#X obj 262 12 inlet;
#X obj 262 34 t b b b;
#X text 199 315 Offset the sound by 4m along the y-axis so that it
appears to orbit around the spinner:;
#X text 581 543 <- set the spinner speed;
#X obj 162 391 s \$0-to-SPIN-TCP;
#X msg 151 201 createNode pulse\$1 SoundNode;
#X msg 112 446 /pulse\$1 setDirectivityFlag 1 \, /pulse\$1 setParam
setMediaURI plugin://PulsarSampler \, /pulse\$1 setParam path \$2 \,
/pulse\$1 setParam stop 1;
#X msg 112 90 5;
#X obj 112 177 t a f f;
#X msg 162 369 /pulse\$1 setParent spinner\$2 \, /pulse\$1 setTranslation
0 4 0;
#X obj 131 260 t f f;
#X obj 131 315 pack f f;
#X obj 158 286 + 6;
#X obj 112 155 t f b;
#X obj 280 168 random 200;
#X msg 211 97 0;
#X obj 112 134 counter 5;
#X connect 0 0 7 0;
#X connect 1 0 11 0;
#X connect 1 0 9 1;
#X connect 2 0 3 0;
#X connect 3 0 5 0;
#X connect 4 0 2 0;
#X connect 5 0 1 0;
#X connect 6 0 29 0;
#X connect 9 0 19 0;
#X connect 12 0 1 0;
#X connect 13 0 14 0;
#X connect 14 0 20 0;
#X connect 14 1 0 0;
#X connect 14 2 4 0;
#X connect 14 2 28 0;
#X connect 18 0 8 0;
#X connect 19 0 7 0;
#X connect 19 0 10 0;
#X connect 20 0 6 0;
#X connect 21 0 9 0;
#X connect 21 1 23 0;
#X connect 21 2 18 0;
#X connect 22 0 17 0;
#X connect 23 0 24 0;
#X connect 23 1 25 0;
#X connect 24 0 22 0;
#X connect 25 0 24 1;
#X connect 26 0 21 0;
#X connect 26 1 27 0;
#X connect 27 0 12 0;
#X connect 28 0 29 2;
#X connect 29 0 26 0;
#X restore 867 -227 pd pulsars;
#X obj 851 -226 bng 15 250 50 0 empty empty empty 17 7 0 10 -262144
-1 -1;
#X obj 6 -216 sel ReCollect;
#X obj 858 -127 s \$0-to-SPIN-TCP;
#X obj 464 -45 nbx 5 14 -1e+37 1e+37 0 0 empty count_media num_of_soundfiles
0 -8 0 10 -4034 -1 -1 0 256;
#X obj 6 -194 s __init;
#X obj 809 -298 declare -path abs;
#X obj 809 -279 declare -path rj;
#X obj 7 -170 cnv 15 160 155 empty empty SoundNodes_initializers 20
12 0 10 -233017 -66577 0;
#X obj 26 -111 bng 15 250 50 0 empty __init empty 17 7 0 10 -262144
-1 -1;
#N canvas 648 126 1009 665 audio_ctl+spin 0;
#X msg 57 67 createNode listener0 Listener;
#X obj 550 131 playlist all 400 300 {Helvetica 10 bold} #457782 yellow
black red;
#X obj 550 40 thisdir;
#X obj 550 62 makefilename %s/snd;
#X obj 552 20 bng 15 250 50 0 empty empty empty 17 7 0 10 -262144 -1
-1;
#X msg 550 84 location \$1;
#X obj 112 112 until;
#X obj 57 496 s \$0-to-SPIN-TCP;
#X obj 233 317 s \$0-to-SPIN-TCP;
#X obj 112 200 t a f;
#X obj 112 414 pack f s;
#X obj 276 542 print;
#X obj 550 435 print playlist;
#X msg 381 181 seek \$1;
#X obj 262 12 inlet;
#X obj 262 34 t b b b;
#X msg 233 294 createNode snd\$1 SoundNode;
#X obj 162 391 s \$0-to-SPIN-TCP;
#X obj 221 203 sel 1;
#X obj 112 178 t f b;
#X obj 269 267 bng 15 250 50 0 empty empty empty 17 7 0 10 -262144
-1 -1;
#X floatatom 411 130 5 0 0 0 - - -;
#X obj 322 152 random 14;
#X obj 235 13 bng 15 250 50 0 empty empty empty 17 7 0 10 -262144 -1
-1;
#X obj 372 110 r count_media;
#X msg 176 97 0;
#X obj 450 546 s \$0-to-SPIN-TCP;
#X obj 108 240 t a a;
#X msg 450 497 createNode constrained\$1 ConstraintsNode \, /constrained\$1
setTarget box \, /constrained\$1 setConstraintMode 3 \, /constrained\$1
setComputationMode 1 \,;
#X obj 112 135 counter 5;
#X msg 112 91 5;
#X msg 162 369 /snd\$1 setParent constrained\$1 \, /snd\$1 setTranslation
0 0 0;
#X obj 108 282 t a a;
#X msg 112 446 /snd\$1 setDirectivityFlag 1 \, /snd\$1 setParam setMediaURI
file://\$2 \, /snd\$1 setParam loop 0 \, /snd\$1 setParam stop 1;
#X connect 0 0 7 0;
#X connect 1 0 12 0;
#X connect 1 0 10 1;
#X connect 2 0 3 0;
#X connect 3 0 5 0;
#X connect 4 0 2 0;
#X connect 5 0 1 0;
#X connect 6 0 29 0;
#X connect 9 0 27 0;
#X connect 9 1 16 0;
#X connect 10 0 33 0;
#X connect 13 0 1 0;
#X connect 14 0 15 0;
#X connect 15 0 30 0;
#X connect 15 1 0 0;
#X connect 15 2 4 0;
#X connect 15 2 25 0;
#X connect 16 0 8 0;
#X connect 18 0 20 0;
#X connect 19 0 9 0;
#X connect 19 1 22 0;
#X connect 21 0 13 0;
#X connect 22 0 13 0;
#X connect 23 0 15 0;
#X connect 24 0 22 1;
#X connect 25 0 29 2;
#X connect 27 0 32 0;
#X connect 27 1 28 0;
#X connect 28 0 26 0;
#X connect 29 0 19 0;
#X connect 29 2 18 0;
#X connect 30 0 6 0;
#X connect 31 0 17 0;
#X connect 32 0 10 0;
#X connect 32 1 31 0;
#X connect 33 0 7 0;
#X connect 33 0 11 0;
#X restore 43 -111 pd audio_ctl+spin;
#X obj 26 -131 del 2000;
#X obj 26 -152 r __init;
#X obj 6 -11 cnv 15 160 100 empty empty SoundNodes_controllers 20 12
0 10 -233017 -66577 0;
#N canvas 1117 302 738 487 instrument_controls 0;
#X obj 109 -2 sel 0 1 2 3 4;
#X floatatom 96 195 5 0 0 0 - - -;
#X obj 97 151 r cluster;
#X obj 161 148 bng 15 250 50 0 empty manual_trig empty 17 7 0 10 -262144
-1 -1;
#X obj 96 217 s ml_ctrl;
#X obj 186 197 sel 0 1 2 3 4;
#X obj 306 306 pack 0 0;
#X obj 306 225 bng 15 250 50 0 empty empty empty 17 7 0 10 -262144
-1 -1;
#X obj 306 245 t b b;
#X obj 351 287 expr random(1 \, 11)*0.1;
#X obj 410 346 prepend set;
#X msg 306 326 /snd\$1 setParam speed \$2 \, /snd\$1 setParam play
1;
#X obj 96 171 expr random(0 \, 5);
#X floatatom 272 170 5 0 0 0 - - -;
#X obj 31 238 s blitTrig;
#X msg 30 217 0;
#X obj 306 267 expr random(25 \, 30);
#X obj 185 220 monitor_and_delay;
#X obj 186 240 monitor_and_delay;
#X obj 185 260 monitor_and_delay;
#X obj 185 280 monitor_and_delay;
#X obj 185 299 monitor_and_delay;
#X obj 109 18 sfplayer_control \$0 0;
#X obj 86 18 bng 15 250 50 0 empty empty empty 17 7 0 10 -262144 -1
-1;
#X obj 86 38 bng 15 250 50 0 empty empty empty 17 7 0 10 -262144 -1
-1;
#X obj 85 58 bng 15 250 50 0 empty empty empty 17 7 0 10 -262144 -1
-1;
#X obj 87 79 bng 15 250 50 0 empty empty empty 17 7 0 10 -262144 -1
-1;
#X obj 87 100 bng 15 250 50 0 empty empty empty 17 7 0 10 -262144 -1
-1;
#X obj 390 60 r manual_trig;
#X obj 390 82 random 5;
#X msg 410 368 /snd27 setParam play 1;
#X obj 306 353 s \$0-to-SPIN;
#X obj 107 100 sfplayer_control \$0 4;
#X obj 108 38 sfplayer_control \$0 1;
#X obj 106 57 sfplayer_control \$0 2;
#X obj 108 78 sfplayer_control \$0 3;
#X connect 0 0 22 0;
#X connect 0 1 33 0;
#X connect 0 2 34 0;
#X connect 0 3 35 0;
#X connect 0 4 32 0;
#X connect 1 0 4 0;
#X connect 2 0 12 0;
#X connect 2 0 15 0;
#X connect 3 0 12 0;
#X connect 5 0 17 0;
#X connect 5 1 7 0;
#X connect 5 1 18 0;
#X connect 5 2 19 0;
#X connect 5 3 7 0;
#X connect 5 3 20 0;
#X connect 5 4 21 0;
#X connect 6 0 11 0;
#X connect 7 0 8 0;
#X connect 8 0 16 0;
#X connect 8 1 9 0;
#X connect 9 0 6 1;
#X connect 10 0 30 0;
#X connect 11 0 10 0;
#X connect 11 0 31 0;
#X connect 12 0 1 0;
#X connect 12 0 5 0;
#X connect 12 0 13 0;
#X connect 15 0 14 0;
#X connect 16 0 6 0;
#X connect 23 0 22 0;
#X connect 24 0 33 0;
#X connect 25 0 34 0;
#X connect 26 0 35 0;
#X connect 27 0 32 0;
#X connect 28 0 29 0;
#X connect 29 0 0 0;
#X connect 30 0 31 0;
#X restore 16 57 pd instrument_controls;
#N canvas 571 103 450 300 base_conf 1;
#X obj 34 207 shell;
#X obj 34 148 bng 15 250 50 0 empty __init init_media_count 17 7 0
10 -262144 -1 -1;
#X obj 34 167 thisdir;
#X msg 34 187 ls -l \$1/snd | wc -l;
#X obj 34 227 s count_media;
#X msg 50 69 createNode box ShapeNode;
#X obj 25 19 r __init;
#X obj 25 41 t b b;
#X text 111 27 create the box that contains the sound nodes;
#N canvas 368 244 592 316 setCamerViewOnLuoda 0;
#X obj 128 84 bng 15 250 50 0 empty empty empty 17 7 0 10 -262144 -1
-1;
#X text 147 79 set view for this example;
#X obj 134 156 spin.toCamera \$0;
#X msg 130 179 createNode grid GridNode;
#X obj 130 199 s \$0-to-SPIN-TCP;
#X msg 252 53 luoda;
#X obj 252 30 loadbang;
#X obj 119 24 inlet;
#X obj 135 48 t b b;
#X msg 159 105 setTranslation -26.11 -20.85 -16.31 \, setOrientation
-386 -175 -51 0 -50;
#X connect 0 0 9 0;
#X connect 3 0 4 0;
#X connect 5 0 2 1;
#X connect 6 0 5 0;
#X connect 7 0 8 0;
#X connect 8 0 0 0;
#X connect 8 1 5 0;
#X connect 9 0 2 0;
#X restore 203 133 pd setCamerViewOnLuoda;
#X obj 186 134 bng 15 250 50 0 empty __init empty 17 7 0 10 -262144
-1 -1;
#X msg 161 212 50;
#X obj 26 114 s \$0-to-SPIN;
#X msg 27 85 /box setScale 20 20 20 \, /box setColor 0.58 0.66 0.79
0.3 \, /box setRenderBin 200;
#X connect 0 0 4 0;
#X connect 1 0 2 0;
#X connect 2 0 3 0;
#X connect 3 0 0 0;
#X connect 5 0 12 0;
#X connect 6 0 7 0;
#X connect 7 0 13 0;
#X connect 7 1 5 0;
#X connect 10 0 9 0;
#X connect 11 0 4 0;
#X connect 13 0 12 0;
#X restore 257 -216 pd base_conf;
#X symbolatom 478 -310 10 0 0 0 - - -;
#X obj 170 -171 cnv 15 280 255 empty empty Show_control 20 12 0 10
-233017 -66577 0;
#N canvas 1176 424 714 629 physics 0;
#X obj 264 104 until;
#N canvas 571 157 450 300 velocities 0;
#X obj 124 53 inlet;
#X obj 124 75 t a b b b;
#X obj 140 99 random 10;
#X obj 140 121 - 5;
#X obj 140 143 * 0.1;
#X obj 207 100 random 10;
#X obj 207 122 - 5;
#X obj 207 144 * 0.1;
#X obj 272 99 random 10;
#X obj 272 121 - 5;
#X obj 272 143 * 0.1;
#X obj 125 181 pack f f f f;
#X obj 125 203 outlet;
#X floatatom 225 20 5 0 0 0 - - -;
#X obj 225 41 / 2;
#X connect 0 0 1 0;
#X connect 1 0 11 0;
#X connect 1 1 2 0;
#X connect 1 2 5 0;
#X connect 1 3 8 0;
#X connect 2 0 3 0;
#X connect 3 0 4 0;
#X connect 4 0 11 1;
#X connect 5 0 6 0;
#X connect 6 0 7 0;
#X connect 7 0 11 2;
#X connect 8 0 9 0;
#X connect 9 0 10 0;
#X connect 10 0 11 3;
#X connect 11 0 12 0;
#X connect 13 0 14 0;
#X connect 13 0 2 1;
#X connect 13 0 5 1;
#X connect 13 0 8 1;
#X connect 14 0 3 1;
#X connect 14 0 6 1;
#X connect 14 0 9 1;
#X restore 264 148 pd velocities;
#X msg 124 142 /ml* setParam play 1;
#X obj 302 56 r ml_ctrl;
#X msg 133 166 /gr* setParam play 1;
#X msg 430 33 0 0 0 0;
#X msg 437 56 0 1 0 0;
#X msg 436 80 0 -1 0 0;
#X msg 436 104 0 0 1 0;
#X msg 434 125 0 0 -1 0;
#X msg 166 217 /constrained0 setVelocity 1 0.7 0;
#X msg -44 100 /snd0 setParam play 1 \, /snd0 setParam loop 1 \, /snd0
setParam mul 5;
#X msg 292 226 /constrained* setVelocity \$2 \$3 0;
#X msg 435 147 0 0.5 -1 0;
#X msg -47 238 /snd* setParam play 1 \, /snd* setParam loop 1 \, /snd*
setParam mul 5;
#X msg 264 82 15;
#X obj 264 126 counter 0 15;
#X msg 264 168 /constrained\$1 setVelocity \$2 \$3 0;
#X obj 263 9 r tick;
#X obj 263 31 % 20;
#X obj 263 53 sel 0;
#X msg 293 249 /constrained* translateTo -10 -10 0 3 LinearMotion;
#X msg 121 477 /constrained* translateTo \$2 \$3 0 \$4 LinearMotion
;
#X obj 121 439 bng 15 250 50 0 empty empty empty 17 7 0 10 -262144
-1 -1;
#N canvas 571 147 450 300 linearTranslations 0;
#X obj 124 53 inlet;
#X obj 140 99 random 10;
#X obj 140 121 - 5;
#X obj 207 100 random 10;
#X obj 207 122 - 5;
#X obj 125 181 pack f f f f;
#X obj 125 203 outlet;
#X floatatom 225 20 5 0 0 0 - - -;
#X obj 225 41 / 2;
#X obj 124 75 t b b b b;
#X obj 272 99 random 3;
#X obj 271 120 + 0.5;
#X connect 0 0 9 0;
#X connect 1 0 2 0;
#X connect 2 0 5 1;
#X connect 3 0 4 0;
#X connect 4 0 5 2;
#X connect 5 0 6 0;
#X connect 7 0 8 0;
#X connect 7 0 1 1;
#X connect 7 0 3 1;
#X connect 7 0 10 1;
#X connect 8 0 2 1;
#X connect 8 0 4 1;
#X connect 8 0 11 1;
#X connect 9 0 5 0;
#X connect 9 1 1 0;
#X connect 9 2 3 0;
#X connect 9 3 10 0;
#X connect 10 0 11 0;
#X connect 11 0 5 3;
#X restore 121 458 pd linearTranslations;
#X obj 123 311 r Trigger1;
#X obj 193 311 r Trigger2;
#X obj 263 311 r Trigger3;
#X obj 333 311 r Trigger4;
#X obj 403 311 r Trigger5;
#X obj 121 498 s \$0-to-SPIN;
#X obj 264 189 s \$0-to-SPIN;
#X msg 297 267 /constrained* translateTo 0 0 0 3 LinearMotion;
#X connect 0 0 16 0;
#X connect 1 0 17 0;
#X connect 2 0 31 0;
#X connect 3 0 15 0;
#X connect 4 0 31 0;
#X connect 5 0 12 0;
#X connect 6 0 12 0;
#X connect 7 0 12 0;
#X connect 8 0 12 0;
#X connect 9 0 12 0;
#X connect 10 0 31 0;
#X connect 11 0 31 0;
#X connect 12 0 31 0;
#X connect 13 0 12 0;
#X connect 14 0 31 0;
#X connect 15 0 0 0;
#X connect 16 0 1 0;
#X connect 17 0 31 0;
#X connect 18 0 19 0;
#X connect 19 0 20 0;
#X connect 20 0 15 0;
#X connect 21 0 31 0;
#X connect 22 0 30 0;
#X connect 23 0 24 0;
#X connect 24 0 22 0;
#X connect 25 0 23 0;
#X connect 26 0 23 0;
#X connect 27 0 23 0;
#X connect 28 0 23 0;
#X connect 29 0 23 0;
#X connect 32 0 31 0;
#X restore 683 -33 pd physics;
#X obj 6 93 cnv 15 160 150 empty empty Visualization 20 12 0 10 -233017
-66577 0;
#N canvas 62 384 753 341 speakers 0;
#X obj 48 16 inlet;
#X obj 19 251 s \$0-to-SPIN;
#X msg 21 52 createNode speaker1 ShapeNode \, /speaker1 setTranslation
0 3.91 0 \, /speaker1 setColor 0.3 0.3 0.3 1;
#X msg 31 93 createNode speaker2 ShapeNode \, /speaker2 setTranslation
3 1.48 0 \, /speaker2 setColor 0.3 0.3 0.3 1;
#X msg 38 135 createNode speaker3 ShapeNode \, /speaker3 setTranslation
1.69 -2.49 0 \, /speaker3 setColor 0.3 0.3 0.3 1;
#X msg 48 175 createNode speaker4 ShapeNode \, /speaker4 setTranslation
-1.69 -2.49 0 \, /speaker4 setColor 0.3 0.3 0.3 1;
#X msg 57 215 createNode speaker5 ShapeNode \, /speaker5 setTranslation
-3 1.48 0 \, /speaker5 setColor 0.3 0.3 0.3 1;
#X connect 0 0 2 0;
#X connect 0 0 3 0;
#X connect 0 0 4 0;
#X connect 0 0 5 0;
#X connect 0 0 6 0;
#X connect 2 0 1 0;
#X connect 3 0 1 0;
#X connect 4 0 1 0;
#X connect 5 0 1 0;
#X connect 6 0 1 0;
#X restore 30 117 pd speakers;
#X obj 14 117 bng 15 250 50 0 empty __init empty 17 7 0 10 -262144
-1 -1;
#N canvas 67 151 738 585 LEDs 0;
#X obj 193 81 bng 15 250 50 0 empty empty empty 17 7 0 10 -262144 -1
-1;
#X obj 191 101 bng 15 250 50 0 empty empty empty 17 7 0 10 -262144
-1 -1;
#X obj 191 121 bng 15 250 50 0 empty empty empty 17 7 0 10 -262144
-1 -1;
#X obj 191 141 bng 15 250 50 0 empty empty empty 17 7 0 10 -262144
-1 -1;
#X obj 191 161 bng 15 250 50 0 empty empty empty 17 7 0 10 -262144
-1 -1;
#X obj 78 54 t b b b b b;
#X obj 53 163 t b;
#X obj 75 26 inlet;
#X msg 52 220 /nodeRoot0 setTranslation 0 3.91 -1;
#X msg 60 240 /nodeRoot5 setTranslation 3 1.48 -1;
#X msg 68 263 /nodeRoot10 setTranslation 1.69 -2.49 -1;
#X msg 78 281 /nodeRoot15 setTranslation -1.69 -2.49 -1;
#X msg 89 303 /nodeRoot20 setTranslation -3 1.48 -1;
#X obj 209 160 cluster3D \$0 20;
#X obj 123 80 del 1000;
#X obj 108 102 del 2000;
#X obj 83 134 del 3000;
#X obj 83 156 t b b;
#X obj 83 178 del 1000;
#X msg 289 384 /reporter* removeTarget constrained\$1;
#X floatatom 407 341 5 0 0 0 - - -;
#X obj 209 81 cluster3D \$0 0;
#X obj 209 101 cluster3D \$0 5;
#X obj 208 120 cluster3D \$0 10;
#X obj 209 141 cluster3D \$0 15;
#X obj 57 326 s \$0-to-SPIN;
#X connect 0 0 21 0;
#X connect 1 0 22 0;
#X connect 2 0 23 0;
#X connect 3 0 24 0;
#X connect 4 0 13 0;
#X connect 5 0 6 0;
#X connect 5 1 16 0;
#X connect 5 2 15 0;
#X connect 5 3 14 0;
#X connect 5 4 0 0;
#X connect 6 0 12 0;
#X connect 6 0 11 0;
#X connect 6 0 10 0;
#X connect 6 0 9 0;
#X connect 6 0 8 0;
#X connect 7 0 5 0;
#X connect 8 0 25 0;
#X connect 9 0 25 0;
#X connect 10 0 25 0;
#X connect 11 0 25 0;
#X connect 12 0 25 0;
#X connect 14 0 1 0;
#X connect 15 0 2 0;
#X connect 16 0 17 0;
#X connect 17 0 18 0;
#X connect 17 1 3 0;
#X connect 18 0 4 0;
#X connect 19 0 25 0;
#X connect 20 0 19 0;
#X restore 31 139 pd LEDs;
#X obj 13 139 bng 15 250 50 0 empty __init empty 17 7 0 10 -262144
-1 -1;
#X obj 105 -212 bng 15 250 50 0 empty empty INIT 17 7 0 10 -260097
-258113 -258113;
#X obj 170 92 cnv 15 160 150 empty empty Manual_ctrl 20 12 0 10 -233017
-66577 0;
#X obj 183 116 bng 15 250 50 0 manual_trig empty trigger_random 17
7 0 10 -262144 -1 -1;
#X obj 464 -23 tgl 15 1 reporterON reporterON-set reporterON 17 7 0
10 -204786 -1 -159808 0 1;
#X obj 464 -5 tgl 15 1 dronesON dronesON-set dronesON 17 7 0 10 -204786
-1 -1 0 1;
#N canvas 571 202 450 300 reporters 0;
#X obj -170 16 LEDfromReporter \$0 0;
#X obj -170 35 LEDfromReporter \$0 1;
#X obj -170 56 LEDfromReporter \$0 2;
#X obj -171 76 LEDfromReporter \$0 3;
#X obj -170 96 LEDfromReporter \$0 4;
#X obj -170 117 LEDfromReporter \$0 5;
#X obj -40 35 LEDfromReporter \$0 7;
#X obj -40 56 LEDfromReporter \$0 8;
#X obj -41 76 LEDfromReporter \$0 9;
#X obj -40 96 LEDfromReporter \$0 10;
#X obj -39 117 LEDfromReporter \$0 11;
#X obj 90 35 LEDfromReporter \$0 13;
#X obj 90 56 LEDfromReporter \$0 14;
#X obj 89 76 LEDfromReporter \$0 15;
#X obj 90 96 LEDfromReporter \$0 16;
#X obj 90 117 LEDfromReporter \$0 17;
#X obj -166 161 LEDfromReporter \$0 19;
#X obj -166 182 LEDfromReporter \$0 20;
#X obj -168 203 LEDfromReporter \$0 21;
#X obj -166 222 LEDfromReporter \$0 22;
#X obj -166 243 LEDfromReporter \$0 23;
#X obj -36 161 LEDfromReporter \$0 25;
#X restore 683 -8 pd reporters;
#X text 543 -26 sounds affect lights;
#X msg 6 -283 okta;
#X obj 858 -146 r toSpin;
#X connect 3 0 35 0;
#X connect 5 0 4 0;
#X connect 6 0 9 0;
#X connect 13 0 14 0;
#X connect 15 0 13 0;
#X connect 16 0 15 0;
#X connect 20 0 1 0;
#X connect 25 0 24 0;
#X connect 27 0 26 0;
#X connect 28 0 9 0;
#X connect 35 0 0 0;
#X connect 36 0 7 0;
