#N canvas 488 111 408 538 10;
#X declare -path abs;
#X declare -path rj;
#X obj 6 30 widget-spinConnect \$0;
#X obj 592 -13 widget-nodeEditor \$0;
#X obj 6 -29 loadbang;
#X obj 845 728 nbx 5 14 -1e+37 1e+37 0 0 empty count_media num_of_soundfiles
0 -8 0 10 -4034 -1 -1 0 256;
#X obj 18 108 s __init;
#X obj 376 -15 declare -path abs;
#X obj 376 4 declare -path rj;
#X obj 999 613 cnv 15 160 155 empty empty SoundNodes_initializers 20
12 0 10 -233017 -66577 0;
#X obj 1018 680 bng 15 250 50 0 empty __init empty 17 7 0 10 -262144
-1 -1;
#N canvas 844 168 1009 665 audio_ctl+spin 0;
#X msg 57 67 createNode listener0 Listener;
#X obj 550 131 playlist all 400 300 {Helvetica 10 bold} #457782 yellow
black red;
#X obj 550 40 thisdir;
#X obj 550 62 makefilename %s/snd;
#X obj 552 20 bng 15 250 50 0 empty empty empty 17 7 0 10 -262144 -1
-1;
#X msg 550 84 location \$1;
#X obj 112 112 until;
#X obj 112 200 t a f;
#X obj 112 414 pack f s;
#X obj 276 542 print;
#X obj 550 435 print playlist;
#X msg 381 181 seek \$1;
#X obj 262 12 inlet;
#X obj 262 34 t b b b;
#X msg 233 294 createNode snd\$1 SoundNode;
#X obj 221 203 sel 1;
#X obj 112 178 t f b;
#X obj 269 267 bng 15 250 50 0 empty empty empty 17 7 0 10 -262144
-1 -1;
#X floatatom 411 130 5 0 0 0 - - -;
#X obj 322 152 random 14;
#X obj 235 13 bng 15 250 50 0 empty empty empty 17 7 0 10 -262144 -1
-1;
#X obj 372 110 r count_media;
#X msg 176 97 0;
#X obj 108 240 t a a;
#X msg 450 497 createNode constrained\$1 ConstraintsNode \, /constrained\$1
setTarget box \, /constrained\$1 setConstraintMode 3 \, /constrained\$1
setComputationMode 1 \,;
#X msg 162 369 /snd\$1 setParent constrained\$1 \, /snd\$1 setTranslation
0 0 0;
#X obj 108 282 t a a;
#X msg 314 608 createNode sin SoundNode \, /sin setDirectivityFlag
1 \, /sin setParam setMediaURI plugin://SimpleSin \, /sin setParam
play 1;
#X msg 112 446 /snd\$1 setDirectivityFlag 1 \, /snd\$1 setParam setMediaURI
file://\$2 \, /snd\$1 setParam loop 0 \, /snd\$1 setParam play 1;
#X obj 57 496 s \$0-to-SPIN;
#X obj 233 317 s \$0-to-SPIN;
#X obj 450 546 s \$0-to-SPIN;
#X obj 162 391 s \$0-to-SPIN;
#X obj 112 135 counter 8;
#X msg 112 91 8;
#X connect 0 0 29 0;
#X connect 1 0 10 0;
#X connect 1 0 8 1;
#X connect 2 0 3 0;
#X connect 3 0 5 0;
#X connect 4 0 2 0;
#X connect 5 0 1 0;
#X connect 6 0 33 0;
#X connect 7 0 23 0;
#X connect 7 1 14 0;
#X connect 8 0 28 0;
#X connect 11 0 1 0;
#X connect 12 0 13 0;
#X connect 13 0 34 0;
#X connect 13 1 0 0;
#X connect 13 2 4 0;
#X connect 13 2 22 0;
#X connect 14 0 30 0;
#X connect 15 0 17 0;
#X connect 16 0 7 0;
#X connect 16 1 19 0;
#X connect 18 0 11 0;
#X connect 19 0 11 0;
#X connect 20 0 13 0;
#X connect 21 0 19 1;
#X connect 22 0 33 2;
#X connect 23 0 26 0;
#X connect 23 1 24 0;
#X connect 24 0 31 0;
#X connect 25 0 32 0;
#X connect 26 0 8 0;
#X connect 26 1 25 0;
#X connect 27 0 29 0;
#X connect 28 0 9 0;
#X connect 28 0 29 0;
#X connect 33 0 16 0;
#X connect 33 2 15 0;
#X connect 34 0 6 0;
#X restore 1035 680 pd audio_ctl+spin;
#X obj 1018 652 del 2000;
#X obj 1018 631 r __init;
#X obj 1000 507 cnv 15 160 100 empty empty SoundNodes_controllers 20
12 0 10 -233017 -66577 0;
#N canvas 670 547 738 487 instrument_controls 0;
#X obj 109 -2 sel 0 1 2 3 4;
#X floatatom 96 195 5 0 0 0 - - -;
#X obj 97 151 r cluster;
#X obj 161 148 bng 15 250 50 0 empty manual_trig empty 17 7 0 10 -262144
-1 -1;
#X obj 96 217 s ml_ctrl;
#X obj 186 197 sel 0 1 2 3 4;
#X obj 306 306 pack 0 0;
#X obj 306 225 bng 15 250 50 0 empty empty empty 17 7 0 10 -262144
-1 -1;
#X obj 306 245 t b b;
#X obj 351 287 expr random(1 \, 11)*0.1;
#X obj 410 346 prepend set;
#X msg 306 326 /snd\$1 setParam speed \$2 \, /snd\$1 setParam play
1;
#X obj 96 171 expr random(0 \, 5);
#X floatatom 272 170 5 0 0 0 - - -;
#X obj 31 238 s blitTrig;
#X msg 30 217 0;
#X obj 306 267 expr random(25 \, 30);
#X obj 185 220 monitor_and_delay;
#X obj 186 240 monitor_and_delay;
#X obj 185 260 monitor_and_delay;
#X obj 185 280 monitor_and_delay;
#X obj 185 299 monitor_and_delay;
#X obj 86 18 bng 15 250 50 0 empty empty empty 17 7 0 10 -262144 -1
-1;
#X obj 86 38 bng 15 250 50 0 empty empty empty 17 7 0 10 -262144 -1
-1;
#X obj 85 58 bng 15 250 50 0 empty empty empty 17 7 0 10 -262144 -1
-1;
#X obj 87 79 bng 15 250 50 0 empty empty empty 17 7 0 10 -262144 -1
-1;
#X obj 87 100 bng 15 250 50 0 empty empty empty 17 7 0 10 -262144 -1
-1;
#X msg 410 368 /snd25 setParam play 1;
#X obj 306 353 s \$0-to-SPIN;
#X obj 108 78 sfplayer_control \$0 3;
#X obj 108 38 sfplayer_control \$0 1;
#X obj 109 18 sfplayer_control \$0 0;
#X obj 107 100 sfplayer_control \$0 4;
#X obj 106 57 sfplayer_control \$0 2;
#X connect 0 0 31 0;
#X connect 0 1 30 0;
#X connect 0 2 33 0;
#X connect 0 3 29 0;
#X connect 0 4 32 0;
#X connect 1 0 4 0;
#X connect 2 0 12 0;
#X connect 2 0 15 0;
#X connect 3 0 12 0;
#X connect 5 0 17 0;
#X connect 5 1 7 0;
#X connect 5 1 18 0;
#X connect 5 2 19 0;
#X connect 5 3 7 0;
#X connect 5 3 20 0;
#X connect 5 4 21 0;
#X connect 6 0 11 0;
#X connect 7 0 8 0;
#X connect 8 0 16 0;
#X connect 8 1 9 0;
#X connect 9 0 6 1;
#X connect 10 0 27 0;
#X connect 11 0 10 0;
#X connect 11 0 28 0;
#X connect 12 0 1 0;
#X connect 12 0 5 0;
#X connect 12 0 13 0;
#X connect 15 0 14 0;
#X connect 16 0 6 0;
#X connect 22 0 31 0;
#X connect 23 0 30 0;
#X connect 24 0 33 0;
#X connect 25 0 29 0;
#X connect 26 0 32 0;
#X connect 27 0 28 0;
#X restore 1010 575 pd instrument_controls;
#N canvas 501 590 765 429 base_conf 0;
#X obj 34 207 shell;
#X obj 34 148 bng 15 250 50 0 empty __init init_media_count 17 7 0
10 -262144 -1 -1;
#X obj 34 167 thisdir;
#X msg 34 187 ls -l \$1/snd | wc -l;
#X obj 161 233 s count_media;
#X msg 50 69 createNode box ShapeNode;
#X obj 25 19 r __init;
#X obj 25 41 t b b;
#X text 111 27 create the box that contains the sound nodes;
#N canvas 676 443 981 531 setCamerViewOnLuoda 0;
#X obj 78 144 bng 15 250 50 0 empty empty empty 17 7 0 10 -262144 -1
-1;
#X text 97 139 set view for this example;
#X obj 95 290 spin.toCamera \$0;
#X msg 80 319 createNode grid GridNode;
#X obj 69 84 inlet;
#X obj 85 108 t b b;
#X obj 547 24 subwidget-ViewCtl \$0;
#X obj 297 100 r side_view;
#X obj 306 123 r top_view;
#X msg 140 204 setTranslation -0.7 0.15 55 \, setOrientation -90 0
0;
#X msg 122 170 setTranslation -31.9 -27.99 -18.649 \, setOrientation
-385 -178 -46;
#X obj 400 73 hostname;
#X obj 395 47 bng 15 250 50 0 empty empty empty 17 7 0 10 -262144 -1
-1;
#X obj 405 104 prepend set;
#X msg 405 126 luoda;
#X obj 420 44 loadbang;
#X obj 80 339 s \$0-to-SPIN;
#X connect 0 0 9 0;
#X connect 3 0 16 0;
#X connect 4 0 5 0;
#X connect 5 0 0 0;
#X connect 5 1 14 0;
#X connect 7 0 10 0;
#X connect 8 0 9 0;
#X connect 9 0 2 0;
#X connect 10 0 2 0;
#X connect 11 0 13 0;
#X connect 12 0 11 0;
#X connect 13 0 14 0;
#X connect 14 0 2 1;
#X connect 15 0 11 0;
#X restore 203 133 pd setCamerViewOnLuoda;
#X obj 186 134 bng 15 250 50 0 empty __init empty 17 7 0 10 -262144
-1 -1;
#X msg 161 212 50;
#X obj 26 114 s \$0-to-SPIN;
#X msg 27 85 /box setScale 25 25 20 \, /box setColor 0.58 0.66 0.79
0.3 \, /box setRenderBin 200;
#X connect 1 0 2 0;
#X connect 1 0 11 0;
#X connect 2 0 3 0;
#X connect 3 0 0 0;
#X connect 5 0 12 0;
#X connect 6 0 7 0;
#X connect 7 0 13 0;
#X connect 7 1 5 0;
#X connect 10 0 9 0;
#X connect 11 0 4 0;
#X connect 13 0 12 0;
#X restore 257 77 pd base_conf;
#X symbolatom 592 -32 10 0 0 0 - - -;
#X obj 709 239 cnv 15 280 255 empty empty Show_control 20 12 0 10 -233017
-66577 0;
#N canvas 1162 121 714 629 physics 0;
#X obj 264 104 until;
#N canvas 571 157 450 300 velocities 0;
#X obj 124 53 inlet;
#X obj 124 75 t a b b b;
#X obj 140 99 random 10;
#X obj 140 121 - 5;
#X obj 140 143 * 0.1;
#X obj 207 100 random 10;
#X obj 207 122 - 5;
#X obj 207 144 * 0.1;
#X obj 272 99 random 10;
#X obj 272 121 - 5;
#X obj 272 143 * 0.1;
#X obj 125 181 pack f f f f;
#X obj 125 203 outlet;
#X floatatom 225 20 5 0 0 0 - - -;
#X obj 225 41 / 2;
#X connect 0 0 1 0;
#X connect 1 0 11 0;
#X connect 1 1 2 0;
#X connect 1 2 5 0;
#X connect 1 3 8 0;
#X connect 2 0 3 0;
#X connect 3 0 4 0;
#X connect 4 0 11 1;
#X connect 5 0 6 0;
#X connect 6 0 7 0;
#X connect 7 0 11 2;
#X connect 8 0 9 0;
#X connect 9 0 10 0;
#X connect 10 0 11 3;
#X connect 11 0 12 0;
#X connect 13 0 14 0;
#X connect 13 0 2 1;
#X connect 13 0 5 1;
#X connect 13 0 8 1;
#X connect 14 0 3 1;
#X connect 14 0 6 1;
#X connect 14 0 9 1;
#X restore 264 148 pd velocities;
#X msg 124 142 /ml* setParam play 1;
#X obj 302 56 r ml_ctrl;
#X msg 133 166 /gr* setParam play 1;
#X msg 430 33 0 0 0 0;
#X msg 437 56 0 1 0 0;
#X msg 436 80 0 -1 0 0;
#X msg 436 104 0 0 1 0;
#X msg 434 125 0 0 -1 0;
#X msg -6 206 /constrained0 setVelocity 1 0.7 0;
#X msg -44 100 /snd0 setParam play 1 \, /snd0 setParam loop 1 \, /snd0
setParam mul 5;
#X msg 292 226 /constrained* setVelocity \$2 \$3 0;
#X msg 435 147 0 0.5 -1 0;
#X msg -47 238 /snd* setParam play 1 \, /snd* setParam loop 1 \, /snd*
setParam mul 5;
#X msg 264 82 15;
#X obj 264 126 counter 0 15;
#X msg 264 168 /constrained\$1 setVelocity \$2 \$3 0;
#X obj 263 9 r tick;
#X obj 263 31 % 20;
#X obj 263 53 sel 0;
#X msg 293 249 /constrained* translateTo -10 -10 0 3 LinearMotion;
#X msg 26 508 /constrained* translateTo \$2 \$3 0 \$4 LinearMotion
;
#X obj 26 470 bng 15 250 50 0 empty empty empty 17 7 0 10 -262144 -1
-1;
#N canvas 571 147 450 300 linearTranslations 0;
#X obj 124 53 inlet;
#X obj 140 99 random 10;
#X obj 140 121 - 5;
#X obj 207 100 random 10;
#X obj 207 122 - 5;
#X obj 125 181 pack f f f f;
#X obj 125 203 outlet;
#X floatatom 225 20 5 0 0 0 - - -;
#X obj 225 41 / 2;
#X obj 124 75 t b b b b;
#X obj 272 99 random 3;
#X obj 271 120 + 0.5;
#X connect 0 0 9 0;
#X connect 1 0 2 0;
#X connect 2 0 5 1;
#X connect 3 0 4 0;
#X connect 4 0 5 2;
#X connect 5 0 6 0;
#X connect 7 0 8 0;
#X connect 7 0 1 1;
#X connect 7 0 3 1;
#X connect 7 0 10 1;
#X connect 8 0 2 1;
#X connect 8 0 4 1;
#X connect 8 0 11 1;
#X connect 9 0 5 0;
#X connect 9 1 1 0;
#X connect 9 2 3 0;
#X connect 9 3 10 0;
#X connect 10 0 11 0;
#X connect 11 0 5 3;
#X restore 26 489 pd linearTranslations;
#X obj 123 311 r Trigger1;
#X obj 193 311 r Trigger2;
#X obj 263 311 r Trigger3;
#X obj 333 311 r Trigger4;
#X obj 403 311 r Trigger5;
#X obj 26 529 s \$0-to-SPIN;
#X obj 264 189 s \$0-to-SPIN;
#X msg 297 267 /constrained* translateTo 0 0 0 3 LinearMotion;
#X msg 337 394 /constrained* translateTo 7 9 0 5 LinearMotion;
#X msg 339 451 /constrained* translateTo 7 -9 0 5 LinearMotion;
#X msg 342 479 /constrained* translateTo -7 -9 0 5 LinearMotion;
#X msg 340 422 /constrained* translateTo -7 9 0 5 LinearMotion;
#X connect 0 0 16 0;
#X connect 1 0 17 0;
#X connect 2 0 31 0;
#X connect 3 0 15 0;
#X connect 4 0 31 0;
#X connect 5 0 12 0;
#X connect 6 0 12 0;
#X connect 7 0 12 0;
#X connect 8 0 12 0;
#X connect 9 0 12 0;
#X connect 10 0 31 0;
#X connect 11 0 31 0;
#X connect 12 0 31 0;
#X connect 13 0 12 0;
#X connect 14 0 31 0;
#X connect 15 0 0 0;
#X connect 16 0 1 0;
#X connect 17 0 31 0;
#X connect 18 0 19 0;
#X connect 19 0 20 0;
#X connect 20 0 15 0;
#X connect 21 0 31 0;
#X connect 22 0 30 0;
#X connect 23 0 24 0;
#X connect 24 0 22 0;
#X connect 25 0 23 0;
#X connect 26 0 23 0;
#X connect 27 0 23 0;
#X connect 28 0 23 0;
#X connect 29 0 23 0;
#X connect 32 0 31 0;
#X connect 33 0 30 0;
#X connect 34 0 30 0;
#X connect 35 0 30 0;
#X connect 36 0 30 0;
#X restore 1078 182 pd physics;
#X obj 1000 352 cnv 15 160 150 empty empty Visualization 20 12 0 10
-233017 -66577 0;
#N canvas 469 509 1427 472 speakers 0;
#X obj 51 16 inlet;
#X obj 51 117 until;
#X obj 51 139 f;
#X obj 79 138 + 1;
#X obj 51 45 t b b;
#X msg 99 94 0;
#X obj 33 404 s \$0-to-SPIN;
#X obj 92 18 bng 15 250 50 0 empty empty empty 17 7 0 10 -262144 -1
-1;
#X msg 51 95 6;
#X msg 50 183 4;
#X obj 50 205 t a b;
#X obj 50 227 until;
#X obj 50 249 f;
#X obj 75 249 + 1;
#X obj 50 161 t b a;
#X obj 50 271 pack f f;
#X obj 50 293 t a a;
#N canvas 258 577 637 366 coords 0;
#X obj 73 40 inlet;
#X obj 73 62 unpack;
#X obj 74 171 f;
#X obj 101 126 sel 0;
#X obj 73 84 mod 4;
#X obj 74 106 t b f;
#X obj 227 84 mod 6;
#X obj 227 106 sel 0 1 2 3 4 5;
#X obj 228 195 f;
#X obj 113 215 pack;
#X obj 113 237 outlet;
#X obj 102 171 + 4;
#X msg 213 136 10;
#X msg 244 136 6;
#X msg 277 137 2;
#X msg 313 137 -2;
#X msg 347 139 -6;
#X msg 383 136 -10;
#X msg 101 148 -6;
#X connect 0 0 1 0;
#X connect 1 0 4 0;
#X connect 1 1 6 0;
#X connect 2 0 9 0;
#X connect 2 0 11 0;
#X connect 3 0 18 0;
#X connect 4 0 5 0;
#X connect 5 0 2 0;
#X connect 5 1 3 0;
#X connect 6 0 7 0;
#X connect 7 0 12 0;
#X connect 7 1 13 0;
#X connect 7 2 14 0;
#X connect 7 3 15 0;
#X connect 7 4 16 0;
#X connect 7 5 17 0;
#X connect 8 0 9 1;
#X connect 9 0 10 0;
#X connect 11 0 2 1;
#X connect 12 0 8 0;
#X connect 13 0 8 0;
#X connect 14 0 8 0;
#X connect 15 0 8 0;
#X connect 16 0 8 0;
#X connect 17 0 8 0;
#X connect 18 0 2 1;
#X restore 77 317 pd coords;
#X obj 50 340 list append;
#X msg 50 315 \$1;
#X msg 33 367 createNode speaker\$1 ShapeNode \, /speaker\$1 setTranslation
\$2 \$3 0;
#X obj 136 337 print;
#X msg 720 61 createNode speakerC1 ShapeNode \, /speakerC1 setTranslation
-12.5 2.5 0;
#X msg 720 91 createNode speakerC2 ShapeNode \, /speakerC2 setTranslation
-7.5 2.5 0;
#X msg 722 121 createNode speakerC3 ShapeNode \, /speakerC3 setTranslation
-2.5 2.5 0;
#X msg 721 152 createNode speakerC4 ShapeNode \, /speakerC4 setTranslation
2.5 2.5 0;
#X msg 721 182 createNode speakerC5 ShapeNode \, /speakerC5 setTranslation
7.5 2.5 0;
#X obj 319 314 s \$0-to-SPIN;
#X obj 707 251 s \$0-to-SPIN;
#X obj 1097 251 s \$0-to-SPIN;
#X msg 1109 61 createNode speakerD1 ShapeNode \, /speakerD1 setTranslation
-12.5 -2.5 0;
#X msg 1110 91 createNode speakerD2 ShapeNode \, /speakerD2 setTranslation
-7.5 -2.5 0;
#X msg 1112 121 createNode speakerD3 ShapeNode \, /speakerD3 setTranslation
-2.5 -2.5 0;
#X msg 1111 152 createNode speakerD4 ShapeNode \, /speakerD4 setTranslation
2.5 -2.5 0;
#X msg 1111 182 createNode speakerD5 ShapeNode \, /speakerD5 setTranslation
7.5 -2.5 0;
#X msg 341 168 createNode speakerB1 ShapeNode \, /speakerB1 setTranslation
-10 7.5 0;
#X msg 340 203 createNode speakerB2 ShapeNode \, /speakerB2 setTranslation
-5 7.5 0;
#X msg 339 238 createNode speakerB3 ShapeNode \, /speakerB3 setTranslation
0 7.5 0;
#X msg 340 273 createNode speakerB4 ShapeNode \, /speakerB4 setTranslation
5 7.5 0;
#X msg 341 95 createNode speakerA2 ShapeNode \, /speakerA2 setTranslation
2.5 12.5 0;
#X msg 341 128 createNode speakerA3 ShapeNode \, /speakerA3 setTranslation
7.5 12.5 0;
#X obj 695 448 s \$0-to-SPIN;
#X msg 709 321 createNode speakerE1 ShapeNode \, /speakerE1 setTranslation
-12.5 -7.5 0;
#X msg 710 350 createNode speakerE2 ShapeNode \, /speakerE2 setTranslation
-7.5 -7.5 0;
#X msg 711 381 createNode speakerE3 ShapeNode \, /speakerE3 setTranslation
-2.5 -7.5 0;
#X msg 711 412 createNode speakerE4 ShapeNode \, /speakerE4 setTranslation
2.5 -7.5 0;
#X obj 1079 384 s \$0-to-SPIN;
#X msg 1089 311 createNode speakerF1 ShapeNode \, /speakerF1 setTranslation
-12.5 -12.5 0;
#X msg 1090 340 createNode speakerF2 ShapeNode \, /speakerF2 setTranslation
-7.5 -12.5 0;
#X obj 1090 28 r \$0-speakers;
#X obj 712 38 r \$0-speakers;
#X obj 330 36 r \$0-speakers;
#X obj 77 66 s \$0-speakers;
#X obj 706 296 r \$0-speakers;
#X obj 1079 288 r \$0-speakers;
#X msg 341 61 createNode speakerA1 ShapeNode \, /speakerA1 setTranslation
-2.5 12.5 0;
#X msg 721 212 createNode speakerC6 ShapeNode \, /speakerC6 setTranslation
12.5 2.5 0;
#X text 459 5 place virtual speakers;
#X connect 0 0 4 0;
#X connect 1 0 2 0;
#X connect 2 0 3 0;
#X connect 2 0 14 0;
#X connect 3 0 2 1;
#X connect 4 1 52 0;
#X connect 5 0 2 1;
#X connect 5 0 12 1;
#X connect 7 0 4 0;
#X connect 8 0 1 0;
#X connect 9 0 10 0;
#X connect 10 0 11 0;
#X connect 11 0 12 0;
#X connect 12 0 13 0;
#X connect 12 0 15 0;
#X connect 13 0 12 1;
#X connect 14 0 9 0;
#X connect 14 1 15 1;
#X connect 15 0 16 0;
#X connect 16 0 19 0;
#X connect 16 1 17 0;
#X connect 17 0 18 1;
#X connect 17 0 21 0;
#X connect 19 0 18 0;
#X connect 20 0 6 0;
#X connect 22 0 28 0;
#X connect 23 0 28 0;
#X connect 24 0 28 0;
#X connect 25 0 28 0;
#X connect 26 0 28 0;
#X connect 30 0 29 0;
#X connect 31 0 29 0;
#X connect 32 0 29 0;
#X connect 33 0 29 0;
#X connect 34 0 29 0;
#X connect 35 0 27 0;
#X connect 36 0 27 0;
#X connect 37 0 27 0;
#X connect 38 0 27 0;
#X connect 39 0 27 0;
#X connect 40 0 27 0;
#X connect 42 0 41 0;
#X connect 43 0 41 0;
#X connect 44 0 41 0;
#X connect 45 0 41 0;
#X connect 47 0 46 0;
#X connect 48 0 46 0;
#X connect 49 0 30 0;
#X connect 49 0 31 0;
#X connect 49 0 32 0;
#X connect 49 0 33 0;
#X connect 49 0 34 0;
#X connect 50 0 22 0;
#X connect 50 0 23 0;
#X connect 50 0 24 0;
#X connect 50 0 25 0;
#X connect 50 0 26 0;
#X connect 50 0 56 0;
#X connect 51 0 55 0;
#X connect 51 0 39 0;
#X connect 51 0 40 0;
#X connect 51 0 35 0;
#X connect 51 0 36 0;
#X connect 51 0 37 0;
#X connect 51 0 38 0;
#X connect 53 0 42 0;
#X connect 53 0 43 0;
#X connect 53 0 44 0;
#X connect 53 0 45 0;
#X connect 54 0 47 0;
#X connect 54 0 48 0;
#X connect 55 0 27 0;
#X connect 56 0 28 0;
#X restore 1024 376 pd speakers;
#X obj 1008 376 bng 15 250 50 0 empty __init empty 17 7 0 10 -262144
-1 -1;
#X obj 105 81 bng 15 250 50 0 empty empty INIT 17 7 0 10 -260097 -258113
-258113;
#X obj 6 131 cnv 15 345 280 empty empty Snd_list 20 12 0 10 -233017
-66577 0;
#X obj 1079 235 bng 15 250 50 0 manual_trig empty trigger_random 17
7 0 10 -262144 -1 -1;
#N canvas 569 207 450 300 reporters 0;
#X obj -170 16 LEDfromReporter \$0 0;
#X obj -170 35 LEDfromReporter \$0 1;
#X obj -170 56 LEDfromReporter \$0 2;
#X obj -171 76 LEDfromReporter \$0 3;
#X obj -170 96 LEDfromReporter \$0 4;
#X obj -170 117 LEDfromReporter \$0 5;
#X obj -40 35 LEDfromReporter \$0 7;
#X obj -40 56 LEDfromReporter \$0 8;
#X obj -41 76 LEDfromReporter \$0 9;
#X obj -40 96 LEDfromReporter \$0 10;
#X obj -39 117 LEDfromReporter \$0 11;
#X obj 90 35 LEDfromReporter \$0 13;
#X obj 90 56 LEDfromReporter \$0 14;
#X obj 89 76 LEDfromReporter \$0 15;
#X obj 90 96 LEDfromReporter \$0 16;
#X obj 90 117 LEDfromReporter \$0 17;
#X obj -166 161 LEDfromReporter \$0 19;
#X obj -166 182 LEDfromReporter \$0 20;
#X obj -168 203 LEDfromReporter \$0 21;
#X obj -166 222 LEDfromReporter \$0 22;
#X obj -166 243 LEDfromReporter \$0 23;
#X obj -36 161 LEDfromReporter \$0 25;
#X restore 1078 207 pd reporters;
#X msg 6 10 okta;
#X obj 1076 142 r toSpin;
#N canvas 381 100 1009 665 single_loop 0;
#X msg 57 67 createNode listener0 Listener;
#X obj 550 131 playlist all 400 300 {Helvetica 10 bold} #457782 yellow
black red;
#X obj 550 40 thisdir;
#X obj 550 62 makefilename %s/snd;
#X obj 552 20 bng 15 250 50 0 empty empty empty 17 7 0 10 -262144 -1
-1;
#X msg 550 84 location \$1;
#X obj 233 317 s \$0-to-SPIN-TCP;
#X obj 112 200 t a f;
#X obj 112 414 pack f s;
#X obj 276 542 print;
#X obj 550 435 print playlist;
#X msg 381 181 seek \$1;
#X obj 262 12 inlet;
#X obj 262 34 t b b b;
#X msg 233 294 createNode snd\$1 SoundNode;
#X obj 112 178 t f b;
#X floatatom 411 130 5 0 0 0 - - -;
#X obj 322 152 random 14;
#X obj 235 13 bng 15 250 50 0 empty empty empty 17 7 0 10 -262144 -1
-1;
#X obj 372 110 r count_media;
#X msg 176 97 0;
#X obj 108 240 t a a;
#X obj 108 282 t a a;
#X msg 112 445 /snd\$1 setDirectivityFlag 1 \, /snd\$1 setParam setMediaURI
file://\$2 \, /snd\$1 setParam play 1 \, /snd\$1 setParam loop 1;
#X obj 57 496 s \$0-to-SPIN;
#X connect 0 0 24 0;
#X connect 1 0 10 0;
#X connect 1 0 8 1;
#X connect 2 0 3 0;
#X connect 3 0 5 0;
#X connect 4 0 2 0;
#X connect 5 0 1 0;
#X connect 7 0 21 0;
#X connect 7 1 14 0;
#X connect 8 0 23 0;
#X connect 11 0 1 0;
#X connect 12 0 13 0;
#X connect 13 1 0 0;
#X connect 13 2 4 0;
#X connect 13 2 20 0;
#X connect 14 0 6 0;
#X connect 15 0 7 0;
#X connect 15 1 17 0;
#X connect 16 0 11 0;
#X connect 17 0 11 0;
#X connect 18 0 13 0;
#X connect 19 0 17 1;
#X connect 20 0 15 0;
#X connect 21 0 22 0;
#X connect 22 0 8 0;
#X connect 23 0 9 0;
#X connect 23 0 24 0;
#X restore 1020 717 pd single_loop;
#X obj 1008 404 bng 15 250 50 0 side_view empty side_view 17 7 0 10
-262144 -1 -1;
#X obj 1008 424 bng 15 250 50 0 top_view empty top_view 17 7 0 10 -262144
-1 -1;
#X obj 1021 699 bng 15 250 50 0 empty empty empty 17 7 0 10 -262144
-1 -1;
#N canvas 658 524 1243 542 manual 0;
#X obj 171 69 r \$0-popup;
#X obj 854 136 s \$0-popup;
#X obj 367 147 s \$0-id;
#X obj 1051 86 r \$0-to-nodeList;
#X obj 1103 164 s \$1-nodeType;
#X obj 1036 142 unpack s s;
#X obj 276 49 r \$0-popup-set;
#X obj 105 128 popup 150 20 #e0e0e0 CHOOSE;
#X obj 854 96 r \$0-from-SPIN;
#X obj 101 417 prepend;
#X obj 248 360 sprintf /%s;
#X obj 104 153 grid grid1 144 0 1 144 0 1 0 0.001 0.001 10 10 216 198
;
#X obj 101 311 expr ($f1*24)-12;
#X obj 205 310 expr ($f1*24)-12;
#X obj 101 379 prepend setTranslation;
#X obj 101 444 s \$0-to-SPIN;
#X obj 102 357 gate 2;
#X obj 347 428 prepend;
#X obj 494 371 sprintf /%s;
#X obj 306 484 s \$0-to-SPIN;
#X obj 347 364 prepend translateTo;
#X obj 625 376 list append;
#X floatatom 252 190 5 0 0 1 time_(sec) - -;
#X obj 622 409 list append LinearMotion;
#X obj 253 154 vradio 15 1 1 2 empty empty empty 0 -8 0 10 -262144
-1 -1 0;
#X obj 287 285 + 1;
#X text 278 152 Manual;
#X obj 398 457 prepend set;
#X msg 398 479 /constrained0 translateTo -1.17387 7.65707 0 LinearMotion
;
#X obj 854 116 popupCtrl-nodeList \$0 ConstraintsNode \$4 \$5 \$6 \$7
\$8;
#X text 275 169 physics;
#X obj 101 331 pack f f 5;
#X floatatom 256 280 5 0 0 0 z - -;
#X connect 0 0 7 0;
#X connect 3 0 29 1;
#X connect 5 1 4 0;
#X connect 6 0 7 1;
#X connect 7 1 2 0;
#X connect 7 1 10 0;
#X connect 7 1 18 0;
#X connect 8 0 29 0;
#X connect 9 0 15 0;
#X connect 10 0 9 1;
#X connect 11 0 12 0;
#X connect 11 1 13 0;
#X connect 12 0 31 0;
#X connect 13 0 31 1;
#X connect 14 0 9 0;
#X connect 16 0 14 0;
#X connect 16 1 20 0;
#X connect 17 0 19 0;
#X connect 17 0 27 0;
#X connect 18 0 17 1;
#X connect 20 0 21 0;
#X connect 21 0 23 0;
#X connect 22 0 21 1;
#X connect 23 0 17 0;
#X connect 24 0 25 0;
#X connect 25 0 16 0;
#X connect 27 0 28 0;
#X connect 29 0 1 0;
#X connect 29 2 5 0;
#X connect 31 0 16 1;
#X connect 32 0 31 2;
#X coords 0 -1 1 1 250 200 1 100 100;
#X restore 926 -61 pd manual control;
#N canvas 116 194 900 573 trigger 0;
#X obj 413 83 thisdir;
#X msg 413 127 location \$1;
#X obj 413 62 loadbang;
#X obj 104 176 vradio 15 1 0 8 \$0-snd \$0-snd-set Trigger 0 -8 0 10
-262144 -1 -1 0;
#X obj 354 111 bng 15 250 50 0 empty empty refresh 17 7 0 10 -262144
-1 -1;
#X obj 415 104 makefilename %s/snd;
#X obj 112 388 r \$0-snd;
#X obj 149 416 r \$0-loop;
#X obj 114 509 s \$0-to-SPIN;
#X obj 102 142 tgl 15 0 \$0-loop empty loop? 17 7 0 10 -262144 -1 -1
0 1;
#X obj 143 148 playlist wav 250 150 {Helvetica 10 bold} #457782 yellow
black red;
#X obj 269 326 s nowPlaying;
#X msg 269 304 label np:\$1;
#X text 119 173 0;
#X text 120 189 1;
#X text 120 206 2;
#X text 120 220 3;
#X text 121 234 4;
#X text 121 248 5;
#X text 121 264 6;
#X text 121 278 7;
#X obj 36 102 r trigger;
#X msg 148 75 seek \$1;
#X obj 194 32 r soundfile;
#X obj 123 448 pack f 0 s;
#X msg 327 382 /snd\$1 setParam path \$3 \, /snd\$1 setParam play 1
\, /snd\$1 setParam loop \$2 \, /snd\$1 setParam mul 4;
#X msg 123 470 /snd\$1 setParam path \$3 \, /snd\$1 setParam play 1
\, /snd\$1 setParam loop \$2 \, /snd\$1 setParam mul 1;
#X text 466 485 <-- mul param is for vlolume scaling. Rolled down to
1;
#X obj 440 215 thisdir;
#X msg 440 259 location \$1;
#X obj 442 236 makefilename %s/snd;
#X obj 438 178 bng 15 250 50 0 empty empty empty 17 7 0 10 -262144
-1 -1;
#X msg 657 28 3 okta1;
#X obj 657 50 unpack f s;
#X obj 714 74 t b s;
#X obj 714 105 thisdir;
#X msg 715 193 location \$1;
#X obj 716 126 makefilename %s/snd;
#X obj 716 146 sprintf %s/%s;
#X obj 716 168 symbol;
#X msg 659 221 seek \$1;
#X obj 148 312 t b a a;
#X obj 185 337 s toSoundfiler;
#X connect 0 0 5 0;
#X connect 1 0 10 0;
#X connect 2 0 0 0;
#X connect 4 0 0 0;
#X connect 5 0 1 0;
#X connect 6 0 24 0;
#X connect 7 0 24 1;
#X connect 10 0 41 0;
#X connect 10 1 12 0;
#X connect 12 0 11 0;
#X connect 21 0 3 0;
#X connect 22 0 10 0;
#X connect 23 0 33 0;
#X connect 24 0 26 0;
#X connect 26 0 8 0;
#X connect 28 0 30 0;
#X connect 30 0 29 0;
#X connect 31 0 28 0;
#X connect 32 0 33 0;
#X connect 33 0 40 0;
#X connect 33 1 34 0;
#X connect 34 0 35 0;
#X connect 34 1 38 1;
#X connect 35 0 37 0;
#X connect 36 0 10 0;
#X connect 37 0 38 0;
#X connect 38 0 39 0;
#X connect 39 0 36 0;
#X connect 40 0 10 0;
#X connect 41 0 24 0;
#X connect 41 1 24 2;
#X connect 41 2 42 0;
#X coords 0 -1 1 1 300 200 1 100 100;
#X restore 27 202 pd trigger sounds;
#X obj 1076 161 s \$0-to-SPIN;
#N canvas 1140 179 779 373 constants 0;
#X obj 25 159 anyreg speakerB1 -10 7.5 0;
#X obj 23 82 anyreg speakerA1 -2.5 12.5 0;
#X obj 24 108 anyreg speakerA2 2.5 12.5 0;
#X obj 24 132 anyreg speakerA3 7.5 12.5 0;
#X obj 25 182 anyreg speakerB2 -5 7.5 0;
#X obj 25 208 anyreg speakerB3 0 7.5 0;
#X obj 25 233 anyreg speakerB4 5 7.5 0;
#X obj 248 84 anyreg speakerC1 -12.5 2.5 0;
#X obj 248 108 anyreg speakerC2 -7.5 2.5 0;
#X obj 248 131 anyreg speakerC3 -2.5 2.5 0;
#X obj 248 154 anyreg speakerC4 2.5 2.5 0;
#X obj 248 177 anyreg speakerC5 7.5 2.5 0;
#X obj 246 201 anyreg speakerC6 12.5 2.5 0;
#X obj 245 229 anyreg speakerD1 -12.5 -2.5 0;
#X obj 245 255 anyreg speakerD2 -7.5 -2.5 0;
#X obj 244 276 anyreg speakerD3 -2.5 -2.5 0;
#X obj 244 298 anyreg speakerD4 2.5 -2.5 0;
#X obj 243 318 anyreg speakerD5 7.5 -2.5 0;
#X obj 457 83 anyreg speakerE1 -12.5 -7.5 0;
#X obj 457 109 anyreg speakerE2 -7.5 -7.5 0;
#X obj 455 134 anyreg speakerE3 -2.5 -7.5 0;
#X obj 454 159 anyreg speakerE4 2.5 -7.5 0;
#X obj 455 187 anyreg speakerF1 -12.5 -12.5 0;
#X obj 456 217 anyreg speakerF2 -7.5 -12.5 0;
#X text 30 14 These are speaker placement coordinates (radians) stored
as global variables;
#X restore 404 -39 pd constants;
#X obj 26 153 cnv 15 100 30 empty nowPlaying np:20131130-12-57-30.wav
20 12 0 14 -233017 -66577 0;
#N canvas 216 166 1174 865 okta1 0;
#X obj 129 26 inlet;
#X obj 129 48 t b b;
#X obj 213 49 r count_media;
#X obj 156 70 random 167;
#X obj 211 466 list-nth;
#X obj 271 466 random 24;
#X obj 118 509 anyreg speakerA1;
#X obj 101 28 bng 15 250 50 0 empty empty empty 17 7 0 10 -262144 -1
-1;
#X obj 57 630 s \$0-to-SPIN;
#X msg 211 405 speakerA1 speakerA2 speakerA3 speakerB1 speakerB2 speakerB3
speakerB4 speakerC1 speakerC2 speakerC3 speakerC4 speakerC5 speakerC6
speakerD1 speakerD2 speakerD3 speakerD4 speakerD5 speakerE1 speakerE2
speakerE3 speakerE4 speakerF1 speakerF2;
#X obj 211 488 symbol;
#X obj 98 181 t b b b b b b b b;
#X obj 55 531 list append;
#X obj 55 553 list trim;
#X obj 98 312 t a b b b;
#X obj 173 237 t b;
#X msg 172 258 clear;
#X obj 98 283 urn 8;
#X obj 67 122 bng 15 250 50 0 empty empty empty 17 7 0 10 -262144 -1
-1;
#X msg 55 592 /constrained\$1 setTranslation \$2 \$3 \$4 \, /constrained\$1
setVelocity 0 0 0;
#X obj 359 490 t b b;
#X obj 445 493 r count_media;
#X obj 388 515 random 167;
#X obj 389 570 s soundfile;
#X obj 321 547 s trigger;
#X floatatom 499 522 5 0 0 0 - - -;
#X obj 417 478 bng 15 250 50 0 empty empty empty 17 7 0 10 -262144
-1 -1;
#X obj 390 546 oktaDispatch okta1;
#X connect 0 0 1 0;
#X connect 1 0 11 0;
#X connect 1 1 3 0;
#X connect 2 0 3 1;
#X connect 4 0 10 0;
#X connect 5 0 4 1;
#X connect 6 0 12 1;
#X connect 7 0 1 0;
#X connect 9 0 4 0;
#X connect 10 0 6 1;
#X connect 11 0 17 0;
#X connect 12 0 13 0;
#X connect 13 0 19 0;
#X connect 14 0 12 0;
#X connect 14 0 24 0;
#X connect 14 1 6 0;
#X connect 14 2 9 0;
#X connect 14 3 5 0;
#X connect 14 3 20 0;
#X connect 15 0 16 0;
#X connect 16 0 17 0;
#X connect 17 0 14 0;
#X connect 17 1 15 0;
#X connect 18 0 11 0;
#X connect 19 0 8 0;
#X connect 20 1 22 0;
#X connect 21 0 22 1;
#X connect 22 0 27 0;
#X connect 25 0 27 0;
#X connect 26 0 22 0;
#X connect 27 0 23 0;
#X restore 724 277 pd okta1;
#X obj 723 259 bng 15 250 50 0 empty trigOkta1 empty 17 7 0 10 -262144
-1 -1;
#N canvas 730 163 1161 865 okta2 0;
#X obj 108 22 inlet;
#X obj 108 44 t b b;
#X obj 192 45 r count_media;
#X obj 135 66 random 167;
#X obj 80 24 bng 15 250 50 0 empty empty empty 17 7 0 10 -262144 -1
-1;
#X obj 283 45 bng 15 250 50 0 empty empty empty 17 7 0 10 -262144 -1
-1;
#X obj 108 191 t b b b b b b b b;
#X obj 283 87 t f f f f f f f f;
#X obj 119 226 delay;
#X obj 129 236 delay;
#X obj 139 246 delay;
#X obj 150 259 delay;
#X obj 171 269 delay;
#X obj 187 282 delay;
#X obj 174 332 t b;
#X msg 173 353 clear;
#X obj 77 132 bng 15 250 50 0 empty empty empty 17 7 0 10 -262144 -1
-1;
#X floatatom 322 43 5 0 0 0 - - -;
#X obj 368 189 * 2;
#X obj 348 170 * 3;
#X obj 328 148 * 4;
#X obj 310 128 * 5;
#X obj 285 110 * 6;
#X obj 220 293 delay;
#X obj 389 208 * 1;
#X obj 99 378 urn 7;
#X obj 221 476 list-nth;
#X obj 281 476 random 24;
#X obj 128 519 anyreg speakerA1;
#X obj 65 774 s \$0-to-SPIN;
#X msg 221 415 speakerA1 speakerA2 speakerA3 speakerB1 speakerB2 speakerB3
speakerB4 speakerC1 speakerC2 speakerC3 speakerC4 speakerC5 speakerC6
speakerD1 speakerD2 speakerD3 speakerD4 speakerD5 speakerE1 speakerE2
speakerE3 speakerE4 speakerF1 speakerF2;
#X obj 221 498 symbol;
#X obj 65 541 list append;
#X obj 65 563 list trim;
#X obj 98 404 t a b b b;
#X obj 283 62 i 80000;
#X obj 283 24 r __init;
#X msg 484 237 stop;
#X obj 204 731 f;
#X msg 232 713 \$1;
#X msg 204 753 /constrained\$1 setVelocity 0 0 0;
#X obj 204 691 del 79000;
#X obj 204 667 t b a;
#X obj 65 585 t a a;
#X msg 65 629 /constrained\$1 setTranslation \$2 \$3 \$4 \, /constrained\$1
setVelocity \$5 \$6 0;
#X obj 65 607 random3 50 120;
#X obj 490 321 - 100;
#X obj 380 529 t b b;
#X obj 466 532 r count_media;
#X obj 409 554 random 167;
#X obj 342 586 s trigger;
#X obj 481 213 r stopDelays;
#X obj 409 599 s soundfile;
#X obj 409 577 oktaDispatch okta2;
#X connect 0 0 1 0;
#X connect 1 0 6 0;
#X connect 1 1 3 0;
#X connect 2 0 3 1;
#X connect 4 0 1 0;
#X connect 5 0 35 0;
#X connect 6 1 8 0;
#X connect 6 2 9 0;
#X connect 6 3 10 0;
#X connect 6 4 11 0;
#X connect 6 5 12 0;
#X connect 6 6 13 0;
#X connect 6 7 23 0;
#X connect 7 1 22 0;
#X connect 7 2 21 0;
#X connect 7 3 20 0;
#X connect 7 4 19 0;
#X connect 7 5 18 0;
#X connect 7 6 24 0;
#X connect 7 7 46 0;
#X connect 8 0 25 0;
#X connect 9 0 25 0;
#X connect 10 0 25 0;
#X connect 11 0 25 0;
#X connect 12 0 25 0;
#X connect 13 0 25 0;
#X connect 14 0 15 0;
#X connect 15 0 25 0;
#X connect 16 0 6 0;
#X connect 17 0 35 1;
#X connect 18 0 12 1;
#X connect 19 0 11 1;
#X connect 20 0 10 1;
#X connect 21 0 9 1;
#X connect 22 0 8 1;
#X connect 23 0 25 0;
#X connect 24 0 13 1;
#X connect 25 0 34 0;
#X connect 25 1 14 0;
#X connect 26 0 31 0;
#X connect 27 0 26 1;
#X connect 28 0 32 1;
#X connect 30 0 26 0;
#X connect 31 0 28 1;
#X connect 32 0 33 0;
#X connect 33 0 43 0;
#X connect 34 0 32 0;
#X connect 34 0 50 0;
#X connect 34 1 28 0;
#X connect 34 2 30 0;
#X connect 34 3 27 0;
#X connect 34 3 47 0;
#X connect 35 0 7 0;
#X connect 36 0 5 0;
#X connect 37 0 8 0;
#X connect 37 0 9 0;
#X connect 37 0 10 0;
#X connect 37 0 11 0;
#X connect 37 0 12 0;
#X connect 37 0 13 0;
#X connect 37 0 23 0;
#X connect 38 0 40 0;
#X connect 39 0 38 1;
#X connect 40 0 29 0;
#X connect 41 0 38 0;
#X connect 42 0 41 0;
#X connect 42 1 39 0;
#X connect 43 0 45 0;
#X connect 43 1 42 0;
#X connect 44 0 29 0;
#X connect 45 0 44 0;
#X connect 46 0 41 1;
#X connect 47 1 49 0;
#X connect 48 0 49 1;
#X connect 49 0 53 0;
#X connect 51 0 37 0;
#X connect 53 0 52 0;
#X restore 725 314 pd okta2;
#X obj 724 296 bng 15 250 50 0 empty trigOkta2 empty 17 7 0 10 -262144
-1 -1;
#X obj 723 337 bng 15 250 50 0 empty trigOkta3 empty 17 7 0 10 -262144
-1 -1;
#N canvas 102 143 1161 865 okta3 0;
#X obj 139 36 inlet;
#X obj 139 58 t b b;
#X obj 223 59 r count_media;
#X obj 166 80 random 167;
#X obj 111 38 bng 15 250 50 0 empty empty empty 17 7 0 10 -262144 -1
-1;
#X obj 281 86 bng 15 250 50 0 empty empty empty 17 7 0 10 -262144 -1
-1;
#X obj 108 191 t b b b b b b b b;
#X obj 281 131 t f f f f f f f f;
#X obj 129 236 delay;
#X obj 139 246 delay;
#X obj 150 259 delay;
#X obj 171 269 delay;
#X obj 187 282 delay;
#X obj 174 332 t b;
#X msg 173 353 clear;
#X obj 77 132 bng 15 250 50 0 empty empty empty 17 7 0 10 -262144 -1
-1;
#X floatatom 315 75 5 0 0 0 - - -;
#X obj 366 258 * 2;
#X obj 346 239 * 3;
#X obj 326 217 * 4;
#X obj 308 197 * 5;
#X obj 213 289 delay;
#X obj 387 277 * 1;
#X obj 99 378 urn 7;
#X obj 221 476 list-nth;
#X obj 281 476 random 24;
#X obj 128 519 anyreg speakerA1;
#X obj 64 834 s \$0-to-SPIN;
#X msg 221 415 speakerA1 speakerA2 speakerA3 speakerB1 speakerB2 speakerB3
speakerB4 speakerC1 speakerC2 speakerC3 speakerC4 speakerC5 speakerC6
speakerD1 speakerD2 speakerD3 speakerD4 speakerD5 speakerE1 speakerE2
speakerE3 speakerE4 speakerF1 speakerF2;
#X obj 221 498 symbol;
#X obj 65 541 list append;
#X obj 65 563 list trim;
#X obj 98 404 t a b b b;
#X obj 379 33 r __init;
#X msg 479 204 stop;
#X obj 125 782 f;
#X msg 139 746 \$1;
#X msg 125 804 /constrained\$1 setVelocity 0 0 0;
#X obj 126 698 t b a;
#X obj 281 106 i 120000;
#X obj 126 722 del 119000;
#X obj 549 561 - 100;
#X obj 65 598 t a a;
#X obj 65 620 random3 90 220;
#X msg 65 662 /constrained\$1 setTranslation \$2 \$3 \$4 \, /constrained\$1
setVelocity \$5 \$6 0;
#X obj 379 510 t b b;
#X obj 465 513 r count_media;
#X obj 408 535 random 167;
#X obj 341 567 s trigger;
#X obj 473 168 r stopDelays;
#X obj 407 585 s soundfile;
#X obj 408 561 oktaDispatch okta3;
#X connect 0 0 1 0;
#X connect 1 0 6 0;
#X connect 1 1 3 0;
#X connect 2 0 3 1;
#X connect 4 0 1 0;
#X connect 5 0 39 0;
#X connect 6 2 8 0;
#X connect 6 3 9 0;
#X connect 6 4 10 0;
#X connect 6 5 11 0;
#X connect 6 6 12 0;
#X connect 6 7 21 0;
#X connect 7 2 20 0;
#X connect 7 3 19 0;
#X connect 7 4 18 0;
#X connect 7 5 17 0;
#X connect 7 6 22 0;
#X connect 8 0 23 0;
#X connect 9 0 23 0;
#X connect 10 0 23 0;
#X connect 11 0 23 0;
#X connect 12 0 23 0;
#X connect 13 0 14 0;
#X connect 14 0 23 0;
#X connect 15 0 6 0;
#X connect 16 0 39 1;
#X connect 17 0 11 1;
#X connect 19 0 9 1;
#X connect 20 0 8 1;
#X connect 21 0 23 0;
#X connect 22 0 12 1;
#X connect 23 0 32 0;
#X connect 23 1 13 0;
#X connect 24 0 29 0;
#X connect 25 0 24 1;
#X connect 26 0 30 1;
#X connect 28 0 24 0;
#X connect 29 0 26 1;
#X connect 30 0 31 0;
#X connect 31 0 42 0;
#X connect 32 0 30 0;
#X connect 32 0 48 0;
#X connect 32 1 26 0;
#X connect 32 2 28 0;
#X connect 32 3 25 0;
#X connect 32 3 45 0;
#X connect 33 0 5 0;
#X connect 34 0 8 0;
#X connect 34 0 9 0;
#X connect 34 0 10 0;
#X connect 34 0 11 0;
#X connect 34 0 12 0;
#X connect 34 0 21 0;
#X connect 35 0 37 0;
#X connect 36 0 35 1;
#X connect 37 0 27 0;
#X connect 38 0 40 0;
#X connect 38 1 36 0;
#X connect 39 0 7 0;
#X connect 39 0 41 0;
#X connect 40 0 35 0;
#X connect 41 0 40 1;
#X connect 42 0 43 0;
#X connect 42 1 38 0;
#X connect 43 0 44 0;
#X connect 44 0 27 0;
#X connect 45 1 47 0;
#X connect 46 0 47 1;
#X connect 47 0 51 0;
#X connect 49 0 34 0;
#X connect 51 0 50 0;
#X restore 724 355 pd okta3;
#X obj 723 377 bng 15 250 50 0 empty trigOkta4 empty 17 7 0 10 -262144
-1 -1;
#N canvas 104 139 1161 865 okta4 0;
#X obj 139 36 inlet;
#X obj 139 58 t b b;
#X obj 223 59 r count_media;
#X obj 166 80 random 167;
#X obj 111 38 bng 15 250 50 0 empty empty empty 17 7 0 10 -262144 -1
-1;
#X obj 281 86 bng 15 250 50 0 empty empty empty 17 7 0 10 -262144 -1
-1;
#X obj 108 191 t b b b b b b b b;
#X obj 281 131 t f f f f f f f f;
#X obj 139 246 delay;
#X obj 150 259 delay;
#X obj 171 269 delay;
#X obj 187 282 delay;
#X obj 174 332 t b;
#X msg 173 353 clear;
#X obj 77 132 bng 15 250 50 0 empty empty empty 17 7 0 10 -262144 -1
-1;
#X floatatom 315 75 5 0 0 0 - - -;
#X obj 366 258 * 2;
#X obj 346 239 * 3;
#X obj 326 217 * 4;
#X obj 308 197 * 5;
#X obj 213 289 delay;
#X obj 387 277 * 1;
#X obj 99 378 urn 7;
#X obj 221 476 list-nth;
#X obj 281 476 random 24;
#X obj 128 519 anyreg speakerA1;
#X obj 64 834 s \$0-to-SPIN;
#X msg 221 415 speakerA1 speakerA2 speakerA3 speakerB1 speakerB2 speakerB3
speakerB4 speakerC1 speakerC2 speakerC3 speakerC4 speakerC5 speakerC6
speakerD1 speakerD2 speakerD3 speakerD4 speakerD5 speakerE1 speakerE2
speakerE3 speakerE4 speakerF1 speakerF2;
#X obj 221 498 symbol;
#X obj 65 541 list append;
#X obj 65 563 list trim;
#X obj 98 404 t a b b b;
#X obj 379 33 r __init;
#X msg 477 201 stop;
#X obj 125 782 f;
#X msg 139 746 \$1;
#X msg 125 804 /constrained\$1 setVelocity 0 0 0;
#X obj 126 698 t b a;
#X obj 126 722 del 119000;
#X obj 554 576 - 100;
#X obj 65 598 t a a;
#X msg 65 662 /constrained\$1 setTranslation \$2 \$3 \$4 \, /constrained\$1
setVelocity \$5 \$6 0;
#X obj 65 620 random3 220 350;
#X obj 281 106 i 160000;
#X obj 389 520 t b b;
#X obj 475 523 r count_media;
#X obj 418 545 random 167;
#X obj 351 577 s trigger;
#X obj 474 167 r stopDelays;
#X obj 417 591 s soundfile;
#X obj 418 567 oktaDispatch okta4;
#X connect 0 0 1 0;
#X connect 1 0 6 0;
#X connect 1 1 3 0;
#X connect 2 0 3 1;
#X connect 4 0 1 0;
#X connect 5 0 43 0;
#X connect 6 3 8 0;
#X connect 6 4 9 0;
#X connect 6 5 10 0;
#X connect 6 6 11 0;
#X connect 6 7 20 0;
#X connect 7 2 19 0;
#X connect 7 3 18 0;
#X connect 7 4 17 0;
#X connect 7 5 16 0;
#X connect 7 6 21 0;
#X connect 8 0 22 0;
#X connect 9 0 22 0;
#X connect 10 0 22 0;
#X connect 11 0 22 0;
#X connect 12 0 13 0;
#X connect 13 0 22 0;
#X connect 14 0 6 0;
#X connect 15 0 43 1;
#X connect 16 0 10 1;
#X connect 18 0 8 1;
#X connect 20 0 22 0;
#X connect 21 0 11 1;
#X connect 22 0 31 0;
#X connect 22 1 12 0;
#X connect 23 0 28 0;
#X connect 24 0 23 1;
#X connect 25 0 29 1;
#X connect 27 0 23 0;
#X connect 28 0 25 1;
#X connect 29 0 30 0;
#X connect 30 0 40 0;
#X connect 31 0 29 0;
#X connect 31 0 47 0;
#X connect 31 1 25 0;
#X connect 31 2 27 0;
#X connect 31 3 24 0;
#X connect 31 3 44 0;
#X connect 32 0 5 0;
#X connect 33 0 8 0;
#X connect 33 0 9 0;
#X connect 33 0 10 0;
#X connect 33 0 11 0;
#X connect 33 0 20 0;
#X connect 34 0 36 0;
#X connect 35 0 34 1;
#X connect 36 0 26 0;
#X connect 37 0 38 0;
#X connect 37 1 35 0;
#X connect 38 0 34 0;
#X connect 39 0 38 1;
#X connect 40 0 42 0;
#X connect 40 1 37 0;
#X connect 41 0 26 0;
#X connect 42 0 41 0;
#X connect 43 0 7 0;
#X connect 43 0 39 0;
#X connect 44 1 46 0;
#X connect 45 0 46 1;
#X connect 46 0 50 0;
#X connect 48 0 33 0;
#X connect 50 0 49 0;
#X restore 724 395 pd okta4;
#X obj 723 417 bng 15 250 50 0 empty trigOkta5 empty 17 7 0 10 -262144
-1 -1;
#N canvas 572 195 1161 865 okta5 0;
#X obj 139 36 inlet;
#X obj 139 58 t b b;
#X obj 223 59 r count_media;
#X obj 166 80 random 167;
#X obj 111 38 bng 15 250 50 0 empty empty empty 17 7 0 10 -262144 -1
-1;
#X obj 281 86 bng 15 250 50 0 empty empty empty 17 7 0 10 -262144 -1
-1;
#X obj 108 191 t b b b b b b b b;
#X obj 281 131 t f f f f f f f f;
#X obj 139 246 delay;
#X obj 150 259 delay;
#X obj 171 269 delay;
#X obj 187 282 delay;
#X obj 174 332 t b;
#X msg 173 353 clear;
#X obj 77 132 bng 15 250 50 0 empty empty empty 17 7 0 10 -262144 -1
-1;
#X floatatom 315 75 5 0 0 0 - - -;
#X obj 366 258 * 2;
#X obj 346 239 * 3;
#X obj 326 217 * 4;
#X obj 308 197 * 5;
#X obj 213 289 delay;
#X obj 387 277 * 1;
#X obj 99 378 urn 7;
#X obj 221 476 list-nth;
#X obj 281 476 random 24;
#X obj 128 519 anyreg speakerA1;
#X obj 64 834 s \$0-to-SPIN;
#X msg 221 415 speakerA1 speakerA2 speakerA3 speakerB1 speakerB2 speakerB3
speakerB4 speakerC1 speakerC2 speakerC3 speakerC4 speakerC5 speakerC6
speakerD1 speakerD2 speakerD3 speakerD4 speakerD5 speakerE1 speakerE2
speakerE3 speakerE4 speakerF1 speakerF2;
#X obj 221 498 symbol;
#X obj 65 541 list append;
#X obj 65 563 list trim;
#X obj 98 404 t a b b b;
#X obj 379 33 r __init;
#X msg 477 201 stop;
#X obj 125 782 f;
#X msg 139 746 \$1;
#X msg 125 804 /constrained\$1 setVelocity 0 0 0;
#X obj 126 698 t b a;
#X obj 126 722 del 119000;
#X obj 553 336 - 100;
#X obj 65 598 t a a;
#X msg 65 662 /constrained\$1 setTranslation \$2 \$3 \$4 \, /constrained\$1
setVelocity \$5 \$6 0;
#X obj 281 106 i 200000;
#X obj 65 620 random3 90 210;
#X obj 399 530 t b b;
#X obj 485 533 r count_media;
#X obj 428 555 random 167;
#X obj 361 587 s trigger;
#X obj 485 171 r stopDelays;
#X obj 429 610 s soundfile;
#X obj 430 586 oktaDispatch okta5;
#X connect 0 0 1 0;
#X connect 1 0 6 0;
#X connect 1 1 3 0;
#X connect 2 0 3 1;
#X connect 4 0 1 0;
#X connect 5 0 42 0;
#X connect 6 3 8 0;
#X connect 6 4 9 0;
#X connect 6 5 10 0;
#X connect 6 6 11 0;
#X connect 6 7 20 0;
#X connect 7 2 19 0;
#X connect 7 3 18 0;
#X connect 7 4 17 0;
#X connect 7 5 16 0;
#X connect 7 6 21 0;
#X connect 8 0 22 0;
#X connect 9 0 22 0;
#X connect 10 0 22 0;
#X connect 11 0 22 0;
#X connect 12 0 13 0;
#X connect 13 0 22 0;
#X connect 14 0 6 0;
#X connect 15 0 42 1;
#X connect 16 0 10 1;
#X connect 18 0 8 1;
#X connect 20 0 22 0;
#X connect 21 0 11 1;
#X connect 22 0 31 0;
#X connect 22 1 12 0;
#X connect 23 0 28 0;
#X connect 24 0 23 1;
#X connect 25 0 29 1;
#X connect 27 0 23 0;
#X connect 28 0 25 1;
#X connect 29 0 30 0;
#X connect 30 0 40 0;
#X connect 31 0 29 0;
#X connect 31 0 47 0;
#X connect 31 1 25 0;
#X connect 31 2 27 0;
#X connect 31 3 24 0;
#X connect 31 3 44 0;
#X connect 32 0 5 0;
#X connect 33 0 8 0;
#X connect 33 0 9 0;
#X connect 33 0 10 0;
#X connect 33 0 11 0;
#X connect 33 0 20 0;
#X connect 34 0 36 0;
#X connect 35 0 34 1;
#X connect 36 0 26 0;
#X connect 37 0 38 0;
#X connect 37 1 35 0;
#X connect 38 0 34 0;
#X connect 39 0 38 1;
#X connect 40 0 43 0;
#X connect 40 1 37 0;
#X connect 41 0 26 0;
#X connect 42 0 7 0;
#X connect 42 0 39 0;
#X connect 43 0 41 0;
#X connect 44 1 46 0;
#X connect 45 0 46 1;
#X connect 46 0 50 0;
#X connect 48 0 33 0;
#X connect 50 0 49 0;
#X restore 724 435 pd okta5;
#X obj 821 254 bng 15 250 50 0 empty trigOkta6 empty 17 7 0 10 -262144
-1 -1;
#X obj 683 613 uzi 8;
#X obj 683 573 bng 15 250 50 0 empty empty empty 17 7 0 10 -262144
-1 -1;
#X obj 683 593 t b b;
#X obj 683 635 counter 8;
#X msg 727 609 0;
#X msg 683 656 /constrained\$1 setVelocity 0 0 0;
#X obj 683 678 s \$0-to-SPIN;
#X obj 762 587 bng 15 250 50 0 empty empty empty 17 7 0 10 -262144
-1 -1;
#X obj 762 607 s stopDelays;
#X obj 400 291 tgl 15 0 empty empty empty 17 7 0 10 -262144 -1 -1 0
1;
#X obj 400 313 metro 300000;
#X obj 821 294 bng 15 250 50 0 empty trigOkta7 empty 17 7 0 10 -262144
-1 -1;
#X obj 821 334 bng 15 250 50 0 empty trigOkta8 empty 17 7 0 10 -262144
-1 -1;
#X obj 401 458 s trigOkta1;
#X obj 415 438 s trigOkta2;
#X obj 430 418 s trigOkta3;
#X obj 445 398 s trigOkta4;
#X obj 460 378 s trigOkta5;
#X obj 400 245 r __init;
#X msg 400 267 1;
#X obj 6 77 sel okta;
#X obj 6 -9 del 1000;
#X obj 545 517 vsl 15 128 0 2 0 0 empty empty empty 0 -9 0 10 -262144
-1 -1 0 1;
#X msg 545 652 /snd* setParam mul \$1;
#X text 39 176 v-- volume set in trigger patcher;
#X text 487 493 set volume of all playing sounds;
#X obj 558 316 bng 15 250 50 0 empty empty empty 17 7 0 10 -262144
-1 -1;
#N canvas 866 236 450 444 okta-readings 0;
#X obj -1634 111 outlet;
#X obj -1697 8 inlet;
#X msg -1698 32 current;
#X obj -1733 75 src/oktadb localhost 7778;
#X connect 1 0 2 0;
#X connect 2 0 3 0;
#X connect 3 1 0 0;
#X restore 399 336 pd okta-readings;
#X obj 400 357 sel 0 1 2 3 4 5 6 7;
#X obj 522 399 s trigOkta6;
#X obj 512 419 s trigOkta7;
#X obj 501 440 s trigOkta8;
#X obj 366 253 vradio 15 1 0 8 empty empty OKTA 0 -8 0 10 -262144 -1
-1 0;
#X text 352 251 0;
#X text 353 267 1;
#X text 353 284 2;
#X text 353 298 3;
#X text 354 312 4;
#X text 354 326 5;
#X text 354 342 6;
#X text 355 356 7;
#X msg 491 249 3000;
#X msg 490 274 30000;
#X msg 489 298 300000;
#N canvas 235 175 1337 828 okta6 0;
#X obj 54 37 inlet;
#X obj 128 492 random3 90 210;
#X obj 128 514 list split 1;
#X obj 99 557 list append;
#X obj 212 329 list-nth;
#X msg 212 267 speakerA1 speakerA2 speakerA3 speakerB1 speakerB2 speakerB3
speakerB4 speakerC1 speakerC2 speakerC3 speakerC4 speakerC5 speakerC6
speakerD1 speakerD2 speakerD3 speakerD4 speakerD5 speakerE1 speakerE2
speakerE3 speakerE4 speakerF1 speakerF2;
#X obj 212 351 symbol;
#X obj 257 244 i;
#X obj 284 244 + 1;
#X obj 120 373 anyreg speakerA1;
#X obj 57 395 list append;
#X obj 57 417 list trim;
#X obj 57 439 t a a;
#X obj 57 151 urn 7;
#X obj 57 130 until;
#X obj 98 131 t b;
#X msg 97 152 clear;
#X obj 272 221 random 21;
#X obj 99 579 list trim;
#X msg 101 605 /constrained\$1 setTranslation \$2 \$3 \$4 \, /constrained\$1
setVelocity \$5 \$6 0;
#X obj 57 80 t a b;
#X obj 110 812 s \$0-to-SPIN;
#X obj 171 760 f;
#X msg 185 724 \$1;
#X obj 172 676 t b a;
#X obj 172 700 del 119000;
#X msg 171 782 /constrained* setVelocity 0 0 0;
#X obj 392 388 t b b;
#X obj 478 391 r count_media;
#X obj 421 413 random 167;
#X obj 15 243 s trigger;
#X obj 57 171 t a b b b b b;
#X obj 424 166 bng 15 250 50 0 empty empty empty 17 7 0 10 -262144
-1 -1;
#X obj 421 125 r __init;
#X obj 424 186 i 200000;
#X obj 493 610 - 100;
#X obj 376 481 i;
#X obj 377 524 s soundfile;
#X obj 378 500 oktaDispatch okta6;
#X obj 740 327 bng 15 250 50 0 empty empty empty 17 7 0 10 -262144
-1 -1;
#X obj 740 350 t b b;
#X obj 841 466 unpack f f f;
#X obj 916 599 p;
#X msg 714 629 /constrained\$1 setTranslation \$2 \$3 \$4;
#X obj 731 516 pack 0 f f f;
#X msg 869 244 -12.5 12.5 0;
#X msg 983 246 -12.5 0 0;
#X text 1013 394 Y : starting 12.5 \, -5 subsquent;
#X obj 841 444 anyreg speakerD1;
#X text 1014 409 X : starting -12.5 \, +5 subsquent;
#X msg 57 58 3;
#X obj 687 47 inlet;
#X obj 690 161 urn 7;
#X obj 690 140 until;
#X obj 731 141 t b;
#X msg 730 162 clear;
#X obj 690 90 t a b;
#X obj 690 181 t a b b b b b;
#X msg 690 68 3;
#X connect 0 0 50 0;
#X connect 1 0 2 0;
#X connect 2 1 3 1;
#X connect 3 0 18 0;
#X connect 4 0 6 0;
#X connect 5 0 4 0;
#X connect 6 0 9 1;
#X connect 7 0 8 0;
#X connect 7 0 4 1;
#X connect 8 0 7 1;
#X connect 9 0 10 1;
#X connect 10 0 11 0;
#X connect 11 0 12 0;
#X connect 12 0 3 0;
#X connect 12 1 24 0;
#X connect 13 0 31 0;
#X connect 13 1 15 0;
#X connect 14 0 13 0;
#X connect 15 0 16 0;
#X connect 16 0 13 0;
#X connect 17 0 7 1;
#X connect 18 0 19 0;
#X connect 19 0 21 0;
#X connect 20 0 14 0;
#X connect 20 1 1 0;
#X connect 20 1 27 0;
#X connect 22 0 26 0;
#X connect 23 0 22 1;
#X connect 24 0 25 0;
#X connect 24 1 23 0;
#X connect 25 0 22 0;
#X connect 26 0 21 0;
#X connect 27 1 29 0;
#X connect 28 0 29 1;
#X connect 29 0 36 1;
#X connect 31 0 10 0;
#X connect 31 0 30 0;
#X connect 31 1 9 0;
#X connect 31 2 5 0;
#X connect 31 3 7 0;
#X connect 31 4 17 0;
#X connect 31 5 36 0;
#X connect 32 0 34 0;
#X connect 33 0 32 0;
#X connect 34 0 35 0;
#X connect 35 0 25 1;
#X connect 36 0 38 0;
#X connect 38 0 37 0;
#X connect 39 0 40 0;
#X connect 40 0 44 0;
#X connect 40 1 48 0;
#X connect 41 0 44 1;
#X connect 41 1 44 2;
#X connect 41 2 44 3;
#X connect 43 0 21 0;
#X connect 44 0 43 0;
#X connect 44 0 42 0;
#X connect 45 0 41 0;
#X connect 46 0 41 0;
#X connect 48 0 41 0;
#X connect 50 0 20 0;
#X connect 51 0 58 0;
#X connect 52 0 57 0;
#X connect 52 1 54 0;
#X connect 53 0 52 0;
#X connect 54 0 55 0;
#X connect 55 0 52 0;
#X connect 56 0 53 0;
#X connect 58 0 56 0;
#X restore 821 273 pd okta6;
#N canvas 699 122 1161 865 okta7 0;
#X obj 64 47 inlet;
#X obj 138 524 list split 1;
#X obj 109 567 list append;
#X obj 222 339 list-nth;
#X msg 222 277 speakerA1 speakerA2 speakerA3 speakerB1 speakerB2 speakerB3
speakerB4 speakerC1 speakerC2 speakerC3 speakerC4 speakerC5 speakerC6
speakerD1 speakerD2 speakerD3 speakerD4 speakerD5 speakerE1 speakerE2
speakerE3 speakerE4 speakerF1 speakerF2;
#X obj 222 361 symbol;
#X obj 267 254 i;
#X obj 294 254 + 1;
#X obj 130 383 anyreg speakerA1;
#X obj 67 405 list append;
#X obj 67 427 list trim;
#X obj 67 449 t a a;
#X obj 67 161 urn 7;
#X msg 67 68 3;
#X obj 67 140 until;
#X obj 108 141 t b;
#X msg 107 162 clear;
#X obj 282 231 random 21;
#X obj 109 589 list trim;
#X msg 111 615 /constrained\$1 setTranslation \$2 \$3 \$4 \, /constrained\$1
setVelocity \$5 \$6 0;
#X obj 67 90 t a b;
#X obj 120 822 s \$0-to-SPIN;
#X obj 181 770 f;
#X msg 195 734 \$1;
#X obj 182 686 t b a;
#X obj 182 710 del 119000;
#X msg 181 792 /constrained* setVelocity 0 0 0;
#X obj 402 398 t b b;
#X obj 488 401 r count_media;
#X obj 431 423 random 167;
#X obj 256 460 s trigger;
#X obj 67 181 t a b b b b b;
#X obj 434 176 bng 15 250 50 0 empty empty empty 17 7 0 10 -262144
-1 -1;
#X obj 431 135 r __init;
#X obj 434 196 i 200000;
#X obj 503 620 - 100;
#X obj 386 491 i;
#X obj 138 502 random3 60 120;
#X obj 385 542 s soundfile;
#X obj 386 518 oktaDispatch okta7;
#X connect 0 0 13 0;
#X connect 1 1 2 1;
#X connect 2 0 18 0;
#X connect 3 0 5 0;
#X connect 4 0 3 0;
#X connect 5 0 8 1;
#X connect 6 0 7 0;
#X connect 6 0 3 1;
#X connect 7 0 6 1;
#X connect 8 0 9 1;
#X connect 9 0 10 0;
#X connect 10 0 11 0;
#X connect 11 0 2 0;
#X connect 11 1 24 0;
#X connect 12 0 31 0;
#X connect 12 1 15 0;
#X connect 13 0 20 0;
#X connect 14 0 12 0;
#X connect 15 0 16 0;
#X connect 16 0 12 0;
#X connect 17 0 6 1;
#X connect 18 0 19 0;
#X connect 19 0 21 0;
#X connect 20 0 14 0;
#X connect 20 1 27 0;
#X connect 20 1 37 0;
#X connect 22 0 26 0;
#X connect 23 0 22 1;
#X connect 24 0 25 0;
#X connect 24 1 23 0;
#X connect 25 0 22 0;
#X connect 26 0 21 0;
#X connect 27 1 29 0;
#X connect 28 0 29 1;
#X connect 29 0 36 1;
#X connect 31 0 9 0;
#X connect 31 0 30 0;
#X connect 31 1 8 0;
#X connect 31 2 4 0;
#X connect 31 3 6 0;
#X connect 31 4 17 0;
#X connect 31 5 36 0;
#X connect 32 0 34 0;
#X connect 33 0 32 0;
#X connect 34 0 35 0;
#X connect 35 0 25 1;
#X connect 36 0 39 0;
#X connect 37 0 1 0;
#X connect 39 0 38 0;
#X restore 821 313 pd okta7;
#N canvas 570 199 1161 865 okta8 0;
#X obj 74 57 inlet;
#X obj 148 534 list split 1;
#X obj 119 577 list append;
#X obj 232 349 list-nth;
#X obj 232 371 symbol;
#X obj 140 393 anyreg speakerA1;
#X obj 77 415 list append;
#X obj 77 437 list trim;
#X obj 77 459 t a a;
#X obj 77 171 urn 7;
#X msg 77 78 3;
#X obj 77 150 until;
#X obj 118 151 t b;
#X msg 117 172 clear;
#X obj 119 599 list trim;
#X msg 121 625 /constrained\$1 setTranslation \$2 \$3 \$4 \, /constrained\$1
setVelocity \$5 \$6 0;
#X obj 77 100 t a b;
#X obj 130 832 s \$0-to-SPIN;
#X obj 191 780 f;
#X msg 205 744 \$1;
#X obj 192 696 t b a;
#X obj 192 720 del 119000;
#X msg 191 802 /constrained* setVelocity 0 0 0;
#X obj 412 408 t b b;
#X obj 498 411 r count_media;
#X obj 441 433 random 167;
#X obj 266 470 s trigger;
#X obj 77 191 t a b b b b b;
#X obj 444 186 bng 15 250 50 0 empty empty empty 17 7 0 10 -262144
-1 -1;
#X obj 441 145 r __init;
#X obj 444 206 i 200000;
#X obj 513 630 - 100;
#X obj 396 501 i;
#X obj 148 512 random3 30 90;
#X msg 232 287 speakerA1 speakerA3 speakerB1 speakerB4 speakerC1 speakerC6
speakerD1 speakerD5 speakerE1 speakerE4 speakerF1 speakerF2;
#X obj 292 241 random 12;
#X obj 277 264 i;
#X obj 394 549 s soundfile;
#X obj 395 525 oktaDispatch okta8;
#X connect 0 0 10 0;
#X connect 1 1 2 1;
#X connect 2 0 14 0;
#X connect 3 0 4 0;
#X connect 4 0 5 1;
#X connect 5 0 6 1;
#X connect 6 0 7 0;
#X connect 7 0 8 0;
#X connect 8 0 2 0;
#X connect 8 1 20 0;
#X connect 9 0 27 0;
#X connect 9 1 12 0;
#X connect 10 0 16 0;
#X connect 11 0 9 0;
#X connect 12 0 13 0;
#X connect 13 0 9 0;
#X connect 14 0 15 0;
#X connect 15 0 17 0;
#X connect 16 0 11 0;
#X connect 16 1 23 0;
#X connect 16 1 33 0;
#X connect 16 1 35 0;
#X connect 18 0 22 0;
#X connect 19 0 18 1;
#X connect 20 0 21 0;
#X connect 20 1 19 0;
#X connect 21 0 18 0;
#X connect 22 0 17 0;
#X connect 23 1 25 0;
#X connect 24 0 25 1;
#X connect 25 0 32 1;
#X connect 27 0 6 0;
#X connect 27 0 26 0;
#X connect 27 1 5 0;
#X connect 27 2 34 0;
#X connect 27 3 36 0;
#X connect 27 5 32 0;
#X connect 28 0 30 0;
#X connect 29 0 28 0;
#X connect 30 0 31 0;
#X connect 31 0 21 1;
#X connect 32 0 38 0;
#X connect 33 0 1 0;
#X connect 34 0 3 0;
#X connect 35 0 36 1;
#X connect 36 0 3 1;
#X connect 38 0 37 0;
#X restore 821 352 pd okta8;
#N canvas 1292 734 591 304 handleSoundLengts 0;
#X obj 108 144 soundfiler;
#X obj 110 187 p;
#X obj 109 166 / 44.1;
#X obj 102 39 r toSoundfiler;
#N canvas 0 0 450 300 (subpatch) 0;
#X array currentAudio 1.75718e+06 float 2;
#X coords 0 1 1.75718e+06 -1 200 140 1;
#X restore 354 59 graph;
#X msg 113 113 read -resize \$1 currentAudio;
#X connect 0 0 2 0;
#X connect 2 0 1 0;
#X connect 3 0 5 0;
#X connect 5 0 0 0;
#X restore 490 476 pd handleSoundLengts;
#X obj 257 157 cnv 15 90 30 empty oktaNo okta:1 10 12 0 14 -233017
-258113 0;
#X obj 534 340 makefilename %s;
#X msg 534 363 \; oktaNo label okta:\$1;
#X connect 0 0 67 0;
#X connect 2 0 68 0;
#X connect 8 0 9 0;
#X connect 11 0 10 0;
#X connect 15 0 1 0;
#X connect 20 0 19 0;
#X connect 21 0 4 0;
#X connect 25 0 0 0;
#X connect 26 0 33 0;
#X connect 30 0 27 0;
#X connect 37 0 36 0;
#X connect 39 0 38 0;
#X connect 40 0 41 0;
#X connect 42 0 43 0;
#X connect 44 0 45 0;
#X connect 46 0 91 0;
#X connect 47 0 50 0;
#X connect 48 0 49 0;
#X connect 49 0 47 0;
#X connect 49 1 51 0;
#X connect 50 0 52 0;
#X connect 51 0 50 2;
#X connect 52 0 53 0;
#X connect 54 0 55 0;
#X connect 56 0 57 0;
#X connect 57 0 74 0;
#X connect 58 0 92 0;
#X connect 59 0 93 0;
#X connect 65 0 66 0;
#X connect 66 0 56 0;
#X connect 67 0 4 0;
#X connect 68 0 25 0;
#X connect 69 0 70 0;
#X connect 70 0 53 0;
#X connect 73 0 74 0;
#X connect 74 0 75 0;
#X connect 74 0 96 0;
#X connect 75 0 60 0;
#X connect 75 1 61 0;
#X connect 75 2 62 0;
#X connect 75 3 63 0;
#X connect 75 4 64 0;
#X connect 75 5 76 0;
#X connect 75 6 77 0;
#X connect 75 7 78 0;
#X connect 79 0 75 0;
#X connect 79 0 96 0;
#X connect 88 0 57 1;
#X connect 89 0 57 1;
#X connect 90 0 57 1;
#X connect 96 0 97 0;
