#N canvas 697 82 1197 852 10;
#X declare -path abs;
#X declare -path rj;
#X obj 6 -263 widget-spinConnect \$0;
#X obj 486 -298 widget-nodeEditor \$0;
#X obj 6 -303 loadbang;
#X obj 6 -216 sel ReCollect;
#X obj 363 -251 nbx 5 14 -1e+37 1e+37 0 0 empty count_media num_of_soundfiles
0 -8 0 10 -4034 -1 -1 167 256;
#X obj 6 -194 s __init;
#X obj 1027 -284 declare -path abs;
#X obj 1027 -265 declare -path rj;
#X obj 7 -170 cnv 15 160 155 empty empty SoundNodes_initializers 20
12 0 10 -233017 -66577 0;
#X obj 26 -103 bng 15 250 50 0 empty __init empty 17 7 0 10 -262144
-1 -1;
#N canvas 862 132 1009 665 audio_ctl+spin 0;
#X msg 57 67 createNode listener0 Listener;
#X obj 550 131 playlist all 400 300 {Helvetica 10 bold} #457782 yellow
black red;
#X obj 550 40 thisdir;
#X obj 550 62 makefilename %s/snd;
#X obj 552 20 bng 15 250 50 0 empty empty empty 17 7 0 10 -262144 -1
-1;
#X msg 550 84 location \$1;
#X obj 112 112 until;
#X obj 112 200 t a f;
#X obj 112 414 pack f s;
#X obj 276 542 print;
#X obj 550 435 print playlist;
#X msg 381 181 seek \$1;
#X obj 262 12 inlet;
#X obj 262 34 t b b b;
#X msg 233 294 createNode snd\$1 SoundNode;
#X obj 162 391 s \$0-to-SPIN-TCP;
#X obj 221 203 sel 1;
#X obj 112 178 t f b;
#X obj 269 267 bng 15 250 50 0 empty empty empty 17 7 0 10 -262144
-1 -1;
#X floatatom 411 130 5 0 0 0 - - -;
#X obj 322 152 random 14;
#X obj 235 13 bng 15 250 50 0 empty empty empty 17 7 0 10 -262144 -1
-1;
#X obj 372 110 r count_media;
#X msg 176 97 0;
#X obj 108 240 t a a;
#X msg 450 497 createNode constrained\$1 ConstraintsNode \, /constrained\$1
setTarget box \, /constrained\$1 setConstraintMode 3 \, /constrained\$1
setComputationMode 1 \,;
#X obj 112 135 counter 5;
#X msg 112 91 5;
#X msg 162 369 /snd\$1 setParent constrained\$1 \, /snd\$1 setTranslation
0 0 0;
#X obj 108 282 t a a;
#X msg 314 608 createNode sin SoundNode \, /sin setDirectivityFlag
1 \, /sin setParam setMediaURI plugin://SimpleSin \, /sin setParam
play 1;
#X msg 112 446 /snd\$1 setDirectivityFlag 1 \, /snd\$1 setParam setMediaURI
file://\$2 \, /snd\$1 setParam loop 0 \, /snd\$1 setParam play 1;
#X obj 57 496 s \$0-to-SPIN;
#X obj 233 317 s \$0-to-SPIN;
#X obj 450 546 s \$0-to-SPIN;
#X connect 0 0 32 0;
#X connect 1 0 10 0;
#X connect 1 0 8 1;
#X connect 2 0 3 0;
#X connect 3 0 5 0;
#X connect 4 0 2 0;
#X connect 5 0 1 0;
#X connect 6 0 26 0;
#X connect 7 0 24 0;
#X connect 7 1 14 0;
#X connect 8 0 31 0;
#X connect 11 0 1 0;
#X connect 12 0 13 0;
#X connect 13 0 27 0;
#X connect 13 1 0 0;
#X connect 13 2 4 0;
#X connect 13 2 23 0;
#X connect 14 0 33 0;
#X connect 16 0 18 0;
#X connect 17 0 7 0;
#X connect 17 1 20 0;
#X connect 19 0 11 0;
#X connect 20 0 11 0;
#X connect 21 0 13 0;
#X connect 22 0 20 1;
#X connect 23 0 26 2;
#X connect 24 0 29 0;
#X connect 24 1 25 0;
#X connect 25 0 34 0;
#X connect 26 0 17 0;
#X connect 26 2 16 0;
#X connect 27 0 6 0;
#X connect 28 0 15 0;
#X connect 29 0 8 0;
#X connect 29 1 28 0;
#X connect 30 0 32 0;
#X connect 31 0 9 0;
#X connect 31 0 32 0;
#X restore 43 -103 pd audio_ctl+spin;
#X obj 26 -131 del 2000;
#X obj 26 -152 r __init;
#X obj 6 -11 cnv 15 160 100 empty empty SoundNodes_controllers 20 12
0 10 -233017 -66577 0;
#N canvas 678 531 738 487 instrument_controls 0;
#X obj 109 -2 sel 0 1 2 3 4;
#X floatatom 96 195 5 0 0 0 - - -;
#X obj 97 151 r cluster;
#X obj 161 148 bng 15 250 50 0 empty manual_trig empty 17 7 0 10 -262144
-1 -1;
#X obj 96 217 s ml_ctrl;
#X obj 186 197 sel 0 1 2 3 4;
#X obj 306 306 pack 0 0;
#X obj 306 225 bng 15 250 50 0 empty empty empty 17 7 0 10 -262144
-1 -1;
#X obj 306 245 t b b;
#X obj 351 287 expr random(1 \, 11)*0.1;
#X obj 410 346 prepend set;
#X msg 306 326 /snd\$1 setParam speed \$2 \, /snd\$1 setParam play
1;
#X obj 96 171 expr random(0 \, 5);
#X floatatom 272 170 5 0 0 0 - - -;
#X obj 31 238 s blitTrig;
#X msg 30 217 0;
#X obj 306 267 expr random(25 \, 30);
#X obj 185 220 monitor_and_delay;
#X obj 186 240 monitor_and_delay;
#X obj 185 260 monitor_and_delay;
#X obj 185 280 monitor_and_delay;
#X obj 185 299 monitor_and_delay;
#X obj 86 18 bng 15 250 50 0 empty empty empty 17 7 0 10 -262144 -1
-1;
#X obj 86 38 bng 15 250 50 0 empty empty empty 17 7 0 10 -262144 -1
-1;
#X obj 85 58 bng 15 250 50 0 empty empty empty 17 7 0 10 -262144 -1
-1;
#X obj 87 79 bng 15 250 50 0 empty empty empty 17 7 0 10 -262144 -1
-1;
#X obj 87 100 bng 15 250 50 0 empty empty empty 17 7 0 10 -262144 -1
-1;
#X msg 410 368 /snd25 setParam play 1;
#X obj 306 353 s \$0-to-SPIN;
#X obj 108 38 sfplayer_control \$0 1;
#X obj 109 18 sfplayer_control \$0 0;
#X obj 107 100 sfplayer_control \$0 4;
#X obj 106 57 sfplayer_control \$0 2;
#X obj 108 78 sfplayer_control \$0 3;
#X connect 0 0 30 0;
#X connect 0 1 29 0;
#X connect 0 2 32 0;
#X connect 0 3 33 0;
#X connect 0 4 31 0;
#X connect 1 0 4 0;
#X connect 2 0 12 0;
#X connect 2 0 15 0;
#X connect 3 0 12 0;
#X connect 5 0 17 0;
#X connect 5 1 7 0;
#X connect 5 1 18 0;
#X connect 5 2 19 0;
#X connect 5 3 7 0;
#X connect 5 3 20 0;
#X connect 5 4 21 0;
#X connect 6 0 11 0;
#X connect 7 0 8 0;
#X connect 8 0 16 0;
#X connect 8 1 9 0;
#X connect 9 0 6 1;
#X connect 10 0 27 0;
#X connect 11 0 10 0;
#X connect 11 0 28 0;
#X connect 12 0 1 0;
#X connect 12 0 5 0;
#X connect 12 0 13 0;
#X connect 15 0 14 0;
#X connect 16 0 6 0;
#X connect 22 0 30 0;
#X connect 23 0 29 0;
#X connect 24 0 32 0;
#X connect 25 0 33 0;
#X connect 26 0 31 0;
#X connect 27 0 28 0;
#X restore 16 57 pd instrument_controls;
#N canvas 900 82 450 300 base_conf 0;
#X obj 34 207 shell;
#X obj 34 148 bng 15 250 50 0 empty __init init_media_count 17 7 0
10 -262144 -1 -1;
#X obj 34 167 thisdir;
#X msg 34 187 ls -l \$1/snd | wc -l;
#X obj 34 227 s count_media;
#X msg 50 69 createNode box ShapeNode;
#X obj 25 19 r __init;
#X obj 25 41 t b b;
#X text 111 27 create the box that contains the sound nodes;
#N canvas 678 439 981 531 setCamerViewOnLuoda 0;
#X obj 78 144 bng 15 250 50 0 empty empty empty 17 7 0 10 -262144 -1
-1;
#X text 97 139 set view for this example;
#X obj 95 290 spin.toCamera \$0;
#X msg 80 319 createNode grid GridNode;
#X obj 69 84 inlet;
#X obj 85 108 t b b;
#X obj 547 24 subwidget-ViewCtl \$0;
#X obj 297 100 r side_view;
#X obj 306 123 r top_view;
#X msg 140 204 setTranslation -0.7 0.15 55 \, setOrientation -90 0
0;
#X msg 122 170 setTranslation -31.9 -27.99 -18.649 \, setOrientation
-385 -178 -46;
#X obj 400 73 hostname;
#X obj 395 47 bng 15 250 50 0 empty empty empty 17 7 0 10 -262144 -1
-1;
#X obj 405 104 prepend set;
#X msg 405 126 luoda;
#X obj 420 44 loadbang;
#X obj 80 339 s \$0-to-SPIN;
#X connect 0 0 10 0;
#X connect 3 0 16 0;
#X connect 4 0 5 0;
#X connect 5 0 0 0;
#X connect 5 1 14 0;
#X connect 7 0 10 0;
#X connect 8 0 9 0;
#X connect 9 0 2 0;
#X connect 10 0 2 0;
#X connect 11 0 13 0;
#X connect 12 0 11 0;
#X connect 13 0 14 0;
#X connect 14 0 2 1;
#X connect 15 0 11 0;
#X restore 203 133 pd setCamerViewOnLuoda;
#X obj 186 134 bng 15 250 50 0 empty __init empty 17 7 0 10 -262144
-1 -1;
#X msg 161 212 50;
#X obj 26 114 s \$0-to-SPIN;
#X msg 27 85 /box setScale 22 22 20 \, /box setColor 0.58 0.66 0.79
0.3 \, /box setRenderBin 200;
#X connect 0 0 4 0;
#X connect 1 0 2 0;
#X connect 2 0 3 0;
#X connect 3 0 0 0;
#X connect 5 0 12 0;
#X connect 6 0 7 0;
#X connect 7 0 13 0;
#X connect 7 1 5 0;
#X connect 10 0 9 0;
#X connect 11 0 4 0;
#X connect 13 0 12 0;
#X restore 257 -216 pd base_conf;
#X symbolatom 486 -317 10 0 0 0 - - -;
#X obj 5 248 cnv 15 280 255 empty empty Show_control 20 12 0 10 -233017
-66577 0;
#N canvas 1168 109 714 629 physics 0;
#X obj 264 104 until;
#N canvas 571 157 450 300 velocities 0;
#X obj 124 53 inlet;
#X obj 124 75 t a b b b;
#X obj 140 99 random 10;
#X obj 140 121 - 5;
#X obj 140 143 * 0.1;
#X obj 207 100 random 10;
#X obj 207 122 - 5;
#X obj 207 144 * 0.1;
#X obj 272 99 random 10;
#X obj 272 121 - 5;
#X obj 272 143 * 0.1;
#X obj 125 181 pack f f f f;
#X obj 125 203 outlet;
#X floatatom 225 20 5 0 0 0 - - -;
#X obj 225 41 / 2;
#X connect 0 0 1 0;
#X connect 1 0 11 0;
#X connect 1 1 2 0;
#X connect 1 2 5 0;
#X connect 1 3 8 0;
#X connect 2 0 3 0;
#X connect 3 0 4 0;
#X connect 4 0 11 1;
#X connect 5 0 6 0;
#X connect 6 0 7 0;
#X connect 7 0 11 2;
#X connect 8 0 9 0;
#X connect 9 0 10 0;
#X connect 10 0 11 3;
#X connect 11 0 12 0;
#X connect 13 0 14 0;
#X connect 13 0 2 1;
#X connect 13 0 5 1;
#X connect 13 0 8 1;
#X connect 14 0 3 1;
#X connect 14 0 6 1;
#X connect 14 0 9 1;
#X restore 264 148 pd velocities;
#X msg 124 142 /ml* setParam play 1;
#X obj 302 56 r ml_ctrl;
#X msg 133 166 /gr* setParam play 1;
#X msg 430 33 0 0 0 0;
#X msg 437 56 0 1 0 0;
#X msg 436 80 0 -1 0 0;
#X msg 436 104 0 0 1 0;
#X msg 434 125 0 0 -1 0;
#X msg -6 206 /constrained0 setVelocity 1 0.7 0;
#X msg -44 100 /snd0 setParam play 1 \, /snd0 setParam loop 1 \, /snd0
setParam mul 5;
#X msg 292 226 /constrained* setVelocity \$2 \$3 0;
#X msg 435 147 0 0.5 -1 0;
#X msg -47 238 /snd* setParam play 1 \, /snd* setParam loop 1 \, /snd*
setParam mul 5;
#X msg 264 82 15;
#X obj 264 126 counter 0 15;
#X msg 264 168 /constrained\$1 setVelocity \$2 \$3 0;
#X obj 263 9 r tick;
#X obj 263 31 % 20;
#X obj 263 53 sel 0;
#X msg 293 249 /constrained* translateTo -10 -10 0 3 LinearMotion;
#X msg 26 508 /constrained* translateTo \$2 \$3 0 \$4 LinearMotion
;
#X obj 26 470 bng 15 250 50 0 empty empty empty 17 7 0 10 -262144 -1
-1;
#N canvas 571 147 450 300 linearTranslations 0;
#X obj 124 53 inlet;
#X obj 140 99 random 10;
#X obj 140 121 - 5;
#X obj 207 100 random 10;
#X obj 207 122 - 5;
#X obj 125 181 pack f f f f;
#X obj 125 203 outlet;
#X floatatom 225 20 5 0 0 0 - - -;
#X obj 225 41 / 2;
#X obj 124 75 t b b b b;
#X obj 272 99 random 3;
#X obj 271 120 + 0.5;
#X connect 0 0 9 0;
#X connect 1 0 2 0;
#X connect 2 0 5 1;
#X connect 3 0 4 0;
#X connect 4 0 5 2;
#X connect 5 0 6 0;
#X connect 7 0 8 0;
#X connect 7 0 1 1;
#X connect 7 0 3 1;
#X connect 7 0 10 1;
#X connect 8 0 2 1;
#X connect 8 0 4 1;
#X connect 8 0 11 1;
#X connect 9 0 5 0;
#X connect 9 1 1 0;
#X connect 9 2 3 0;
#X connect 9 3 10 0;
#X connect 10 0 11 0;
#X connect 11 0 5 3;
#X restore 26 489 pd linearTranslations;
#X obj 123 311 r Trigger1;
#X obj 193 311 r Trigger2;
#X obj 263 311 r Trigger3;
#X obj 333 311 r Trigger4;
#X obj 403 311 r Trigger5;
#X obj 26 529 s \$0-to-SPIN;
#X obj 264 189 s \$0-to-SPIN;
#X msg 297 267 /constrained* translateTo 0 0 0 3 LinearMotion;
#X msg 337 394 /constrained* translateTo 7 9 0 5 LinearMotion;
#X msg 339 451 /constrained* translateTo 7 -9 0 5 LinearMotion;
#X msg 342 479 /constrained* translateTo -7 -9 0 5 LinearMotion;
#X msg 340 422 /constrained* translateTo -7 9 0 5 LinearMotion;
#X connect 0 0 16 0;
#X connect 1 0 17 0;
#X connect 2 0 31 0;
#X connect 3 0 15 0;
#X connect 4 0 31 0;
#X connect 5 0 12 0;
#X connect 6 0 12 0;
#X connect 7 0 12 0;
#X connect 8 0 12 0;
#X connect 9 0 12 0;
#X connect 10 0 31 0;
#X connect 11 0 31 0;
#X connect 12 0 31 0;
#X connect 13 0 12 0;
#X connect 14 0 31 0;
#X connect 15 0 0 0;
#X connect 16 0 1 0;
#X connect 17 0 31 0;
#X connect 18 0 19 0;
#X connect 19 0 20 0;
#X connect 20 0 15 0;
#X connect 21 0 31 0;
#X connect 22 0 30 0;
#X connect 23 0 24 0;
#X connect 24 0 22 0;
#X connect 25 0 23 0;
#X connect 26 0 23 0;
#X connect 27 0 23 0;
#X connect 28 0 23 0;
#X connect 29 0 23 0;
#X connect 32 0 31 0;
#X connect 33 0 30 0;
#X connect 34 0 30 0;
#X connect 35 0 30 0;
#X connect 36 0 30 0;
#X restore 1078 -92 pd physics;
#X obj 6 93 cnv 15 160 150 empty empty Visualization 20 12 0 10 -233017
-66577 0;
#N canvas 394 423 1295 459 speakers 0;
#X obj 51 16 inlet;
#X obj 51 117 until;
#X obj 51 139 f;
#X obj 79 138 + 1;
#X obj 51 45 t b b;
#X msg 99 94 0;
#X obj 33 404 s \$0-to-SPIN;
#X obj 92 18 bng 15 250 50 0 empty empty empty 17 7 0 10 -262144 -1
-1;
#X msg 51 95 6;
#X msg 50 183 4;
#X obj 50 205 t a b;
#X obj 50 227 until;
#X obj 50 249 f;
#X obj 75 249 + 1;
#X obj 50 161 t b a;
#X obj 50 271 pack f f;
#X obj 50 293 t a a;
#N canvas 260 573 637 366 coords 0;
#X obj 73 40 inlet;
#X obj 73 62 unpack;
#X obj 74 171 f;
#X obj 101 126 sel 0;
#X obj 73 84 mod 4;
#X obj 74 106 t b f;
#X obj 227 84 mod 6;
#X obj 227 106 sel 0 1 2 3 4 5;
#X obj 228 195 f;
#X obj 113 215 pack;
#X obj 113 237 outlet;
#X obj 102 171 + 4;
#X msg 213 136 10;
#X msg 244 136 6;
#X msg 277 137 2;
#X msg 313 137 -2;
#X msg 347 139 -6;
#X msg 383 136 -10;
#X msg 101 148 -6;
#X connect 0 0 1 0;
#X connect 1 0 4 0;
#X connect 1 1 6 0;
#X connect 2 0 9 0;
#X connect 2 0 11 0;
#X connect 3 0 18 0;
#X connect 4 0 5 0;
#X connect 5 0 2 0;
#X connect 5 1 3 0;
#X connect 6 0 7 0;
#X connect 7 0 12 0;
#X connect 7 1 13 0;
#X connect 7 2 14 0;
#X connect 7 3 15 0;
#X connect 7 4 16 0;
#X connect 7 5 17 0;
#X connect 8 0 9 1;
#X connect 9 0 10 0;
#X connect 11 0 2 1;
#X connect 12 0 8 0;
#X connect 13 0 8 0;
#X connect 14 0 8 0;
#X connect 15 0 8 0;
#X connect 16 0 8 0;
#X connect 17 0 8 0;
#X connect 18 0 2 1;
#X restore 77 317 pd coords;
#X obj 50 340 list append;
#X msg 50 315 \$1;
#X msg 33 367 createNode speaker\$1 ShapeNode \, /speaker\$1 setTranslation
\$2 \$3 0;
#X obj 136 337 print;
#X msg 720 61 createNode speakerC1 ShapeNode \, /speakerC1 setTranslation
-12.5 2.5 0;
#X msg 720 91 createNode speakerC2 ShapeNode \, /speakerC2 setTranslation
-7.5 2.5 0;
#X msg 721 121 createNode speakerC3 ShapeNode \, /speakerC3 setTranslation
-2.5 2.5 0;
#X msg 721 152 createNode speakerC4 ShapeNode \, /speakerC4 setTranslation
2.5 2.5 0;
#X msg 721 182 createNode speakerC5 ShapeNode \, /speakerC5 setTranslation
7.5 2.5 0;
#X msg 721 212 createNode speakerC6 ShapeNode \, /speakerC6 setTranslation
12.5 2.5 0;
#X obj 319 314 s \$0-to-SPIN;
#X obj 707 251 s \$0-to-SPIN;
#X obj 1097 251 s \$0-to-SPIN;
#X msg 1109 61 createNode speakerD1 ShapeNode \, /speakerD1 setTranslation
-12.5 -2.5 0;
#X msg 1110 91 createNode speakerD2 ShapeNode \, /speakerD2 setTranslation
-7.5 -2.5 0;
#X msg 1111 121 createNode speakerD3 ShapeNode \, /speakerD3 setTranslation
-2.5 -2.5 0;
#X msg 1111 152 createNode speakerD4 ShapeNode \, /speakerD4 setTranslation
2.5 -2.5 0;
#X msg 1111 182 createNode speakerD5 ShapeNode \, /speakerD5 setTranslation
7.5 -2.5 0;
#X msg 341 168 createNode speakerB1 ShapeNode \, /speakerB1 setTranslation
-10 7.5 0;
#X msg 340 203 createNode speakerB2 ShapeNode \, /speakerB2 setTranslation
-5 7.5 0;
#X msg 339 238 createNode speakerB3 ShapeNode \, /speakerB3 setTranslation
0 7.5 0;
#X msg 340 273 createNode speakerB4 ShapeNode \, /speakerB4 setTranslation
5 7.5 0;
#X msg 341 61 createNode speakerA1 ShapeNode \, /speakerA1 setTranslation
-2.5 12.5 0;
#X msg 342 93 createNode speakerA2 ShapeNode \, /speakerA2 setTranslation
2.5 12.5 0;
#X msg 341 128 createNode speakerA3 ShapeNode \, /speakerA3 setTranslation
7.5 12.5 0;
#X obj 695 448 s \$0-to-SPIN;
#X msg 709 321 createNode speakerE1 ShapeNode \, /speakerE1 setTranslation
-12.5 -7.5 0;
#X msg 710 350 createNode speakerE2 ShapeNode \, /speakerE2 setTranslation
-7.5 -7.5 0;
#X msg 711 381 createNode speakerE3 ShapeNode \, /speakerE3 setTranslation
-2.5 -7.5 0;
#X msg 711 412 createNode speakerE4 ShapeNode \, /speakerE4 setTranslation
2.5 -7.5 0;
#X obj 1079 384 s \$0-to-SPIN;
#X msg 1089 311 createNode speakerF1 ShapeNode \, /speakerF1 setTranslation
-12.5 -12.5 0;
#X msg 1090 340 createNode speakerF2 ShapeNode \, /speakerF2 setTranslation
-7.5 -12.5 0;
#X obj 1090 28 r \$0-speakers;
#X obj 712 38 r \$0-speakers;
#X obj 330 36 r \$0-speakers;
#X obj 77 66 s \$0-speakers;
#X obj 706 296 r \$0-speakers;
#X obj 1079 288 r \$0-speakers;
#X connect 0 0 4 0;
#X connect 1 0 2 0;
#X connect 2 0 3 0;
#X connect 2 0 14 0;
#X connect 3 0 2 1;
#X connect 4 1 54 0;
#X connect 5 0 2 1;
#X connect 5 0 12 1;
#X connect 7 0 4 0;
#X connect 8 0 1 0;
#X connect 9 0 10 0;
#X connect 10 0 11 0;
#X connect 11 0 12 0;
#X connect 12 0 13 0;
#X connect 12 0 15 0;
#X connect 13 0 12 1;
#X connect 14 0 9 0;
#X connect 14 1 15 1;
#X connect 15 0 16 0;
#X connect 16 0 19 0;
#X connect 16 1 17 0;
#X connect 17 0 18 1;
#X connect 17 0 21 0;
#X connect 19 0 18 0;
#X connect 20 0 6 0;
#X connect 22 0 29 0;
#X connect 23 0 29 0;
#X connect 24 0 29 0;
#X connect 25 0 29 0;
#X connect 26 0 29 0;
#X connect 27 0 29 0;
#X connect 31 0 30 0;
#X connect 32 0 30 0;
#X connect 33 0 30 0;
#X connect 34 0 30 0;
#X connect 35 0 30 0;
#X connect 36 0 28 0;
#X connect 37 0 28 0;
#X connect 38 0 28 0;
#X connect 39 0 28 0;
#X connect 40 0 28 0;
#X connect 41 0 28 0;
#X connect 42 0 28 0;
#X connect 44 0 43 0;
#X connect 45 0 43 0;
#X connect 46 0 43 0;
#X connect 47 0 43 0;
#X connect 49 0 48 0;
#X connect 50 0 48 0;
#X connect 51 0 31 0;
#X connect 51 0 32 0;
#X connect 51 0 33 0;
#X connect 51 0 34 0;
#X connect 51 0 35 0;
#X connect 52 0 22 0;
#X connect 52 0 23 0;
#X connect 52 0 24 0;
#X connect 52 0 25 0;
#X connect 52 0 26 0;
#X connect 52 0 27 0;
#X connect 53 0 40 0;
#X connect 53 0 41 0;
#X connect 53 0 42 0;
#X connect 53 0 36 0;
#X connect 53 0 37 0;
#X connect 53 0 38 0;
#X connect 53 0 39 0;
#X connect 55 0 44 0;
#X connect 55 0 45 0;
#X connect 55 0 46 0;
#X connect 55 0 47 0;
#X connect 56 0 49 0;
#X connect 56 0 50 0;
#X restore 30 117 pd speakers;
#X obj 14 117 bng 15 250 50 0 empty __init empty 17 7 0 10 -262144
-1 -1;
#X obj 105 -212 bng 15 250 50 0 empty empty INIT 17 7 0 10 -260097
-258113 -258113;
#X obj 171 -58 cnv 15 570 300 empty empty Manual_ctrl 20 12 0 10 -233017
-66577 0;
#X obj 1079 -39 bng 15 250 50 0 manual_trig empty trigger_random 17
7 0 10 -262144 -1 -1;
#N canvas 571 203 450 300 reporters 0;
#X obj -170 16 LEDfromReporter \$0 0;
#X obj -170 35 LEDfromReporter \$0 1;
#X obj -170 56 LEDfromReporter \$0 2;
#X obj -171 76 LEDfromReporter \$0 3;
#X obj -170 96 LEDfromReporter \$0 4;
#X obj -170 117 LEDfromReporter \$0 5;
#X obj -40 35 LEDfromReporter \$0 7;
#X obj -40 56 LEDfromReporter \$0 8;
#X obj -41 76 LEDfromReporter \$0 9;
#X obj -40 96 LEDfromReporter \$0 10;
#X obj -39 117 LEDfromReporter \$0 11;
#X obj 90 35 LEDfromReporter \$0 13;
#X obj 90 56 LEDfromReporter \$0 14;
#X obj 89 76 LEDfromReporter \$0 15;
#X obj 90 96 LEDfromReporter \$0 16;
#X obj 90 117 LEDfromReporter \$0 17;
#X obj -166 161 LEDfromReporter \$0 19;
#X obj -166 182 LEDfromReporter \$0 20;
#X obj -168 203 LEDfromReporter \$0 21;
#X obj -166 222 LEDfromReporter \$0 22;
#X obj -166 243 LEDfromReporter \$0 23;
#X obj -36 161 LEDfromReporter \$0 25;
#X restore 1078 -67 pd reporters;
#X msg 6 -283 okta;
#X obj 1076 -132 r toSpin;
#N canvas 387 88 1009 665 single_loop 0;
#X msg 57 67 createNode listener0 Listener;
#X obj 550 131 playlist all 400 300 {Helvetica 10 bold} #457782 yellow
black red;
#X obj 550 40 thisdir;
#X obj 550 62 makefilename %s/snd;
#X obj 552 20 bng 15 250 50 0 empty empty empty 17 7 0 10 -262144 -1
-1;
#X msg 550 84 location \$1;
#X obj 233 317 s \$0-to-SPIN-TCP;
#X obj 112 200 t a f;
#X obj 112 414 pack f s;
#X obj 276 542 print;
#X obj 550 435 print playlist;
#X msg 381 181 seek \$1;
#X obj 262 12 inlet;
#X obj 262 34 t b b b;
#X msg 233 294 createNode snd\$1 SoundNode;
#X obj 112 178 t f b;
#X floatatom 411 130 5 0 0 0 - - -;
#X obj 322 152 random 14;
#X obj 235 13 bng 15 250 50 0 empty empty empty 17 7 0 10 -262144 -1
-1;
#X obj 372 110 r count_media;
#X msg 176 97 0;
#X obj 108 240 t a a;
#X obj 108 282 t a a;
#X msg 112 445 /snd\$1 setDirectivityFlag 1 \, /snd\$1 setParam setMediaURI
file://\$2 \, /snd\$1 setParam play 1 \, /snd\$1 setParam loop 1;
#X obj 57 496 s \$0-to-SPIN;
#X connect 0 0 24 0;
#X connect 1 0 10 0;
#X connect 1 0 8 1;
#X connect 2 0 3 0;
#X connect 3 0 5 0;
#X connect 4 0 2 0;
#X connect 5 0 1 0;
#X connect 7 0 21 0;
#X connect 7 1 14 0;
#X connect 8 0 23 0;
#X connect 11 0 1 0;
#X connect 12 0 13 0;
#X connect 13 1 0 0;
#X connect 13 2 4 0;
#X connect 13 2 20 0;
#X connect 14 0 6 0;
#X connect 15 0 7 0;
#X connect 15 1 17 0;
#X connect 16 0 11 0;
#X connect 17 0 11 0;
#X connect 18 0 13 0;
#X connect 19 0 17 1;
#X connect 20 0 15 0;
#X connect 21 0 22 0;
#X connect 22 0 8 0;
#X connect 23 0 9 0;
#X connect 23 0 24 0;
#X restore 28 -66 pd single_loop;
#X obj 14 145 bng 15 250 50 0 side_view empty side_view 17 7 0 10 -262144
-1 -1;
#X obj 14 165 bng 15 250 50 0 top_view empty top_view 17 7 0 10 -262144
-1 -1;
#X obj 29 -84 bng 15 250 50 0 empty empty empty 17 7 0 10 -262144 -1
-1;
#N canvas 676 537 1243 542 manual 0;
#X obj 171 69 r \$0-popup;
#X obj 854 136 s \$0-popup;
#X obj 367 147 s \$0-id;
#X obj 1051 86 r \$0-to-nodeList;
#X obj 1103 164 s \$1-nodeType;
#X obj 1036 142 unpack s s;
#X obj 276 49 r \$0-popup-set;
#X obj 105 128 popup 150 20 #e0e0e0 CHOOSE constrained0 constrained1
constrained2 constrained3 constrained4;
#X obj 854 96 r \$0-from-SPIN;
#X obj 101 417 prepend;
#X obj 248 360 sprintf /%s;
#X obj 104 153 grid grid1 144 0 1 144 0 1 0 0.001 0.001 10 10 275 138
;
#X obj 101 311 expr ($f1*24)-12;
#X obj 205 310 expr ($f1*24)-12;
#X obj 101 332 pack f f 0;
#X obj 101 379 prepend setTranslation;
#X obj 101 444 s \$0-to-SPIN;
#X obj 102 357 gate 2;
#X obj 347 428 prepend;
#X obj 494 371 sprintf /%s;
#X obj 306 484 s \$0-to-SPIN;
#X obj 347 364 prepend translateTo;
#X obj 625 376 list append;
#X floatatom 252 190 5 0 0 1 time_(sec) - -;
#X obj 622 409 list append LinearMotion;
#X obj 253 154 vradio 15 1 1 2 empty empty empty 0 -8 0 10 -262144
-1 -1 0;
#X obj 287 285 + 1;
#X text 278 152 Manual;
#X obj 398 457 prepend set;
#X msg 398 479 /constrained0 translateTo -7.0072 12 0 33 LinearMotion
;
#X obj 854 116 popupCtrl-nodeList \$0 ConstraintsNode \$4 \$5 \$6 \$7
\$8;
#X text 275 169 physics;
#X connect 0 0 7 0;
#X connect 3 0 30 1;
#X connect 5 1 4 0;
#X connect 6 0 7 1;
#X connect 7 1 2 0;
#X connect 7 1 10 0;
#X connect 7 1 19 0;
#X connect 8 0 30 0;
#X connect 9 0 16 0;
#X connect 10 0 9 1;
#X connect 11 0 12 0;
#X connect 11 1 13 0;
#X connect 12 0 14 0;
#X connect 13 0 14 1;
#X connect 14 0 17 1;
#X connect 15 0 9 0;
#X connect 17 0 15 0;
#X connect 17 1 21 0;
#X connect 18 0 20 0;
#X connect 18 0 28 0;
#X connect 19 0 18 1;
#X connect 21 0 22 0;
#X connect 22 0 24 0;
#X connect 23 0 22 1;
#X connect 24 0 18 0;
#X connect 25 0 26 0;
#X connect 26 0 17 0;
#X connect 28 0 29 0;
#X connect 30 0 1 0;
#X connect 30 2 5 0;
#X coords 0 -1 1 1 250 200 1 100 100;
#X restore 181 29 pd manual control;
#N canvas 1067 130 770 594 trigger 0;
#X obj 250 175 thisdir;
#X msg 250 219 location \$1;
#X obj 250 154 loadbang;
#X obj 102 185 vradio 15 1 0 5 \$0-snd empty Sound$ 0 -8 0 10 -262144
-1 -1 0;
#X obj 213 448 pack f f s;
#X obj 233 156 bng 15 250 50 0 empty empty empty 17 7 0 10 -262144
-1 -1;
#X obj 268 202 makefilename %s/snd;
#X obj 202 388 r \$0-snd;
#X obj 239 416 r \$0-loop;
#X obj 204 509 s \$0-to-SPIN;
#X obj 102 142 tgl 15 0 \$0-loop empty loop? 17 7 0 10 -262144 -1 -1
1 1;
#X obj 333 420 t b a;
#X msg 213 470 /snd\$1 setParam path \$3 \, /snd\$1 setParam play 1
\, /snd\$1 setParam loop \$2 \, /snd\$1 setParam mul 0.2;
#X obj 147 148 playlist all 250 150 {Helvetica 10 bold} #457782 yellow
black red;
#X obj 143 543 p;
#X connect 0 0 6 0;
#X connect 1 0 13 0;
#X connect 2 0 0 0;
#X connect 4 0 12 0;
#X connect 5 0 0 0;
#X connect 6 0 1 0;
#X connect 7 0 4 0;
#X connect 8 0 4 1;
#X connect 11 0 4 0;
#X connect 11 1 4 2;
#X connect 12 0 9 0;
#X connect 12 0 14 0;
#X connect 13 0 11 0;
#X coords 0 -1 1 1 300 200 1 100 100;
#X restore 435 29 pd trigger sounds;
#X obj 1076 -113 s \$0-to-SPIN;
#X connect 2 0 26 0;
#X connect 3 0 5 0;
#X connect 9 0 10 0;
#X connect 12 0 11 0;
#X connect 16 0 1 0;
#X connect 21 0 20 0;
#X connect 22 0 5 0;
#X connect 26 0 0 0;
#X connect 27 0 34 0;
#X connect 31 0 28 0;
