#N canvas 775 392 562 325 10;
#X msg 208 48 current;
#X floatatom 159 219 5 0 0 0 - - -;
#X floatatom 234 218 5 0 0 0 - - -;
#X text 202 218 okta;
#X text 102 219 sampleID;
#X symbolatom 303 216 30 0 0 0 - - -;
#X text 277 216 date;
#X obj 312 175 print message;
#X floatatom 341 92 5 0 0 0 - - -;
#X msg 236 80 state;
#X obj 218 141 oktadb fieldsound.dyndns.info 7778;
#X connect 0 0 10 0;
#X connect 1 0 10 1;
#X connect 8 0 10 2;
#X connect 9 0 10 0;
#X connect 10 0 1 0;
#X connect 10 1 2 0;
#X connect 10 2 5 0;
#X connect 10 3 7 0;
