#N canvas 0 24 1003 711 10;
#X declare -path ./;
#X declare -path ./abs;
#X declare -path ./rj;
#X declare -path ./xjimmies;
#X declare -lib gridflow;
#X declare -lib iemmatrix;
#X declare -path ../rj;
#X declare -path ../rj;
#X declare -path ../rj;
#X declare -path ../rj;
#X declare -path ../rj;
#X declare -path ../rj;
#X declare -path ../rj;
#X declare -path ../rj;
#X declare -path ../rj;
#X declare -path ../rj;
#X declare -path ../rj;
#X declare -path ../rj;
#X declare -path ../rj;
#X declare -path ../rj;
#X declare -path ../rj;
#X declare -path ../rj;
#X declare -path ../rj;
#X declare -path ../rj;
#X declare -path ../rj;
#X declare -path ../rj;
#X declare -path ../rj;
#X declare -path ../rj;
#X declare -path ../rj;
#X declare -path ../rj;
#X declare -path ../rj;
#X declare -path ../rj;
#X declare -path ../rj;
#X declare -path ../rj;
#X declare -path ../rj;
#X declare -path ../rj;
#X declare -path ../rj;
#X declare -path ../rj;
#X declare -path ../rj;
#X declare -path ../rj;
#X declare -path ../rj;
#X declare -path ../rj;
#X declare -path ../rj;
#X declare -path ../rj;
#X declare -path ../rj;
#X declare -path ../rj;
#X declare -path ../rj;
#X declare -path ../rj;
#X declare -path ../rj;
#X declare -path ../rj;
#X declare -path ../rj;
#X declare -path ../rj;
#X declare -path ../rj;
#X declare -path ../rj;
#X declare -path ../rj;
#X declare -path ../rj;
#X declare -path ../rj;
#X declare -path ../rj;
#X declare -path ../rj;
#X declare -path ../rj;
#X declare -path ../rj;
#X declare -path ../rj;
#X declare -path ../rj;
#X declare -path ../rj;
#X declare -path ../rj;
#X declare -path ../rj;
#X declare -path ../rj;
#X declare -path ../rj;
#X declare -path ../rj;
#X declare -path ../rj;
#X declare -path ../rj;
#X declare -path ../rj;
#X declare -path ../rj;
#X declare -path ../rj;
#X declare -path ../rj;
#X declare -path ../rj;
#X declare -path ../rj;
#X declare -path ../rj;
#X declare -path ../rj;
#X declare -path ../rj;
#X declare -path ../rj;
#X declare -path ../rj;
#X declare -path ../rj;
#X declare -path ../rj;
#X declare -path ../rj;
#X declare -path ../rj;
#X declare -path ../rj;
#X obj 846 1 declare -path ./;
#X obj 846 21 declare -path ./abs;
#X obj 847 41 declare -path ./rj;
#X obj 15 6 cnv 15 160 50 empty empty OKTA 10 24 1 48 -233017 -66577
0;
#X obj 47 189 8player -------------;
#X obj 52 618 dac~ 1 2 3 4 5 6 7 8;
#X obj 847 61 declare -path ./xjimmies;
#X obj 61 224 meter8~;
#X obj 312 29 playlist all 300 200 {Helvetica 12 bold} #457782 yellow
black red;
#X obj 396 223 prepend set;
#X msg 396 245 /home/mis/src/okta/data/8_Channel_ID.wav;
#X msg 345 227 file \$1;
#X msg 181 128 start;
#X msg 164 106 loop \$1;
#X obj 164 86 tgl 15 0 empty empty empty 17 7 0 10 -262144 -1 -1 1
1;
#X msg 194 147 stop;
#X msg 155 64 startagain;
#X text 844 -20 declare some paths...;
#N canvas 0 24 450 300 README 0;
#X text 13 19 This patch relies on some dependencies. First of all
\, it should work with pdextended flavour of pd. The patch was developed
with version 0.42.5 of pdextended.;
#X text 14 58 3rd party dependencies:;
#X text 17 76 rjlib - included in the rj folder but developed by Frank
Barknecht/Digital Jokey as part of the RjDj application: https://github.com/rjdj/rjlib
;
#X text 15 116 xjimmies - by Zack Settel \, part of the pdsheefa library
\, only the needed abstractions are included in the xjimmies folder.
xjimmies live here: http://code.sat.qc.ca/trac/pdsheefa;
#X text 15 168 gridflow - gridflow.ca. Should be installed via the
standard external library installation procedure (as per pd);
#X restore 848 124 pd README;
#X obj 214 597 meter8~;
#X msg 301 -4 location /Users/stevebates/okta/snd;
#X obj 298 -30 loadbang;
#X msg 727 148 current;
#X floatatom 686 260 8 0 0 0 - - -;
#X floatatom 744 293 5 0 0 0 - - -;
#X text 709 289 okta;
#X text 438 274 sampleID;
#X symbolatom 810 287 30 0 0 0 - - -;
#X text 784 287 date;
#X obj 819 246 print message;
#X floatatom 848 163 5 0 0 0 - - -;
#X msg 758 187 state;
#X obj 725 212 oktadb fieldsound.dyndns.info 7778;
#X obj 727 126 metro 30000;
#X obj 727 107 tgl 15 0 empty empty empty 17 7 0 10 -262144 -1 -1 0
1;
#X obj 848 81 import gridflow;
#X obj 848 102 import iemmatrix;
#X obj 650 -16 localState;
#X obj 265 330 eq1 ch3;
#X obj 368 331 eq1 ch4;
#X obj 474 331 eq1 ch5;
#X obj 582 331 eq1 ch6;
#X obj 689 330 eq1 ch7;
#X obj 792 331 eq1 ch8;
#X obj 51 331 eq1 ch1;
#X obj 158 331 eq1 ch2;
#N canvas 103 120 802 504 matrix 0;
#X obj 120 369 #to_list;
#X obj 120 236 #many tgl 8 8;
#X obj 200 371 prepend set;
#X msg 200 394 0 0 0 0 0 0 0 0 0 0 0 0 0 0 0 0 0 0 0 0 0 0 0 0 0 0
0 0 0 0 0 0 0 0 0 0 0 0 0 0 0 0 0 0 0 0 0 0 0 0 0 0 0 0 0 0 0 0 0 0
0 0 0 0;
#X msg 451 53 1 0 0 0 0 0 0 0 0 1 0 0 0 0 0 0 0 0 1 0 0 0 0 0 0 0 0
1 0 0 0 0 0 0 0 0 1 0 0 0 0 0 0 0 0 1 0 0 0 0 0 0 0 0 1 0 0 0 0 0 0
0 0 1;
#X msg 450 193 0 0 0 0 0 0 0 0 0 0 0 0 0 0 0 0 0 0 0 0 0 0 0 0 0 0
0 0 0 0 0 0 0 0 0 0 0 0 0 0 0 0 0 0 0 0 0 0 0 0 0 0 0 0 0 0 0 0 0 0
0 0 0 0;
#X msg 450 146 1 0 0 0 0 0 1 1 1 0 0 0 0 0 1 1 0 1 0 0 0 1 0 1 0 1
0 0 0 1 0 0 0 0 1 0 1 0 0 0 0 0 1 0 1 0 0 0 0 0 0 1 0 0 0 1 0 0 0 1
0 0 0 1;
#X msg 451 100 1 0 0 0 0 0 0 0 0 1 0 0 0 0 0 0 0 0 1 0 0 0 0 0 0 0
0 0 0 0 1 0 0 0 0 0 0 0 0 1 0 0 0 0 0 1 0 0 0 0 0 0 1 0 0 0 0 0 0 1
0 0 0 0;
#X obj 454 9 r /mtx-forward;
#X obj 120 158 r mtx-g_matrix;
#X obj 397 251 s mtx-g_matrix;
#X obj 19 47 recEvesdrop mtx matrix;
#X obj 120 388 s mtx-matrix;
#X obj 454 31 u_dispatch mtx g_matrix;
#X obj 256 195 prepend set;
#X msg 256 273 0 0 0 0 0 0 0 0 0 0 0 0 0 0 0 0 0 0 0 0 0 0 0 0 0 0
0 0 0 0 0 0 0 0 0 0 0 0 0 0 0 0 0 0 0 0 0 0 0 0 0 0 0 0 0 0 0 0 0 0
0 0 0 0;
#X obj 20 69 matrix 8 8;
#X obj 119 216 #import (8 8);
#X obj 88 70 inlet~;
#X obj 130 70 inlet~;
#X obj 172 70 inlet~;
#X obj 214 70 inlet~;
#X obj 256 70 inlet~;
#X obj 298 70 inlet~;
#X obj 340 70 inlet~;
#X obj 382 70 inlet~;
#X obj 52 124 outlet~;
#X obj 102 124 outlet~;
#X obj 152 124 outlet~;
#X obj 202 124 outlet~;
#X obj 252 124 outlet~;
#X obj 302 124 outlet~;
#X obj 352 124 outlet~;
#X obj 402 124 outlet~;
#X obj 52 102 mtx_mul~ 8 8 200 ..................;
#X connect 0 0 2 0;
#X connect 0 0 12 0;
#X connect 1 0 0 0;
#X connect 2 0 3 0;
#X connect 4 0 10 0;
#X connect 5 0 10 0;
#X connect 6 0 10 0;
#X connect 7 0 10 0;
#X connect 8 0 13 0;
#X connect 9 0 14 0;
#X connect 9 0 17 0;
#X connect 11 0 16 0;
#X connect 14 0 15 0;
#X connect 16 0 34 0;
#X connect 17 0 1 0;
#X connect 18 0 34 1;
#X connect 19 0 34 2;
#X connect 20 0 34 3;
#X connect 21 0 34 4;
#X connect 22 0 34 5;
#X connect 23 0 34 6;
#X connect 24 0 34 7;
#X connect 25 0 34 8;
#X connect 34 0 26 0;
#X connect 34 1 27 0;
#X connect 34 2 28 0;
#X connect 34 3 29 0;
#X connect 34 4 30 0;
#X connect 34 5 31 0;
#X connect 34 6 32 0;
#X connect 34 7 33 0;
#X coords 0 -1 1 1 129 133 1 120 233;
#X restore 49 481 pd matrix mtx;
#X connect 4 0 7 0;
#X connect 4 0 44 0;
#X connect 4 1 7 1;
#X connect 4 1 45 0;
#X connect 4 2 7 2;
#X connect 4 2 38 0;
#X connect 4 3 7 3;
#X connect 4 3 39 0;
#X connect 4 4 7 4;
#X connect 4 4 40 0;
#X connect 4 5 7 5;
#X connect 4 5 41 0;
#X connect 4 6 7 6;
#X connect 4 6 42 0;
#X connect 4 7 7 7;
#X connect 4 7 43 0;
#X connect 8 0 9 0;
#X connect 8 0 11 0;
#X connect 9 0 10 0;
#X connect 11 0 4 1;
#X connect 12 0 4 1;
#X connect 13 0 4 1;
#X connect 14 0 13 0;
#X connect 15 0 4 1;
#X connect 16 0 4 1;
#X connect 20 0 8 0;
#X connect 21 0 20 0;
#X connect 22 0 32 0;
#X connect 23 0 32 1;
#X connect 30 0 32 2;
#X connect 31 0 32 0;
#X connect 32 0 23 0;
#X connect 32 1 24 0;
#X connect 32 2 27 0;
#X connect 32 3 29 0;
#X connect 33 0 22 0;
#X connect 34 0 33 0;
#X connect 38 0 46 2;
#X connect 39 0 46 3;
#X connect 40 0 46 4;
#X connect 41 0 46 5;
#X connect 42 0 46 6;
#X connect 43 0 46 7;
#X connect 44 0 46 0;
#X connect 45 0 46 1;
#X connect 46 0 5 0;
#X connect 46 0 19 0;
#X connect 46 1 5 1;
#X connect 46 1 19 1;
#X connect 46 2 5 2;
#X connect 46 2 19 2;
#X connect 46 3 5 3;
#X connect 46 3 19 3;
#X connect 46 4 5 4;
#X connect 46 4 19 4;
#X connect 46 5 5 5;
#X connect 46 5 19 5;
#X connect 46 6 5 6;
#X connect 46 6 19 6;
#X connect 46 7 5 7;
#X connect 46 7 19 7;
